<?xml version="1.0" encoding="UTF-8" ?>
<!DOCTYPE svg PUBLIC "-//W3C//DTD SVG 1.1//EN" "http://www.w3.org/Graphics/SVG/1.1/DTD/svg11.dtd">
<svg width="465pt" height="457pt" viewBox="0 0 465 457" version="1.1" xmlns="http://www.w3.org/2000/svg">
<g id="#4178a9ff">
<path fill="#4178a9" opacity="1.00" d=" M 142.73 32.75 C 179.37 15.67 220.93 9.50 260.99 14.90 C 295.93 19.48 329.59 33.06 358.06 53.82 C 388.11 75.66 412.32 105.46 427.46 139.39 C 440.89 169.28 447.15 202.31 445.82 235.04 C 445.14 248.11 443.92 261.38 440.63 274.00 L 439.93 274.15 L 439.57 273.85 C 439.49 268.51 441.18 263.38 441.85 258.13 C 425.93 263.44 410.21 269.33 394.14 274.18 C 381.83 278.12 369.60 282.35 357.23 286.10 C 333.25 294.24 309.03 301.86 284.19 306.88 C 250.58 313.78 216.43 319.35 182.03 318.84 C 163.70 318.79 145.12 316.71 127.84 310.32 C 116.59 306.12 105.72 298.93 100.09 288.02 C 95.17 278.29 95.54 266.85 98.37 256.57 C 102.68 241.07 110.85 226.64 121.97 215.00 C 129.70 206.80 138.89 200.12 148.14 193.78 C 168.17 196.35 188.08 199.94 208.19 201.96 C 241.99 205.59 276.11 207.45 310.05 204.94 C 327.68 203.38 345.49 200.70 361.90 193.78 C 373.45 188.77 384.71 181.16 390.47 169.59 C 395.22 160.45 396.87 149.12 392.22 139.60 C 386.66 127.88 375.03 120.63 363.72 115.24 C 341.94 104.32 317.20 100.29 293.00 101.33 C 269.39 102.27 245.95 106.16 223.07 111.99 C 205.68 116.38 189.13 123.38 172.16 129.10 C 157.47 134.88 143.28 141.91 129.46 149.53 C 105.69 163.05 82.01 178.13 64.74 199.75 C 54.23 211.77 47.82 226.88 44.02 242.25 C 37.63 268.73 49.18 297.98 70.91 314.06 C 77.40 319.05 84.96 322.29 92.34 325.69 C 113.68 334.79 136.94 338.18 159.94 339.66 C 183.96 341.41 208.18 339.90 231.86 335.63 C 271.91 328.18 311.27 317.42 350.15 305.38 C 369.01 299.41 387.81 293.28 406.37 286.43 C 417.56 282.62 428.55 278.18 439.85 274.74 C 439.91 275.22 440.02 276.18 440.08 276.66 C 431.61 311.86 413.96 344.79 389.34 371.34 C 364.13 398.69 331.66 419.31 296.13 430.35 C 246.07 446.06 190.23 442.47 142.69 420.23 C 108.17 404.23 78.09 378.81 56.55 347.44 C 34.93 316.17 21.98 279.00 19.50 241.06 C 16.61 199.49 26.16 157.13 46.88 120.96 C 68.67 82.57 102.67 51.29 142.73 32.75 Z" />
<path fill="#4178a9" opacity="1.00" d=" M 299.50 121.85 C 313.00 118.99 327.61 118.13 340.60 123.60 C 346.48 126.22 352.20 131.92 351.26 138.87 C 349.80 147.05 344.40 153.93 338.61 159.61 C 325.98 171.72 308.58 176.64 291.92 180.28 C 251.90 188.45 210.35 184.67 170.89 175.28 C 177.43 172.16 183.51 168.18 190.02 165.02 C 198.44 160.75 206.88 156.50 215.30 152.21 C 227.99 145.39 241.66 140.71 254.77 134.80 C 269.26 129.18 284.28 124.95 299.50 121.85 Z" />
</g>
<g id="#ffffffff">
<path fill="#ffffff" opacity="1.00" d=" M 223.07 111.99 C 245.95 106.16 269.39 102.27 293.00 101.33 C 317.20 100.29 341.94 104.32 363.72 115.24 C 375.03 120.63 386.66 127.88 392.22 139.60 C 396.87 149.12 395.22 160.45 390.47 169.59 C 384.71 181.16 373.45 188.77 361.90 193.78 C 345.49 200.70 327.68 203.38 310.05 204.94 C 276.11 207.45 241.99 205.59 208.19 201.96 C 188.08 199.94 168.17 196.35 148.14 193.78 C 138.89 200.12 129.70 206.80 121.97 215.00 C 110.85 226.64 102.68 241.07 98.37 256.57 C 95.54 266.85 95.17 278.29 100.09 288.02 C 105.72 298.93 116.59 306.12 127.84 310.32 C 145.12 316.71 163.70 318.79 182.03 318.84 C 216.43 319.35 250.58 313.78 284.19 306.88 C 309.03 301.86 333.25 294.24 357.23 286.10 C 369.60 282.35 381.83 278.12 394.14 274.18 C 410.21 269.33 425.93 263.44 441.85 258.13 C 441.18 263.38 439.49 268.51 439.57 273.85 L 439.93 274.15 L 439.85 274.74 C 428.55 278.18 417.56 282.62 406.37 286.43 C 387.81 293.28 369.01 299.41 350.15 305.38 C 311.27 317.42 271.91 328.18 231.86 335.63 C 208.18 339.90 183.96 341.41 159.94 339.66 C 136.94 338.18 113.68 334.79 92.34 325.69 C 84.96 322.29 77.40 319.05 70.91 314.06 C 49.18 297.98 37.63 268.73 44.02 242.25 C 47.82 226.88 54.23 211.77 64.74 199.75 C 82.01 178.13 105.69 163.05 129.46 149.53 C 143.28 141.91 157.47 134.88 172.16 129.10 C 189.13 123.38 205.68 116.38 223.07 111.99 M 299.50 121.85 C 284.28 124.95 269.26 129.18 254.77 134.80 C 241.66 140.71 227.99 145.39 215.30 152.21 C 206.88 156.50 198.44 160.75 190.02 165.02 C 183.51 168.18 177.43 172.16 170.89 175.28 C 210.35 184.67 251.90 188.45 291.92 180.28 C 308.58 176.64 325.98 171.72 338.61 159.61 C 344.40 153.93 349.80 147.05 351.26 138.87 C 352.20 131.92 346.48 126.22 340.60 123.60 C 327.61 118.13 313.00 118.99 299.50 121.85 Z" />
</g>
</svg>
