<?xml version="1.0" encoding="UTF-8" ?>
<!DOCTYPE svg PUBLIC "-//W3C//DTD SVG 1.1//EN" "http://www.w3.org/Graphics/SVG/1.1/DTD/svg11.dtd">
<svg width="400pt" height="400pt" viewBox="0 0 400 400" version="1.1" xmlns="http://www.w3.org/2000/svg">
<g id="#802ab9ff">
<path fill="#802ab9" opacity="1.00" d=" M 180.56 5.10 C 193.52 4.93 206.49 4.94 219.44 5.10 C 221.75 6.80 224.79 5.70 227.44 6.09 C 229.76 8.11 233.16 5.94 235.55 7.83 C 237.24 8.03 239.09 7.74 240.55 8.83 C 242.24 9.00 244.04 8.81 245.54 9.76 C 246.91 9.96 248.34 10.02 249.54 10.80 C 250.02 10.90 250.98 11.10 251.46 11.21 C 253.06 11.94 254.84 12.15 256.53 12.63 C 257.54 13.00 258.54 13.39 259.54 13.79 C 260.02 13.90 260.98 14.10 261.46 14.20 C 262.44 14.62 263.45 15.01 264.47 15.35 C 265.48 15.68 266.49 15.99 267.51 16.29 C 269.22 16.89 270.94 17.52 272.60 18.27 C 274.57 19.01 276.59 19.67 278.43 20.72 C 279.48 21.25 280.52 21.80 281.59 22.31 C 283.59 23.00 285.60 23.68 287.45 24.73 C 287.96 24.97 288.96 25.44 289.46 25.67 C 290.83 26.53 292.16 27.47 293.54 28.34 C 294.04 28.56 295.05 29.02 295.56 29.25 C 299.49 30.89 302.68 33.79 306.43 35.75 C 307.84 36.55 309.19 37.46 310.61 38.26 C 311.53 39.09 312.46 39.91 313.39 40.75 C 314.82 41.55 316.19 42.46 317.64 43.25 C 319.19 44.71 320.59 46.47 322.65 47.26 C 324.64 48.93 326.13 51.30 328.65 52.26 C 335.10 58.53 341.47 64.90 347.74 71.36 C 348.70 73.87 351.07 75.36 352.74 77.35 C 353.53 79.41 355.28 80.80 356.75 82.36 C 357.54 83.80 358.44 85.18 359.25 86.61 C 360.08 87.54 360.91 88.46 361.74 89.39 C 362.54 90.80 363.45 92.15 364.25 93.56 C 365.98 97.07 368.81 99.92 370.27 103.58 C 371.47 106.35 373.24 108.80 374.79 111.38 C 375.26 112.47 375.79 113.53 376.29 114.60 C 376.93 116.27 377.53 117.95 378.18 119.61 C 378.72 120.54 379.27 121.46 379.82 122.39 C 380.47 124.05 381.05 125.74 381.75 127.39 C 382.33 128.73 382.91 130.07 383.34 131.48 C 383.67 132.48 383.98 133.49 384.30 134.50 C 384.78 135.82 385.21 137.17 385.69 138.50 C 385.99 139.54 386.36 140.55 386.79 141.54 C 386.90 142.02 387.10 142.98 387.21 143.46 C 388.02 145.06 387.96 146.94 388.80 148.54 C 388.90 149.02 389.11 149.97 389.21 150.45 C 389.95 151.66 390.03 153.08 390.24 154.45 C 391.43 156.31 390.52 158.75 391.83 160.55 C 392.04 162.24 391.69 164.15 392.90 165.56 C 393.20 167.89 392.34 170.55 393.90 172.56 C 394.00 174.85 393.99 177.15 394.10 179.44 C 395.45 180.99 394.92 183.08 395.03 184.94 C 394.90 196.44 395.15 207.94 394.90 219.44 C 393.21 221.76 394.29 224.79 393.91 227.44 C 391.89 229.77 394.07 233.18 392.14 235.56 C 392.03 236.85 391.96 238.15 391.86 239.44 C 390.50 241.23 391.43 243.68 390.25 245.55 C 390.03 246.91 389.95 248.33 389.21 249.55 C 389.11 250.03 388.90 250.98 388.80 251.46 C 387.97 253.06 388.00 254.93 387.20 256.54 C 387.10 257.02 386.90 257.98 386.79 258.46 C 386.37 259.45 385.99 260.45 385.65 261.47 C 385.32 262.48 385.01 263.49 384.71 264.50 C 384.21 265.82 383.77 267.17 383.30 268.50 C 382.92 269.92 382.34 271.28 381.74 272.62 C 381.22 273.88 380.78 275.17 380.32 276.45 C 380.05 276.94 379.53 277.92 379.27 278.41 C 378.75 279.47 378.21 280.52 377.70 281.59 C 377.08 283.27 376.47 284.94 375.79 286.59 C 374.56 288.98 373.22 291.32 371.70 293.54 C 371.22 294.50 370.73 295.47 370.25 296.44 C 370.02 296.94 369.56 297.96 369.33 298.46 C 367.67 301.14 365.74 303.65 364.20 306.41 C 363.99 306.92 363.55 307.94 363.33 308.46 C 362.46 309.83 361.54 311.18 360.72 312.59 C 359.58 313.82 358.34 315.03 357.75 316.65 C 356.29 318.25 354.71 319.74 353.26 321.36 C 352.23 324.38 348.76 325.61 347.74 328.65 C 342.05 334.63 336.05 340.32 330.30 346.25 C 329.50 347.15 328.45 347.77 327.36 348.26 C 325.75 349.71 324.25 351.28 322.64 352.74 C 320.59 353.54 319.19 355.28 317.64 356.75 C 316.19 357.54 314.82 358.44 313.39 359.26 C 312.46 360.08 311.53 360.91 310.60 361.74 C 308.91 362.72 307.29 363.81 305.56 364.73 C 302.82 366.27 300.37 368.27 297.62 369.78 C 296.24 370.38 294.88 371.01 293.54 371.68 C 292.17 372.54 290.84 373.46 289.45 374.28 C 288.49 374.77 287.54 375.27 286.60 375.80 C 284.26 376.79 281.77 377.43 279.57 378.72 C 276.99 380.22 274.09 381.04 271.40 382.30 C 270.44 382.66 269.47 382.99 268.50 383.31 C 267.17 383.78 265.82 384.21 264.50 384.70 C 263.49 385.01 262.48 385.32 261.47 385.65 C 260.45 385.99 259.45 386.38 258.46 386.79 C 257.98 386.90 257.02 387.10 256.54 387.21 C 254.93 388.00 253.07 388.00 251.46 388.79 C 250.98 388.90 250.02 389.10 249.55 389.20 C 248.34 389.96 246.91 390.03 245.55 390.24 C 243.68 391.42 241.25 390.52 239.45 391.83 C 237.75 392.04 235.85 391.68 234.44 392.90 C 232.11 393.20 229.45 392.34 227.44 393.90 C 225.15 394.00 222.85 393.99 220.56 394.10 C 220.14 394.32 219.30 394.74 218.89 394.96 C 206.11 395.01 193.33 395.09 180.56 394.90 C 178.24 393.20 175.21 394.29 172.56 393.91 C 170.24 391.89 166.83 394.06 164.45 392.17 C 162.75 391.97 160.91 392.25 159.45 391.17 C 157.76 390.99 155.96 391.19 154.46 390.24 C 153.09 390.03 151.66 389.96 150.45 389.20 C 149.98 389.10 149.02 388.89 148.55 388.79 C 146.93 388.06 145.15 387.88 143.48 387.34 C 142.48 387.00 141.48 386.67 140.48 386.34 C 139.45 386.00 138.45 385.62 137.46 385.21 C 136.98 385.10 136.02 384.90 135.54 384.80 C 134.55 384.35 133.54 383.99 132.50 383.70 C 131.20 383.23 129.89 382.79 128.61 382.27 C 126.58 381.35 124.47 380.63 122.40 379.80 C 119.98 378.25 117.29 377.23 114.60 376.29 C 113.52 375.79 112.46 375.25 111.38 374.78 C 109.70 373.81 108.09 372.71 106.46 371.67 C 105.96 371.44 104.94 370.98 104.44 370.75 C 100.50 369.11 97.32 366.22 93.57 364.26 C 92.15 363.45 90.80 362.54 89.39 361.74 C 88.46 360.91 87.53 360.08 86.61 359.25 C 85.18 358.44 83.81 357.54 82.38 356.74 C 81.10 355.61 79.91 354.39 78.63 353.26 C 76.13 352.28 74.64 349.92 72.65 348.25 C 71.56 347.78 70.51 347.17 69.72 346.27 C 63.96 340.33 57.96 334.64 52.26 328.65 C 51.30 326.13 48.93 324.64 47.26 322.65 C 46.47 320.59 44.71 319.20 43.25 317.64 C 42.46 316.19 41.55 314.82 40.74 313.39 C 39.91 312.46 39.09 311.53 38.27 310.60 C 37.28 308.91 36.18 307.29 35.27 305.56 C 33.73 302.81 31.72 300.36 30.22 297.59 C 29.98 297.08 29.51 296.06 29.28 295.56 C 29.04 295.05 28.56 294.05 28.32 293.54 C 27.47 292.16 26.54 290.84 25.69 289.46 C 25.03 288.10 24.35 286.76 23.69 285.41 C 23.08 283.73 22.48 282.05 21.79 280.41 C 21.03 279.11 20.35 277.76 19.69 276.41 C 19.22 275.14 18.78 273.86 18.27 272.62 C 17.51 270.95 16.90 269.23 16.29 267.51 C 15.99 266.49 15.68 265.48 15.35 264.47 C 15.00 263.45 14.62 262.45 14.20 261.46 C 14.10 260.98 13.90 260.02 13.80 259.54 C 13.38 258.55 12.99 257.54 12.62 256.53 C 12.15 254.84 11.95 253.06 11.21 251.46 C 11.11 250.98 10.90 250.02 10.80 249.55 C 10.04 248.34 9.96 246.91 9.76 245.55 C 8.57 243.68 9.47 241.25 8.17 239.45 C 7.95 237.75 8.30 235.85 7.10 234.44 C 6.80 232.11 7.66 229.45 6.10 227.44 C 5.99 225.15 6.01 222.85 5.90 220.56 C 4.73 219.27 5.00 217.54 4.97 215.97 C 5.08 204.32 4.90 192.67 5.05 181.03 C 5.26 180.63 5.68 179.84 5.89 179.44 C 6.01 177.15 5.99 174.85 6.10 172.56 C 7.66 170.55 6.79 167.89 7.10 165.56 C 8.31 164.15 7.95 162.25 8.17 160.55 C 9.47 158.74 8.57 156.31 9.76 154.45 C 9.97 153.08 10.03 151.66 10.80 150.46 C 10.90 149.98 11.11 149.02 11.21 148.55 C 12.00 146.93 12.01 145.07 12.79 143.45 C 12.89 142.98 13.10 142.02 13.20 141.54 C 13.62 140.55 14.00 139.54 14.34 138.52 C 14.68 137.52 15.01 136.52 15.33 135.52 C 15.67 134.52 15.99 133.51 16.29 132.49 C 16.77 131.20 17.21 129.89 17.73 128.61 C 18.47 126.97 19.10 125.28 19.68 123.58 C 20.35 122.23 21.03 120.89 21.80 119.60 C 22.64 117.55 23.37 115.45 24.21 113.40 C 25.45 111.01 26.77 108.67 28.33 106.47 C 28.98 105.12 29.61 103.76 30.22 102.39 C 31.73 99.63 33.73 97.18 35.27 94.44 C 36.18 92.70 37.28 91.08 38.27 89.39 C 39.09 88.46 39.91 87.53 40.74 86.61 C 41.55 85.18 42.46 83.81 43.25 82.37 C 44.39 81.11 45.61 79.91 46.73 78.64 C 47.71 76.13 50.07 74.64 51.75 72.65 C 52.21 71.55 52.83 70.51 53.74 69.71 C 59.67 63.96 65.37 57.96 71.36 52.26 C 73.86 51.29 75.36 48.93 77.35 47.26 C 79.41 46.47 80.80 44.71 82.36 43.25 C 83.81 42.46 85.18 41.56 86.61 40.74 C 87.54 39.92 88.46 39.08 89.39 38.26 C 90.81 37.46 92.15 36.55 93.57 35.75 C 96.38 34.31 98.82 32.29 101.54 30.70 C 102.51 30.22 103.47 29.74 104.44 29.25 C 104.95 29.02 105.96 28.57 106.46 28.34 C 108.10 27.28 109.70 26.18 111.38 25.21 C 112.47 24.74 113.53 24.21 114.60 23.71 C 115.86 23.22 117.14 22.78 118.42 22.32 C 119.77 21.65 121.10 20.97 122.40 20.20 C 124.47 19.37 126.58 18.65 128.61 17.73 C 129.89 17.21 131.20 16.77 132.49 16.29 C 133.51 15.99 134.52 15.68 135.53 15.35 C 136.54 15.00 137.55 14.62 138.54 14.20 C 139.02 14.10 139.98 13.90 140.46 13.80 C 141.45 13.38 142.45 12.99 143.47 12.62 C 145.16 12.16 146.93 11.94 148.54 11.21 C 149.02 11.10 149.98 10.90 150.45 10.80 C 151.66 10.05 153.09 9.97 154.45 9.76 C 155.96 8.82 157.75 9.00 159.44 8.83 C 160.91 7.75 162.75 8.02 164.45 7.83 C 166.51 6.41 169.11 7.17 171.44 6.90 C 174.08 4.73 177.92 7.27 180.56 5.10 M 132.34 85.43 C 111.91 87.14 91.71 94.00 75.05 106.08 C 65.95 112.97 57.27 121.11 51.97 131.35 C 48.38 135.68 46.65 141.54 44.89 146.88 C 41.26 157.34 41.57 168.99 44.53 179.58 C 44.30 180.17 43.84 181.37 43.61 181.97 C 46.26 195.25 53.52 207.36 63.34 216.62 C 65.75 218.79 68.12 221.78 71.71 221.61 C 71.64 225.14 70.94 228.79 68.82 231.69 C 66.27 235.58 61.91 237.54 58.48 240.48 C 58.04 240.59 57.16 240.82 56.72 240.93 C 55.89 241.70 55.27 242.62 54.95 243.71 C 56.40 244.21 57.83 244.76 59.31 245.15 C 60.06 245.35 61.55 245.73 62.30 245.92 C 60.86 246.52 59.48 247.26 58.08 247.96 C 59.84 252.36 64.95 252.95 69.06 253.35 C 77.06 252.83 85.09 251.45 92.64 248.65 C 99.17 245.68 105.75 242.79 112.11 239.49 C 119.05 240.23 125.94 241.92 132.98 241.49 C 142.67 241.89 152.30 240.42 161.72 238.28 C 165.30 240.66 164.98 245.21 166.11 248.88 C 169.42 261.76 177.21 273.20 186.93 282.12 C 208.11 301.52 237.75 309.34 265.97 308.41 C 275.00 307.71 283.98 306.12 292.72 303.73 C 295.01 302.95 297.35 303.63 299.46 304.60 C 305.45 307.30 312.07 307.86 318.31 309.78 C 325.00 311.90 332.09 311.67 339.01 311.38 C 343.08 310.90 347.75 310.37 350.55 307.02 C 350.99 304.96 349.09 304.03 347.80 302.92 C 349.46 302.44 351.13 302.03 352.81 301.66 C 353.01 300.32 353.20 298.99 353.41 297.66 C 352.94 297.82 351.99 298.14 351.51 298.30 L 351.56 297.86 C 346.55 296.31 341.77 293.79 338.03 290.08 C 336.80 286.75 335.35 283.45 334.80 279.91 C 335.29 280.12 336.26 280.53 336.75 280.74 C 347.52 270.41 355.47 256.76 357.69 241.89 C 358.10 239.72 357.64 237.56 356.72 235.60 C 357.92 227.32 357.81 218.56 355.09 210.58 C 348.38 186.84 328.11 169.14 305.70 160.34 C 283.18 151.37 257.87 149.84 234.30 155.21 C 234.21 152.21 234.27 149.10 232.99 146.32 C 232.90 145.98 232.73 145.31 232.64 144.97 C 233.76 143.50 233.47 142.59 231.77 142.23 L 231.82 140.98 C 232.57 139.51 231.82 136.09 229.94 136.19 C 229.17 130.84 226.03 126.14 223.00 121.78 C 217.96 113.78 210.72 107.36 203.00 102.01 C 188.67 92.40 171.70 86.87 154.55 85.47 C 150.87 84.03 146.85 84.25 142.98 84.18 C 139.42 84.30 135.69 84.02 132.34 85.43 Z" />
</g>
<g id="#962850ff">
<path fill="#962850" opacity="1.00" d=" M 132.34 85.43 C 135.69 84.02 139.42 84.30 142.98 84.18 C 146.85 84.25 150.87 84.03 154.55 85.47 C 147.15 85.53 139.74 85.54 132.34 85.43 Z" />
</g>
<g id="#b8240cff">
<path fill="#b8240c" opacity="1.00" d=" M 154.55 85.47 C 171.70 86.87 188.67 92.40 203.00 102.01 C 210.72 107.36 217.96 113.78 223.00 121.78 C 224.11 125.21 224.44 128.82 224.95 132.37 C 223.76 130.45 222.48 128.58 221.25 126.68 C 215.16 116.38 206.01 108.07 195.44 102.54 C 191.48 100.08 187.23 97.90 182.45 97.83 C 181.63 97.54 180.81 97.26 180.00 96.96 C 156.93 87.22 130.33 88.82 107.03 96.90 C 100.30 99.09 93.95 102.30 87.99 106.11 C 86.61 106.97 85.21 107.82 83.88 108.76 C 82.09 108.69 80.13 108.34 78.57 109.47 C 70.00 114.64 62.88 121.83 56.55 129.51 C 55.08 130.26 53.51 130.78 51.97 131.35 C 57.27 121.11 65.95 112.97 75.05 106.08 C 91.71 94.00 111.91 87.14 132.34 85.43 C 139.74 85.54 147.15 85.53 154.55 85.47 Z" />
<path fill="#b8240c" opacity="1.00" d=" M 138.05 231.97 C 147.28 231.31 156.80 230.76 165.42 227.08 C 165.44 227.48 165.48 228.28 165.49 228.68 C 146.89 234.18 126.91 234.38 107.96 230.54 C 95.37 243.00 76.46 246.96 59.31 245.15 C 57.83 244.76 56.40 244.21 54.95 243.71 C 55.27 242.62 55.89 241.70 56.72 240.93 C 58.45 242.62 60.39 244.38 62.98 244.30 C 74.68 245.17 86.74 242.83 97.17 237.42 C 101.25 235.45 104.30 231.98 108.12 229.66 C 112.09 229.60 115.87 231.16 119.83 231.37 C 125.90 231.68 131.97 232.70 138.05 231.97 Z" />
</g>
<g id="#f3c7b8ff">
<path fill="#f3c7b8" opacity="1.00" d=" M 107.03 96.90 C 130.33 88.82 156.93 87.22 180.00 96.96 C 176.41 98.17 172.66 97.37 169.00 97.21 C 152.19 96.89 135.35 97.75 118.57 96.68 C 114.70 96.60 110.80 98.60 107.03 96.90 Z" />
</g>
<g id="#f1b6a8ff">
<path fill="#f1b6a8" opacity="1.00" d=" M 107.03 96.90 C 110.80 98.60 114.70 96.60 118.57 96.68 C 135.35 97.75 152.19 96.89 169.00 97.21 C 172.66 97.37 176.41 98.17 180.00 96.96 C 180.81 97.26 181.63 97.54 182.45 97.83 C 187.11 100.27 191.60 103.03 195.72 106.31 C 184.71 105.19 173.64 104.88 162.59 105.47 C 142.05 104.96 121.51 105.35 100.97 105.09 C 96.62 105.02 92.35 106.16 87.99 106.11 C 93.95 102.30 100.30 99.09 107.03 96.90 Z" />
</g>
<g id="#dc250cff">
<path fill="#dc250c" opacity="1.00" d=" M 182.45 97.83 C 187.23 97.90 191.48 100.08 195.44 102.54 C 206.01 108.07 215.16 116.38 221.25 126.68 C 218.73 126.47 216.21 126.25 213.70 126.03 C 213.42 127.16 213.13 128.30 212.85 129.43 C 210.80 124.39 208.15 119.57 204.71 115.34 C 202.05 112.02 199.08 108.93 195.72 106.31 C 191.60 103.03 187.11 100.27 182.45 97.83 Z" />
</g>
<g id="#f0a493ff">
<path fill="#f0a493" opacity="1.00" d=" M 87.99 106.11 C 92.35 106.16 96.62 105.02 100.97 105.09 C 121.51 105.35 142.05 104.96 162.59 105.47 C 173.64 104.88 184.71 105.19 195.72 106.31 C 199.08 108.93 202.05 112.02 204.71 115.34 C 198.16 116.13 191.57 115.71 185.00 115.78 C 169.46 115.81 153.93 116.01 138.39 115.69 C 117.37 116.55 96.32 115.46 75.31 116.35 C 78.05 113.69 80.90 111.14 83.88 108.76 C 85.21 107.82 86.61 106.97 87.99 106.11 Z" />
</g>
<g id="#de351dff">
<path fill="#de351d" opacity="1.00" d=" M 78.57 109.47 C 80.13 108.34 82.09 108.69 83.88 108.76 C 80.90 111.14 78.05 113.69 75.31 116.35 C 72.76 118.88 70.33 121.56 68.25 124.50 C 67.03 126.21 65.93 128.00 64.93 129.85 C 64.65 128.54 64.39 127.25 64.12 125.95 C 60.20 128.40 57.08 131.85 54.17 135.39 C 54.98 133.43 55.70 131.45 56.55 129.51 C 62.88 121.83 70.00 114.64 78.57 109.47 Z" />
</g>
<g id="#ee907eff">
<path fill="#ee907e" opacity="1.00" d=" M 75.31 116.35 C 96.32 115.46 117.37 116.55 138.39 115.69 C 153.93 116.01 169.46 115.81 185.00 115.78 C 191.57 115.71 198.16 116.13 204.71 115.34 C 208.15 119.57 210.80 124.39 212.85 129.43 C 213.02 129.86 213.35 130.71 213.52 131.13 C 207.37 130.44 201.17 130.19 194.98 130.48 C 185.55 131.03 176.06 130.06 166.66 131.39 C 162.75 132.08 159.00 130.59 155.43 129.19 C 147.87 124.37 138.50 123.23 129.88 125.49 C 128.04 124.64 126.06 124.10 124.02 124.17 C 107.69 124.33 91.33 123.88 75.04 125.21 C 72.77 125.31 70.25 125.91 68.25 124.50 C 70.33 121.56 72.76 118.88 75.31 116.35 Z" />
</g>
<g id="#b5321aff">
<path fill="#b5321a" opacity="1.00" d=" M 223.00 121.78 C 226.03 126.14 229.17 130.84 229.94 136.19 C 230.05 137.94 230.39 139.80 231.82 140.98 L 231.77 142.23 C 231.66 143.26 231.95 144.17 232.64 144.97 C 232.73 145.31 232.90 145.98 232.99 146.32 C 232.93 149.43 233.86 152.85 232.35 155.73 L 230.67 156.18 C 229.83 151.73 229.14 147.25 228.11 142.84 C 227.12 139.33 226.00 135.86 224.95 132.37 C 224.44 128.82 224.11 125.21 223.00 121.78 Z" />
</g>
<g id="#ec836fff">
<path fill="#ec836f" opacity="1.00" d=" M 64.93 129.85 C 65.93 128.00 67.03 126.21 68.25 124.50 C 70.25 125.91 72.77 125.31 75.04 125.21 C 91.33 123.88 107.69 124.33 124.02 124.17 C 126.06 124.10 128.04 124.64 129.88 125.49 C 125.18 127.16 120.95 130.03 117.69 133.82 C 117.19 133.81 116.18 133.79 115.68 133.78 C 114.70 135.58 113.72 137.37 112.74 139.17 C 111.83 138.88 110.94 138.60 110.04 138.32 C 104.57 140.52 98.57 139.79 92.89 140.93 C 83.69 142.75 74.30 142.99 65.00 143.95 C 62.99 143.99 61.49 145.39 59.95 146.47 C 59.86 145.22 59.79 143.97 59.73 142.72 C 61.03 138.27 62.89 134.00 64.93 129.85 Z" />
</g>
<g id="#ffffffff">
<path fill="#ffffff" opacity="1.00" d=" M 129.88 125.49 C 138.50 123.23 147.87 124.37 155.43 129.19 C 161.38 134.10 164.18 142.26 161.83 149.71 C 160.42 152.54 158.55 155.14 156.29 157.37 C 152.14 161.29 147.39 164.71 144.14 169.49 C 143.44 171.87 142.92 174.30 142.25 176.69 C 139.70 180.72 134.08 179.78 131.37 176.45 C 131.28 174.40 131.18 172.34 131.04 170.29 C 131.54 166.66 133.19 163.29 135.54 160.51 C 139.09 156.65 143.41 153.62 147.00 149.80 C 148.83 147.34 149.94 144.08 148.72 141.09 C 145.93 133.01 132.74 132.45 128.98 139.99 C 127.16 143.37 125.91 147.02 124.01 150.36 C 121.77 150.70 119.50 150.82 117.23 150.73 C 115.76 149.07 113.72 147.46 113.64 145.06 C 113.57 140.96 115.44 137.13 117.69 133.82 C 120.95 130.03 125.18 127.16 129.88 125.49 Z" />
<path fill="#ffffff" opacity="1.00" d=" M 130.06 189.89 C 131.02 186.41 134.22 183.54 137.99 184.02 C 141.62 183.84 144.49 187.00 144.89 190.44 C 144.73 191.85 144.52 193.25 144.27 194.65 C 142.58 196.93 140.04 198.91 137.03 198.56 C 134.24 198.46 132.27 196.34 130.42 194.52 C 130.31 192.97 130.19 191.43 130.06 189.89 Z" />
<path fill="#ffffff" opacity="1.00" d=" M 257.16 191.53 C 260.30 189.24 264.28 188.76 267.87 190.26 C 271.44 196.02 270.21 202.96 269.91 209.34 C 269.01 217.12 268.37 224.92 267.70 232.73 C 267.54 235.53 266.36 238.12 264.60 240.29 C 263.43 240.33 262.26 240.34 261.09 240.33 C 258.80 238.48 258.01 235.59 257.49 232.83 C 257.46 228.11 256.98 223.41 256.69 218.70 C 256.32 211.48 255.33 204.27 255.54 197.03 C 255.55 195.07 256.35 193.26 257.16 191.53 Z" />
<path fill="#ffffff" opacity="1.00" d=" M 258.93 249.90 C 262.95 247.07 268.55 249.75 270.26 253.98 C 270.77 257.50 269.46 261.50 265.90 262.86 C 261.93 264.80 257.46 262.34 255.57 258.69 C 255.16 255.41 255.76 251.63 258.93 249.90 Z" />
</g>
<g id="#e4553cff">
<path fill="#e4553c" opacity="1.00" d=" M 54.17 135.39 C 57.08 131.85 60.20 128.40 64.12 125.95 C 64.39 127.25 64.65 128.54 64.93 129.85 C 62.89 134.00 61.03 138.27 59.73 142.72 C 58.32 147.18 57.34 151.75 56.51 156.34 C 54.18 155.89 51.83 155.50 49.48 155.20 C 48.22 160.45 47.97 165.86 48.21 171.24 C 45.08 165.37 47.88 158.86 47.29 152.62 C 48.12 146.40 51.14 140.78 54.17 135.39 Z" />
</g>
<g id="#df331bff">
<path fill="#df331b" opacity="1.00" d=" M 213.70 126.03 C 216.21 126.25 218.73 126.47 221.25 126.68 C 222.48 128.58 223.76 130.45 224.95 132.37 C 226.00 135.86 227.12 139.33 228.11 142.84 C 225.59 140.67 222.44 139.56 219.19 139.05 C 218.31 140.22 217.42 141.39 216.54 142.56 L 216.40 141.76 C 215.83 138.12 214.77 134.59 213.52 131.13 C 213.35 130.71 213.02 129.86 212.85 129.43 C 213.13 128.30 213.42 127.16 213.70 126.03 Z" />
</g>
<g id="#b4331bff">
<path fill="#b4331b" opacity="1.00" d=" M 51.97 131.35 C 53.51 130.78 55.08 130.26 56.55 129.51 C 55.70 131.45 54.98 133.43 54.17 135.39 C 51.14 140.78 48.12 146.40 47.29 152.62 C 46.69 156.73 45.54 160.80 45.66 164.98 C 46.09 174.68 48.38 184.42 53.40 192.81 C 58.21 201.35 65.63 207.93 73.00 214.19 C 74.84 222.14 72.15 230.66 66.58 236.56 C 64.73 237.76 62.88 238.96 60.92 239.97 C 60.31 240.10 59.09 240.35 58.48 240.48 C 61.91 237.54 66.27 235.58 68.82 231.69 C 70.94 228.79 71.64 225.14 71.71 221.61 C 71.73 219.41 71.68 217.21 71.63 215.01 C 64.07 209.63 57.54 202.90 52.35 195.21 C 51.00 192.29 49.48 189.46 47.81 186.72 C 47.64 186.33 47.31 185.54 47.14 185.15 C 44.45 177.42 42.58 169.26 42.94 161.02 C 43.26 156.27 44.07 151.57 44.89 146.88 C 46.65 141.54 48.38 135.68 51.97 131.35 Z" />
</g>
<g id="#ea7561ff">
<path fill="#ea7561" opacity="1.00" d=" M 155.43 129.19 C 159.00 130.59 162.75 132.08 166.66 131.39 C 176.06 130.06 185.55 131.03 194.98 130.48 C 201.17 130.19 207.37 130.44 213.52 131.13 C 214.77 134.59 215.83 138.12 216.40 141.76 C 216.16 143.71 215.85 145.66 215.55 147.61 C 205.97 148.14 196.47 149.60 186.89 150.14 C 188.99 150.98 191.43 151.54 192.79 153.52 C 182.63 151.19 172.20 150.46 161.83 149.71 C 164.18 142.26 161.38 134.10 155.43 129.19 Z" />
</g>
<g id="#ea7760ff">
<path fill="#ea7760" opacity="1.00" d=" M 115.68 133.78 C 116.18 133.79 117.19 133.81 117.69 133.82 C 115.44 137.13 113.57 140.96 113.64 145.06 C 113.72 147.46 115.76 149.07 117.23 150.73 C 111.18 151.28 105.18 152.28 99.13 152.86 C 92.10 153.35 85.24 155.03 78.36 156.45 C 75.29 157.05 72.37 158.19 69.59 159.60 C 80.43 161.95 91.60 162.26 102.60 163.57 C 111.47 164.64 120.39 165.31 129.26 166.42 C 129.86 167.71 130.47 168.99 131.04 170.29 C 131.18 172.34 131.28 174.40 131.37 176.45 C 127.01 175.23 122.52 174.64 118.03 174.19 C 102.03 172.45 85.99 171.21 70.02 169.17 C 63.29 168.21 56.35 168.54 49.81 166.39 C 49.45 168.66 49.10 170.94 48.86 173.23 C 48.69 172.73 48.37 171.74 48.21 171.24 C 47.97 165.86 48.22 160.45 49.48 155.20 C 51.83 155.50 54.18 155.89 56.51 156.34 C 57.34 151.75 58.32 147.18 59.73 142.72 C 59.79 143.97 59.86 145.22 59.95 146.47 C 61.49 145.39 62.99 143.99 65.00 143.95 C 74.30 142.99 83.69 142.75 92.89 140.93 C 98.57 139.79 104.57 140.52 110.04 138.32 C 110.94 138.60 111.83 138.88 112.74 139.17 C 113.72 137.37 114.70 135.58 115.68 133.78 Z" />
</g>
<g id="#eb7661ff">
<path fill="#eb7661" opacity="1.00" d=" M 128.98 139.99 C 132.74 132.45 145.93 133.01 148.72 141.09 C 149.94 144.08 148.83 147.34 147.00 149.80 C 139.35 149.20 131.64 149.80 124.01 150.36 C 125.91 147.02 127.16 143.37 128.98 139.99 Z" />
</g>
<g id="#7f2343ff">
<path fill="#7f2343" opacity="1.00" d=" M 229.94 136.19 C 231.82 136.09 232.57 139.51 231.82 140.98 C 230.39 139.80 230.05 137.94 229.94 136.19 Z" />
</g>
<g id="#e2462dff">
<path fill="#e2462d" opacity="1.00" d=" M 216.54 142.56 C 217.42 141.39 218.31 140.22 219.19 139.05 C 222.44 139.56 225.59 140.67 228.11 142.84 C 229.14 147.25 229.83 151.73 230.67 156.18 C 227.87 156.88 225.08 157.67 222.37 158.65 C 220.56 157.62 218.78 156.57 217.02 155.47 C 217.42 151.16 217.30 146.82 216.54 142.56 Z" />
</g>
<g id="#e96b54ff">
<path fill="#e96b54" opacity="1.00" d=" M 216.40 141.76 L 216.54 142.56 C 217.30 146.82 217.42 151.16 217.02 155.47 C 215.51 156.81 214.10 158.31 212.34 159.34 C 210.44 160.07 208.51 158.84 206.73 158.26 C 202.25 156.23 197.54 154.77 192.79 153.52 C 191.43 151.54 188.99 150.98 186.89 150.14 C 196.47 149.60 205.97 148.14 215.55 147.61 C 215.85 145.66 216.16 143.71 216.40 141.76 Z" />
</g>
<g id="#6c205aff">
<path fill="#6c205a" opacity="1.00" d=" M 231.77 142.23 C 233.47 142.59 233.76 143.50 232.64 144.97 C 231.95 144.17 231.66 143.26 231.77 142.23 Z" />
</g>
<g id="#431660ff">
<path fill="#431660" opacity="1.00" d=" M 44.53 179.58 C 41.57 168.99 41.26 157.34 44.89 146.88 C 44.07 151.57 43.26 156.27 42.94 161.02 C 42.58 169.26 44.45 177.42 47.14 185.15 C 46.27 183.29 45.34 181.46 44.53 179.58 Z" />
<path fill="#431660" opacity="1.00" d=" M 107.96 230.54 C 126.91 234.38 146.89 234.18 165.49 228.68 C 165.73 231.02 166.04 233.35 166.39 235.68 C 163.35 234.79 160.15 234.20 157.03 235.08 C 143.59 237.94 129.63 238.27 116.11 235.81 C 109.50 235.55 102.80 237.66 97.31 241.32 C 91.16 245.14 84.01 246.89 76.95 248.08 C 71.91 249.14 67.25 246.29 62.30 245.92 C 61.55 245.73 60.06 245.35 59.31 245.15 C 76.46 246.96 95.37 243.00 107.96 230.54 Z" />
</g>
<g id="#6f2551ff">
<path fill="#6f2551" opacity="1.00" d=" M 232.99 146.32 C 234.27 149.10 234.21 152.21 234.30 155.21 C 233.81 155.34 232.84 155.60 232.35 155.73 C 233.86 152.85 232.93 149.43 232.99 146.32 Z" />
</g>
<g id="#e55940ff">
<path fill="#e55940" opacity="1.00" d=" M 124.01 150.36 C 131.64 149.80 139.35 149.20 147.00 149.80 C 143.41 153.62 139.09 156.65 135.54 160.51 C 135.47 159.44 135.40 158.37 135.34 157.30 C 126.55 156.92 117.87 155.50 109.11 154.83 C 105.73 154.53 102.03 155.02 99.13 152.86 C 105.18 152.28 111.18 151.28 117.23 150.73 C 119.50 150.82 121.77 150.70 124.01 150.36 Z" />
</g>
<g id="#e4563dff">
<path fill="#e4563d" opacity="1.00" d=" M 161.83 149.71 C 172.20 150.46 182.63 151.19 192.79 153.52 C 197.54 154.77 202.25 156.23 206.73 158.26 C 208.51 158.84 210.44 160.07 212.34 159.34 C 214.10 158.31 215.51 156.81 217.02 155.47 C 218.78 156.57 220.56 157.62 222.37 158.65 C 218.02 160.20 213.75 161.99 209.60 164.02 C 204.72 161.70 199.22 162.06 193.99 161.35 C 187.00 160.47 179.98 159.80 172.98 158.95 C 167.44 158.20 161.78 158.59 156.29 157.37 C 158.55 155.14 160.42 152.54 161.83 149.71 Z" />
</g>
<g id="#3651a5ff">
<path fill="#3651a5" opacity="1.00" d=" M 234.30 155.21 C 257.87 149.84 283.18 151.37 305.70 160.34 C 328.11 169.14 348.38 186.84 355.09 210.58 C 355.41 212.83 355.66 215.10 355.81 217.37 C 354.51 222.16 354.66 227.14 354.49 232.06 C 354.26 226.89 354.62 221.62 353.19 216.58 C 352.36 213.22 351.37 209.90 350.33 206.59 C 349.10 202.98 347.41 199.55 345.51 196.25 C 338.03 183.63 326.10 174.23 313.31 167.38 C 299.79 159.84 284.34 156.27 269.01 154.90 C 266.12 154.55 263.24 155.09 260.41 155.65 C 256.50 156.18 252.56 156.53 248.61 156.49 C 246.18 156.20 243.72 155.75 241.28 156.19 C 222.07 159.72 203.20 167.38 188.56 180.57 C 185.48 183.26 183.31 187.32 179.15 188.52 C 181.06 186.03 183.10 183.64 185.32 181.42 C 187.59 179.16 189.96 176.99 192.44 174.97 C 197.77 170.75 203.56 167.13 209.60 164.02 C 213.75 161.99 218.02 160.20 222.37 158.65 C 225.08 157.67 227.87 156.88 230.67 156.18 L 232.35 155.73 C 232.84 155.60 233.81 155.34 234.30 155.21 Z" />
</g>
<g id="#cb7059ff">
<path fill="#cb7059" opacity="1.00" d=" M 47.29 152.62 C 47.88 158.86 45.08 165.37 48.21 171.24 C 48.37 171.74 48.69 172.73 48.86 173.23 C 49.71 176.23 50.50 179.26 51.50 182.22 C 52.63 185.36 54.18 188.33 55.84 191.22 C 57.79 194.73 60.14 198.02 62.89 200.95 C 66.94 205.20 71.28 209.18 75.99 212.71 C 76.60 216.81 75.77 220.94 75.24 225.00 C 74.67 229.35 71.76 232.79 69.05 236.04 L 66.58 236.56 C 72.15 230.66 74.84 222.14 73.00 214.19 C 65.63 207.93 58.21 201.35 53.40 192.81 C 48.38 184.42 46.09 174.68 45.66 164.98 C 45.54 160.80 46.69 156.73 47.29 152.62 Z" />
</g>
<g id="#e7674eff">
<path fill="#e7674e" opacity="1.00" d=" M 78.36 156.45 C 85.24 155.03 92.10 153.35 99.13 152.86 C 102.03 155.02 105.73 154.53 109.11 154.83 C 117.87 155.50 126.55 156.92 135.34 157.30 C 135.40 158.37 135.47 159.44 135.54 160.51 C 133.19 163.29 131.54 166.66 131.04 170.29 C 130.47 168.99 129.86 167.71 129.26 166.42 C 120.39 165.31 111.47 164.64 102.60 163.57 C 91.60 162.26 80.43 161.95 69.59 159.60 C 72.37 158.19 75.29 157.05 78.36 156.45 Z" />
</g>
<g id="#3f60abff">
<path fill="#3f60ab" opacity="1.00" d=" M 260.41 155.65 C 263.24 155.09 266.12 154.55 269.01 154.90 C 284.34 156.27 299.79 159.84 313.31 167.38 C 314.23 169.82 316.71 170.95 318.73 172.31 C 321.74 174.14 324.42 176.43 327.01 178.79 C 324.60 179.61 322.19 180.41 319.79 181.23 C 316.47 178.14 312.74 175.51 308.82 173.26 C 307.21 172.34 305.60 171.41 303.96 170.55 C 304.54 169.33 305.11 168.11 305.69 166.89 C 292.00 158.93 275.98 156.62 260.41 155.65 Z" />
</g>
<g id="#3f60adff">
<path fill="#3f60ad" opacity="1.00" d=" M 241.28 156.19 C 243.72 155.75 246.18 156.20 248.61 156.49 C 226.31 159.33 204.06 167.83 187.90 183.86 C 180.43 191.18 175.11 200.36 171.39 210.07 L 170.78 208.65 C 166.48 220.46 166.25 233.77 170.38 245.66 C 173.35 254.73 178.84 262.79 185.37 269.67 C 188.38 272.58 191.61 275.28 194.09 278.69 C 188.06 274.82 183.18 269.47 178.65 263.99 C 172.62 255.57 167.91 246.01 166.39 235.68 C 166.04 233.35 165.73 231.02 165.49 228.68 C 165.48 228.28 165.44 227.48 165.42 227.08 C 165.41 226.49 165.40 225.32 165.39 224.73 L 165.43 223.79 C 165.59 219.64 166.21 215.51 167.34 211.52 C 168.62 207.06 170.32 202.72 172.48 198.62 C 173.19 197.29 173.95 195.98 174.72 194.69 C 176.07 192.54 177.57 190.50 179.15 188.52 C 183.31 187.32 185.48 183.26 188.56 180.57 C 203.20 167.38 222.07 159.72 241.28 156.19 Z" />
</g>
<g id="#3651a3ff">
<path fill="#3651a3" opacity="1.00" d=" M 248.61 156.49 C 252.56 156.53 256.50 156.18 260.41 155.65 C 275.98 156.62 292.00 158.93 305.69 166.89 C 305.11 168.11 304.54 169.33 303.96 170.55 C 298.76 167.84 293.29 165.64 287.63 164.10 C 282.71 162.70 277.71 161.58 272.68 160.67 C 273.36 160.39 274.72 159.83 275.40 159.55 C 264.76 156.78 253.52 157.11 242.68 158.41 C 243.86 158.84 245.04 159.27 246.24 159.67 C 235.22 160.84 224.21 163.28 214.29 168.35 C 208.44 171.15 203.10 174.93 198.35 179.33 C 193.91 183.40 190.31 188.29 187.31 193.49 C 185.15 197.29 183.45 201.36 182.40 205.61 C 180.31 205.32 177.68 203.98 176.15 206.17 C 170.36 213.99 170.34 224.24 169.16 233.51 C 168.24 225.64 169.10 217.64 171.39 210.07 C 175.11 200.36 180.43 191.18 187.90 183.86 C 204.06 167.83 226.31 159.33 248.61 156.49 Z" />
</g>
<g id="#e7654cff">
<path fill="#e7654c" opacity="1.00" d=" M 144.14 169.49 C 147.39 164.71 152.14 161.29 156.29 157.37 C 161.78 158.59 167.44 158.20 172.98 158.95 C 179.98 159.80 187.00 160.47 193.99 161.35 C 199.22 162.06 204.72 161.70 209.60 164.02 C 203.56 167.13 197.77 170.75 192.44 174.97 C 180.57 171.50 168.02 172.28 155.91 170.18 C 152.02 169.26 147.99 170.48 144.14 169.49 Z" />
</g>
<g id="#233895ff">
<path fill="#233895" opacity="1.00" d=" M 242.68 158.41 C 253.52 157.11 264.76 156.78 275.40 159.55 C 274.72 159.83 273.36 160.39 272.68 160.67 C 263.93 159.40 255.06 159.07 246.24 159.67 C 245.04 159.27 243.86 158.84 242.68 158.41 Z" />
</g>
<g id="#afc1e8ff">
<path fill="#afc1e8" opacity="1.00" d=" M 246.24 159.67 C 255.06 159.07 263.93 159.40 272.68 160.67 C 277.71 161.58 282.71 162.70 287.63 164.10 C 284.17 165.09 280.56 165.37 276.97 165.30 C 259.02 165.98 241.11 167.51 223.17 168.56 C 220.22 168.93 217.21 169.00 214.29 168.35 C 224.21 163.28 235.22 160.84 246.24 159.67 Z" />
</g>
<g id="#9eb4e0ff">
<path fill="#9eb4e0" opacity="1.00" d=" M 287.63 164.10 C 293.29 165.64 298.76 167.84 303.96 170.55 C 305.60 171.41 307.21 172.34 308.82 173.26 C 301.96 174.76 294.89 174.24 287.95 175.16 C 272.25 175.05 256.64 177.17 240.94 177.28 C 236.63 177.40 232.36 178.18 228.04 178.21 C 218.12 178.11 208.28 179.85 198.35 179.33 C 203.10 174.93 208.44 171.15 214.29 168.35 C 217.21 169.00 220.22 168.93 223.17 168.56 C 241.11 167.51 259.02 165.98 276.97 165.30 C 280.56 165.37 284.17 165.09 287.63 164.10 Z" />
</g>
<g id="#ec856dff">
<path fill="#ec856d" opacity="1.00" d=" M 49.81 166.39 C 56.35 168.54 63.29 168.21 70.02 169.17 C 85.99 171.21 102.03 172.45 118.03 174.19 C 122.52 174.64 127.01 175.23 131.37 176.45 C 134.08 179.78 139.70 180.72 142.25 176.69 C 146.93 178.00 151.83 177.96 156.63 178.52 C 166.19 179.51 175.70 181.12 185.32 181.42 C 183.10 183.64 181.06 186.03 179.15 188.52 C 177.57 190.50 176.07 192.54 174.72 194.69 C 165.10 191.42 154.69 192.73 144.89 190.44 C 144.49 187.00 141.62 183.84 137.99 184.02 C 134.22 183.54 131.02 186.41 130.06 189.89 C 128.83 187.61 126.87 185.73 124.09 185.95 C 107.34 184.88 90.74 182.25 74.02 180.90 C 66.75 180.27 59.51 179.39 52.27 178.44 C 52.02 179.70 51.76 180.96 51.50 182.22 C 50.50 179.26 49.71 176.23 48.86 173.23 C 49.10 170.94 49.45 168.66 49.81 166.39 Z" />
</g>
<g id="#4e78b7ff">
<path fill="#4e78b7" opacity="1.00" d=" M 318.73 172.31 C 316.71 170.95 314.23 169.82 313.31 167.38 C 326.10 174.23 338.03 183.63 345.51 196.25 C 341.68 197.50 337.41 196.62 333.83 198.82 C 332.20 195.49 330.10 192.42 327.70 189.60 C 325.15 186.73 322.56 183.89 319.79 181.23 C 322.19 180.41 324.60 179.61 327.01 178.79 C 324.42 176.43 321.74 174.14 318.73 172.31 Z" />
<path fill="#4e78b7" opacity="1.00" d=" M 172.26 220.10 C 172.73 217.06 176.30 217.16 178.59 216.33 C 179.10 217.29 179.60 218.27 180.10 219.25 C 180.14 222.18 180.11 225.11 180.04 228.04 C 177.59 228.71 175.14 229.35 172.68 229.96 C 172.38 232.75 172.08 235.55 171.93 238.36 C 170.53 232.37 170.56 226.02 172.26 220.10 Z" />
</g>
<g id="#ea765eff">
<path fill="#ea765e" opacity="1.00" d=" M 142.25 176.69 C 142.92 174.30 143.44 171.87 144.14 169.49 C 147.99 170.48 152.02 169.26 155.91 170.18 C 168.02 172.28 180.57 171.50 192.44 174.97 C 189.96 176.99 187.59 179.16 185.32 181.42 C 175.70 181.12 166.19 179.51 156.63 178.52 C 151.83 177.96 146.93 178.00 142.25 176.69 Z" />
</g>
<g id="#8aa5d7ff">
<path fill="#8aa5d7" opacity="1.00" d=" M 308.82 173.26 C 312.74 175.51 316.47 178.14 319.79 181.23 C 322.56 183.89 325.15 186.73 327.70 189.60 C 323.60 192.28 318.66 191.41 314.06 191.51 C 301.26 192.10 288.44 191.65 275.66 192.54 C 272.81 192.97 270.27 191.57 267.87 190.26 C 264.28 188.76 260.30 189.24 257.16 191.53 C 253.84 192.67 250.28 192.52 246.82 192.52 C 239.88 192.42 232.94 192.58 226.01 193.09 C 215.01 193.54 203.97 192.93 193.00 193.89 C 191.09 193.99 189.20 193.74 187.31 193.49 C 190.31 188.29 193.91 183.40 198.35 179.33 C 208.28 179.85 218.12 178.11 228.04 178.21 C 232.36 178.18 236.63 177.40 240.94 177.28 C 256.64 177.17 272.25 175.05 287.95 175.16 C 294.89 174.24 301.96 174.76 308.82 173.26 Z" />
</g>
<g id="#ef967eff">
<path fill="#ef967e" opacity="1.00" d=" M 52.27 178.44 C 59.51 179.39 66.75 180.27 74.02 180.90 C 90.74 182.25 107.34 184.88 124.09 185.95 C 126.87 185.73 128.83 187.61 130.06 189.89 C 130.19 191.43 130.31 192.97 130.42 194.52 C 119.47 194.36 108.65 192.44 97.76 191.48 C 83.61 189.91 69.34 189.10 55.34 186.47 C 55.49 188.05 55.64 189.64 55.84 191.22 C 54.18 188.33 52.63 185.36 51.50 182.22 C 51.76 180.96 52.02 179.70 52.27 178.44 Z" />
</g>
<g id="#632190ff">
<path fill="#632190" opacity="1.00" d=" M 44.53 179.58 C 45.34 181.46 46.27 183.29 47.14 185.15 C 47.31 185.54 47.64 186.33 47.81 186.72 C 48.71 189.85 50.14 192.80 52.35 195.21 C 57.54 202.90 64.07 209.63 71.63 215.01 C 71.68 217.21 71.73 219.41 71.71 221.61 C 68.12 221.78 65.75 218.79 63.34 216.62 C 53.52 207.36 46.26 195.25 43.61 181.97 C 43.84 181.37 44.30 180.17 44.53 179.58 Z" />
</g>
<g id="#f2a790ff">
<path fill="#f2a790" opacity="1.00" d=" M 55.34 186.47 C 69.34 189.10 83.61 189.91 97.76 191.48 C 108.65 192.44 119.47 194.36 130.42 194.52 C 132.27 196.34 134.24 198.46 137.03 198.56 C 140.04 198.91 142.58 196.93 144.27 194.65 C 146.73 196.07 149.54 196.63 152.35 196.84 C 159.06 197.40 165.77 198.01 172.48 198.62 C 170.32 202.72 168.62 207.06 167.34 211.52 C 166.95 210.79 166.57 210.06 166.19 209.33 C 138.79 206.71 111.40 203.82 84.02 200.98 C 78.31 200.48 72.64 199.39 66.90 199.26 C 65.32 199.04 64.14 200.20 62.89 200.95 C 60.14 198.02 57.79 194.73 55.84 191.22 C 55.64 189.64 55.49 188.05 55.34 186.47 Z" />
</g>
<g id="#6a1f57ff">
<path fill="#6a1f57" opacity="1.00" d=" M 47.81 186.72 C 49.48 189.46 51.00 192.29 52.35 195.21 C 50.14 192.80 48.71 189.85 47.81 186.72 Z" />
</g>
<g id="#739ecfff">
<path fill="#739ecf" opacity="1.00" d=" M 327.70 189.60 C 330.10 192.42 332.20 195.49 333.83 198.82 C 335.23 201.75 336.50 204.75 337.57 207.82 C 338.60 211.00 339.54 214.20 340.35 217.44 C 340.04 219.41 339.55 221.35 339.05 223.28 C 335.82 223.23 332.61 223.53 329.46 224.20 C 317.18 221.35 304.69 218.69 292.02 218.77 C 285.19 218.67 278.40 217.85 271.57 217.72 C 271.24 214.89 270.67 212.09 269.91 209.34 C 270.21 202.96 271.44 196.02 267.87 190.26 C 270.27 191.57 272.81 192.97 275.66 192.54 C 288.44 191.65 301.26 192.10 314.06 191.51 C 318.66 191.41 323.60 192.28 327.70 189.60 Z" />
</g>
<g id="#ef9880ff">
<path fill="#ef9880" opacity="1.00" d=" M 144.89 190.44 C 154.69 192.73 165.10 191.42 174.72 194.69 C 173.95 195.98 173.19 197.29 172.48 198.62 C 165.77 198.01 159.06 197.40 152.35 196.84 C 149.54 196.63 146.73 196.07 144.27 194.65 C 144.52 193.25 144.73 191.85 144.89 190.44 Z" />
</g>
<g id="#7396ccff">
<path fill="#7396cc" opacity="1.00" d=" M 246.82 192.52 C 250.28 192.52 253.84 192.67 257.16 191.53 C 256.35 193.26 255.55 195.07 255.54 197.03 C 255.33 204.27 256.32 211.48 256.69 218.70 C 248.07 218.47 239.50 219.58 230.95 220.52 C 227.03 220.91 223.10 221.97 219.15 221.46 C 215.63 220.59 212.42 218.56 208.73 218.39 C 200.78 217.80 192.84 217.25 184.92 216.38 C 183.23 215.88 182.30 217.48 181.20 218.42 C 181.08 216.87 180.95 215.33 180.87 213.78 C 181.24 211.03 181.78 208.31 182.40 205.61 C 183.45 201.36 185.15 197.29 187.31 193.49 C 189.20 193.74 191.09 193.99 193.00 193.89 C 203.97 192.93 215.01 193.54 226.01 193.09 C 232.94 192.58 239.88 192.42 246.82 192.52 Z" />
</g>
<g id="#5a8ac0ff">
<path fill="#5a8ac0" opacity="1.00" d=" M 333.83 198.82 C 337.41 196.62 341.68 197.50 345.51 196.25 C 347.41 199.55 349.10 202.98 350.33 206.59 C 349.92 207.09 349.10 208.09 348.69 208.58 C 347.76 207.35 346.83 206.13 345.91 204.89 C 343.01 205.49 340.20 206.47 337.57 207.82 C 336.50 204.75 335.23 201.75 333.83 198.82 Z" />
</g>
<g id="#f5bca5ff">
<path fill="#f5bca5" opacity="1.00" d=" M 62.89 200.95 C 64.14 200.20 65.32 199.04 66.90 199.26 C 72.64 199.39 78.31 200.48 84.02 200.98 C 111.40 203.82 138.79 206.71 166.19 209.33 C 166.57 210.06 166.95 210.79 167.34 211.52 C 166.21 215.51 165.59 219.64 165.43 223.79 C 165.10 223.81 164.45 223.84 164.12 223.86 C 161.01 219.21 154.76 220.56 149.99 219.73 C 130.38 217.61 110.76 215.54 91.12 213.59 C 86.12 212.66 81.05 212.70 75.99 212.71 C 71.28 209.18 66.94 205.20 62.89 200.95 Z" />
</g>
<g id="#4569afff">
<path fill="#4569af" opacity="1.00" d=" M 176.15 206.17 C 177.68 203.98 180.31 205.32 182.40 205.61 C 181.78 208.31 181.24 211.03 180.87 213.78 C 180.58 215.60 180.30 217.42 180.10 219.25 C 179.60 218.27 179.10 217.29 178.59 216.33 C 176.30 217.16 172.73 217.06 172.26 220.10 C 170.56 226.02 170.53 232.37 171.93 238.36 C 172.94 243.44 174.69 248.38 177.17 252.93 C 178.15 254.67 179.18 256.39 180.28 258.05 C 182.57 261.43 185.14 264.62 187.82 267.70 C 186.15 266.99 184.46 266.19 183.32 264.73 C 175.78 255.97 170.22 245.13 169.16 233.51 C 170.34 224.24 170.36 213.99 176.15 206.17 Z" />
</g>
<g id="#6297c7ff">
<path fill="#6297c7" opacity="1.00" d=" M 337.57 207.82 C 340.20 206.47 343.01 205.49 345.91 204.89 C 346.83 206.13 347.76 207.35 348.69 208.58 C 349.10 208.09 349.92 207.09 350.33 206.59 C 351.37 209.90 352.36 213.22 353.19 216.58 C 353.37 223.16 353.83 229.85 352.27 236.31 C 352.19 229.25 352.28 221.88 349.06 215.40 C 346.15 216.10 343.25 216.77 340.35 217.44 C 339.54 214.20 338.60 211.00 337.57 207.82 Z" />
</g>
<g id="#5b8cc4ff">
<path fill="#5b8cc4" opacity="1.00" d=" M 170.38 245.66 C 166.25 233.77 166.48 220.46 170.78 208.65 L 171.39 210.07 C 169.10 217.64 168.24 225.64 169.16 233.51 C 170.22 245.13 175.78 255.97 183.32 264.73 C 184.46 266.19 186.15 266.99 187.82 267.70 C 190.19 269.39 192.39 271.32 194.65 273.15 C 203.53 280.05 213.27 286.22 224.16 289.36 C 228.06 290.86 232.10 291.99 236.19 292.84 C 252.44 296.50 269.49 296.64 285.77 293.08 C 290.52 291.85 295.28 290.62 300.13 289.81 C 301.14 290.43 302.15 291.06 303.16 291.70 C 303.67 292.03 304.69 292.69 305.20 293.02 C 302.56 292.52 299.85 292.16 297.16 292.39 C 294.61 292.58 292.68 294.45 290.60 295.72 C 258.13 304.14 221.26 299.02 194.09 278.69 C 191.61 275.28 188.38 272.58 185.37 269.67 C 178.84 262.79 173.35 254.73 170.38 245.66 Z" />
</g>
<g id="#649cc9ff">
<path fill="#649cc9" opacity="1.00" d=" M 269.91 209.34 C 270.67 212.09 271.24 214.89 271.57 217.72 C 278.40 217.85 285.19 218.67 292.02 218.77 C 304.69 218.69 317.18 221.35 329.46 224.20 C 320.92 226.88 312.10 228.46 303.40 230.48 C 294.35 232.36 285.43 234.80 276.33 236.42 C 272.22 237.06 268.51 238.99 264.60 240.29 C 266.36 238.12 267.54 235.53 267.70 232.73 C 268.37 224.92 269.01 217.12 269.91 209.34 Z" />
</g>
<g id="#571c7eff">
<path fill="#571c7e" opacity="1.00" d=" M 355.09 210.58 C 357.81 218.56 357.92 227.32 356.72 235.60 C 355.59 240.32 354.43 245.07 352.58 249.58 C 349.15 257.22 346.57 265.52 340.66 271.72 C 338.55 274.32 334.85 276.13 334.80 279.91 C 335.35 283.45 336.80 286.75 338.03 290.08 C 335.67 287.38 334.53 283.89 333.69 280.47 C 333.56 278.27 333.53 276.07 333.48 273.88 C 343.78 264.17 352.18 251.97 355.11 237.95 C 356.66 231.21 356.83 224.20 355.81 217.37 C 355.66 215.10 355.41 212.83 355.09 210.58 Z" />
</g>
<g id="#f8d2bbff">
<path fill="#f8d2bb" opacity="1.00" d=" M 75.99 212.71 C 81.05 212.70 86.12 212.66 91.12 213.59 C 110.76 215.54 130.38 217.61 149.99 219.73 C 154.76 220.56 161.01 219.21 164.12 223.86 C 147.74 228.75 130.17 229.86 113.35 226.66 C 110.51 226.21 107.21 225.43 104.88 227.65 C 96.04 225.84 87.00 225.14 78.03 224.27 C 76.58 226.81 75.29 229.43 74.00 232.05 C 72.39 234.30 70.31 236.12 68.09 237.74 L 69.05 236.04 C 71.76 232.79 74.67 229.35 75.24 225.00 C 75.77 220.94 76.60 216.81 75.99 212.71 Z" />
</g>
<g id="#5e90c4ff">
<path fill="#5e90c4" opacity="1.00" d=" M 180.10 219.25 C 180.30 217.42 180.58 215.60 180.87 213.78 C 180.95 215.33 181.08 216.87 181.20 218.42 C 182.30 217.48 183.23 215.88 184.92 216.38 C 192.84 217.25 200.78 217.80 208.73 218.39 C 212.42 218.56 215.63 220.59 219.15 221.46 C 223.10 221.97 227.03 220.91 230.95 220.52 C 239.50 219.58 248.07 218.47 256.69 218.70 C 256.98 223.41 257.46 228.11 257.49 232.83 C 257.33 233.41 257.01 234.59 256.85 235.18 C 250.83 234.79 245.12 236.90 239.34 238.23 C 228.90 240.38 218.54 242.85 208.13 245.09 C 197.88 247.98 187.05 248.76 177.17 252.93 C 174.69 248.38 172.94 243.44 171.93 238.36 C 172.08 235.55 172.38 232.75 172.68 229.96 C 175.14 229.35 177.59 228.71 180.04 228.04 C 180.11 225.11 180.14 222.18 180.10 219.25 Z" />
</g>
<g id="#6faed2ff">
<path fill="#6faed2" opacity="1.00" d=" M 340.35 217.44 C 343.25 216.77 346.15 216.10 349.06 215.40 C 352.28 221.88 352.19 229.25 352.27 236.31 C 349.64 250.68 340.86 262.94 330.45 272.80 C 330.53 273.66 330.69 275.38 330.78 276.24 C 331.09 279.44 331.50 282.64 332.08 285.82 L 331.37 285.29 C 330.23 281.00 329.10 276.59 329.36 272.12 C 330.46 269.49 332.89 267.75 334.77 265.71 C 338.27 262.36 340.87 258.24 343.38 254.13 C 346.79 248.75 349.03 242.56 348.93 236.13 C 340.19 238.62 331.21 240.05 322.41 242.29 C 305.75 246.01 289.14 249.98 272.40 253.33 C 272.12 255.20 271.85 257.08 271.58 258.95 C 271.15 257.29 270.75 255.62 270.26 253.98 C 268.55 249.75 262.95 247.07 258.93 249.90 C 255.76 251.63 255.16 255.41 255.57 258.69 C 249.89 257.52 244.52 260.16 239.01 261.05 C 231.06 262.41 223.36 264.91 215.42 266.37 C 208.31 267.62 201.45 270.13 194.23 270.78 C 194.37 271.56 194.51 272.36 194.65 273.15 C 192.39 271.32 190.19 269.39 187.82 267.70 C 185.14 264.62 182.57 261.43 180.28 258.05 C 186.47 256.02 192.82 254.59 199.20 253.39 C 213.95 250.18 228.59 246.51 243.38 243.50 C 249.21 242.11 255.04 240.31 261.09 240.33 C 262.26 240.34 263.43 240.33 264.60 240.29 C 268.51 238.99 272.22 237.06 276.33 236.42 C 285.43 234.80 294.35 232.36 303.40 230.48 C 312.10 228.46 320.92 226.88 329.46 224.20 C 332.61 223.53 335.82 223.23 339.05 223.28 C 339.55 221.35 340.04 219.41 340.35 217.44 Z" />
</g>
<g id="#4366b2ff">
<path fill="#4366b2" opacity="1.00" d=" M 353.19 216.58 C 354.62 221.62 354.26 226.89 354.49 232.06 C 354.66 227.14 354.51 222.16 355.81 217.37 C 356.83 224.20 356.66 231.21 355.11 237.95 C 352.18 251.97 343.78 264.17 333.48 273.88 C 333.53 276.07 333.56 278.27 333.69 280.47 C 333.09 278.06 332.76 275.60 332.49 273.15 C 331.92 274.18 331.34 275.20 330.78 276.24 C 330.69 275.38 330.53 273.66 330.45 272.80 C 340.86 262.94 349.64 250.68 352.27 236.31 C 353.83 229.85 353.37 223.16 353.19 216.58 Z" />
</g>
<g id="#fce5ceff">
<path fill="#fce5ce" opacity="1.00" d=" M 78.03 224.27 C 87.00 225.14 96.04 225.84 104.88 227.65 C 103.18 229.08 101.53 230.60 99.72 231.90 C 92.59 230.95 85.41 230.34 78.26 229.68 C 76.44 229.39 75.21 230.98 74.00 232.05 C 75.29 229.43 76.58 226.81 78.03 224.27 Z" />
</g>
<g id="#dfab94ff">
<path fill="#dfab94" opacity="1.00" d=" M 164.12 223.86 C 164.45 223.84 165.10 223.81 165.43 223.79 L 165.39 224.73 C 160.28 227.24 154.61 228.16 149.03 228.98 C 137.06 230.36 124.83 230.57 112.98 228.10 C 111.18 227.82 109.31 227.31 107.50 227.74 C 104.24 229.69 101.73 232.66 98.44 234.58 C 89.33 240.08 78.54 242.36 67.98 242.49 C 65.34 242.72 62.99 241.46 60.92 239.97 C 62.88 238.96 64.73 237.76 66.58 236.56 L 69.05 236.04 L 68.09 237.74 C 67.13 238.63 66.16 239.50 65.19 240.39 C 77.20 241.35 89.63 238.58 99.72 231.90 C 101.53 230.60 103.18 229.08 104.88 227.65 C 107.21 225.43 110.51 226.21 113.35 226.66 C 130.17 229.86 147.74 228.75 164.12 223.86 Z" />
</g>
<g id="#c1705aff">
<path fill="#c1705a" opacity="1.00" d=" M 149.03 228.98 C 154.61 228.16 160.28 227.24 165.39 224.73 C 165.40 225.32 165.41 226.49 165.42 227.08 C 156.80 230.76 147.28 231.31 138.05 231.97 C 131.97 232.70 125.90 231.68 119.83 231.37 C 115.87 231.16 112.09 229.60 108.12 229.66 C 104.30 231.98 101.25 235.45 97.17 237.42 C 86.74 242.83 74.68 245.17 62.98 244.30 C 60.39 244.38 58.45 242.62 56.72 240.93 C 57.16 240.82 58.04 240.59 58.48 240.48 C 59.09 240.35 60.31 240.10 60.92 239.97 C 62.99 241.46 65.34 242.72 67.98 242.49 C 78.54 242.36 89.33 240.08 98.44 234.58 C 101.73 232.66 104.24 229.69 107.50 227.74 C 109.31 227.31 111.18 227.82 112.98 228.10 C 124.83 230.57 137.06 230.36 149.03 228.98 Z" />
</g>
<g id="#fef4ddff">
<path fill="#fef4dd" opacity="1.00" d=" M 74.00 232.05 C 75.21 230.98 76.44 229.39 78.26 229.68 C 85.41 230.34 92.59 230.95 99.72 231.90 C 89.63 238.58 77.20 241.35 65.19 240.39 C 66.16 239.50 67.13 238.63 68.09 237.74 C 70.31 236.12 72.39 234.30 74.00 232.05 Z" />
</g>
<g id="#67a0cbff">
<path fill="#67a0cb" opacity="1.00" d=" M 257.49 232.83 C 258.01 235.59 258.80 238.48 261.09 240.33 C 255.04 240.31 249.21 242.11 243.38 243.50 C 228.59 246.51 213.95 250.18 199.20 253.39 C 192.82 254.59 186.47 256.02 180.28 258.05 C 179.18 256.39 178.15 254.67 177.17 252.93 C 187.05 248.76 197.88 247.98 208.13 245.09 C 218.54 242.85 228.90 240.38 239.34 238.23 C 245.12 236.90 250.83 234.79 256.85 235.18 C 257.01 234.59 257.33 233.41 257.49 232.83 Z" />
</g>
<g id="#60208bff">
<path fill="#60208b" opacity="1.00" d=" M 157.03 235.08 C 160.15 234.20 163.35 234.79 166.39 235.68 C 167.91 246.01 172.62 255.57 178.65 263.99 C 178.82 265.47 178.58 267.17 179.62 268.41 C 190.18 282.05 204.91 292.13 221.13 297.86 C 242.25 305.06 265.44 306.46 287.15 301.07 C 292.69 299.62 298.42 300.60 304.02 301.11 C 310.31 301.48 315.61 305.50 321.85 306.19 C 327.71 306.93 334.06 308.60 339.68 305.94 C 342.31 304.73 345.02 303.70 347.80 302.92 C 349.09 304.03 350.99 304.96 350.55 307.02 C 347.75 310.37 343.08 310.90 339.01 311.38 C 332.09 311.67 325.00 311.90 318.31 309.78 C 312.07 307.86 305.45 307.30 299.46 304.60 C 297.35 303.63 295.01 302.95 292.72 303.73 C 283.98 306.12 275.00 307.71 265.97 308.41 C 237.75 309.34 208.11 301.52 186.93 282.12 C 177.21 273.20 169.42 261.76 166.11 248.88 C 164.98 245.21 165.30 240.66 161.72 238.28 C 152.30 240.42 142.67 241.89 132.98 241.49 C 125.94 241.92 119.05 240.23 112.11 239.49 C 105.75 242.79 99.17 245.68 92.64 248.65 C 85.09 251.45 77.06 252.83 69.06 253.35 C 64.95 252.95 59.84 252.36 58.08 247.96 C 59.48 247.26 60.86 246.52 62.30 245.92 C 67.25 246.29 71.91 249.14 76.95 248.08 C 84.01 246.89 91.16 245.14 97.31 241.32 C 102.80 237.66 109.50 235.55 116.11 235.81 C 129.63 238.27 143.59 237.94 157.03 235.08 Z" />
</g>
<g id="#7cc2dcff">
<path fill="#7cc2dc" opacity="1.00" d=" M 322.41 242.29 C 331.21 240.05 340.19 238.62 348.93 236.13 C 349.03 242.56 346.79 248.75 343.38 254.13 C 343.24 253.49 342.96 252.20 342.81 251.55 C 323.65 257.34 303.78 260.35 284.41 265.35 C 274.82 267.15 265.44 269.86 255.87 271.75 C 240.47 274.80 225.33 279.04 209.82 281.54 C 214.34 284.64 219.76 286.06 224.16 289.36 C 213.27 286.22 203.53 280.05 194.65 273.15 C 194.51 272.36 194.37 271.56 194.23 270.78 C 201.45 270.13 208.31 267.62 215.42 266.37 C 223.36 264.91 231.06 262.41 239.01 261.05 C 244.52 260.16 249.89 257.52 255.57 258.69 C 257.46 262.34 261.93 264.80 265.90 262.86 C 269.46 261.50 270.77 257.50 270.26 253.98 C 270.75 255.62 271.15 257.29 271.58 258.95 C 271.85 257.08 272.12 255.20 272.40 253.33 C 289.14 249.98 305.75 246.01 322.41 242.29 Z" />
</g>
<g id="#6c249dff">
<path fill="#6c249d" opacity="1.00" d=" M 352.58 249.58 C 354.43 245.07 355.59 240.32 356.72 235.60 C 357.64 237.56 358.10 239.72 357.69 241.89 C 355.47 256.76 347.52 270.41 336.75 280.74 C 336.26 280.53 335.29 280.12 334.80 279.91 C 334.85 276.13 338.55 274.32 340.66 271.72 C 346.57 265.52 349.15 257.22 352.58 249.58 Z" />
</g>
<g id="#87d3e6ff">
<path fill="#87d3e6" opacity="1.00" d=" M 284.41 265.35 C 303.78 260.35 323.65 257.34 342.81 251.55 C 342.96 252.20 343.24 253.49 343.38 254.13 C 340.87 258.24 338.27 262.36 334.77 265.71 C 332.89 267.75 330.46 269.49 329.36 272.12 C 329.10 276.59 330.23 281.00 331.37 285.29 C 330.98 285.16 330.21 284.90 329.82 284.77 C 328.99 280.17 328.27 275.54 327.06 271.02 C 312.96 273.66 299.13 277.52 285.02 280.15 C 268.87 283.40 252.93 287.78 236.64 290.29 C 236.53 290.93 236.30 292.20 236.19 292.84 C 232.10 291.99 228.06 290.86 224.16 289.36 C 219.76 286.06 214.34 284.64 209.82 281.54 C 225.33 279.04 240.47 274.80 255.87 271.75 C 265.44 269.86 274.82 267.15 284.41 265.35 Z" />
</g>
<g id="#431661ff">
<path fill="#431661" opacity="1.00" d=" M 178.65 263.99 C 183.18 269.47 188.06 274.82 194.09 278.69 C 221.26 299.02 258.13 304.14 290.60 295.72 C 293.45 295.01 296.29 294.26 299.09 293.38 C 313.89 304.18 333.67 306.15 351.08 301.61 C 351.24 300.51 351.42 299.41 351.51 298.30 C 351.99 298.14 352.94 297.82 353.41 297.66 C 353.20 298.99 353.01 300.32 352.81 301.66 C 351.13 302.03 349.46 302.44 347.80 302.92 C 345.02 303.70 342.31 304.73 339.68 305.94 C 334.06 308.60 327.71 306.93 321.85 306.19 C 315.61 305.50 310.31 301.48 304.02 301.11 C 298.42 300.60 292.69 299.62 287.15 301.07 C 265.44 306.46 242.25 305.06 221.13 297.86 C 204.91 292.13 190.18 282.05 179.62 268.41 C 178.58 267.17 178.82 265.47 178.65 263.99 Z" />
</g>
<g id="#92e5efff">
<path fill="#92e5ef" opacity="1.00" d=" M 285.02 280.15 C 299.13 277.52 312.96 273.66 327.06 271.02 C 328.27 275.54 328.99 280.17 329.82 284.77 C 320.94 285.54 312.47 288.96 303.54 289.55 C 303.44 290.09 303.25 291.17 303.16 291.70 C 302.15 291.06 301.14 290.43 300.13 289.81 C 295.28 290.62 290.52 291.85 285.77 293.08 C 269.49 296.64 252.44 296.50 236.19 292.84 C 236.30 292.20 236.53 290.93 236.64 290.29 C 252.93 287.78 268.87 283.40 285.02 280.15 Z" />
</g>
<g id="#5380bfff">
<path fill="#5380bf" opacity="1.00" d=" M 330.78 276.24 C 331.34 275.20 331.92 274.18 332.49 273.15 C 332.76 275.60 333.09 278.06 333.69 280.47 C 334.53 283.89 335.67 287.38 338.03 290.08 C 341.77 293.79 346.55 296.31 351.56 297.86 L 351.51 298.30 C 351.42 299.41 351.24 300.51 351.08 301.61 C 333.67 306.15 313.89 304.18 299.09 293.38 C 296.29 294.26 293.45 295.01 290.60 295.72 C 292.68 294.45 294.61 292.58 297.16 292.39 C 299.85 292.16 302.56 292.52 305.20 293.02 C 317.27 300.42 332.36 301.83 346.01 298.80 C 340.64 295.48 333.97 292.41 332.08 285.82 C 331.50 282.64 331.09 279.44 330.78 276.24 Z" />
</g>
<g id="#9df8f8ff">
<path fill="#9df8f8" opacity="1.00" d=" M 303.54 289.55 C 312.47 288.96 320.94 285.54 329.82 284.77 C 330.21 284.90 330.98 285.16 331.37 285.29 L 332.08 285.82 C 333.97 292.41 340.64 295.48 346.01 298.80 C 332.36 301.83 317.27 300.42 305.20 293.02 C 304.69 292.69 303.67 292.03 303.16 291.70 C 303.25 291.17 303.44 290.09 303.54 289.55 Z" />
</g>
</svg>
