<?xml version="1.0" encoding="UTF-8" ?>
<!DOCTYPE svg PUBLIC "-//W3C//DTD SVG 1.1//EN" "http://www.w3.org/Graphics/SVG/1.1/DTD/svg11.dtd">
<svg width="280pt" height="280pt" viewBox="0 0 280 280" version="1.1" xmlns="http://www.w3.org/2000/svg">
<g id="#000000ff">
<path fill="#000000" opacity="1.00" d=" M 134.29 0.00 L 145.64 0.00 C 176.36 1.41 206.62 12.89 230.09 32.85 C 260.04 57.65 278.34 95.50 280.00 134.28 L 280.00 145.70 C 278.59 175.73 267.61 205.30 248.45 228.53 C 228.79 252.83 200.65 270.06 170.11 276.73 C 162.09 278.56 153.89 279.41 145.70 280.00 L 135.29 280.00 C 104.24 278.86 73.61 267.29 49.91 247.14 C 19.94 222.33 1.63 184.45 0.00 145.64 L 0.00 134.29 C 0.80 116.90 5.00 99.83 11.56 83.74 C 11.94 84.10 12.71 84.81 13.09 85.17 C 13.30 85.49 13.71 86.13 13.92 86.45 L 15.19 85.50 L 15.49 86.64 C 14.23 86.71 12.98 86.94 11.80 87.42 C 14.00 88.03 16.89 87.48 18.40 89.58 C 20.02 91.32 20.34 93.74 20.26 96.02 C 20.24 120.58 20.30 145.15 20.37 169.71 C 22.10 169.73 23.88 170.02 25.58 169.55 C 26.66 168.62 27.47 167.44 28.31 166.32 C 39.27 151.03 50.90 136.24 61.83 120.93 C 64.85 117.27 67.23 113.09 70.66 109.79 C 70.83 113.90 71.50 118.10 70.44 122.14 C 69.22 126.46 70.66 130.99 69.51 135.31 C 68.86 137.86 68.83 140.49 68.93 143.10 C 69.18 146.77 67.60 150.28 67.89 153.95 C 67.99 156.83 68.62 159.79 67.65 162.61 C 66.89 164.96 66.56 167.43 67.07 169.89 C 69.20 169.76 71.83 170.27 73.23 168.22 C 83.03 156.02 93.02 143.96 102.83 131.77 C 108.79 124.89 114.03 117.40 120.27 110.76 C 120.24 110.57 120.18 110.18 120.15 109.99 L 119.91 108.74 C 125.25 102.23 130.46 95.47 137.01 90.11 C 139.78 87.69 143.39 86.81 146.94 86.26 C 147.29 85.98 147.99 85.42 148.34 85.14 L 148.78 84.81 C 148.20 83.40 147.63 81.98 147.04 80.58 C 147.40 79.33 147.77 78.08 148.18 76.84 C 150.98 75.61 151.33 72.25 152.89 69.95 C 155.72 65.00 161.39 62.97 166.57 61.47 C 167.33 59.50 167.76 57.42 167.81 55.31 C 150.67 55.25 133.54 55.40 116.40 55.24 C 115.55 57.29 114.44 59.41 114.95 61.70 C 118.38 61.97 121.14 63.89 122.94 66.74 L 123.53 65.74 C 123.71 66.15 124.07 66.96 124.25 67.36 C 122.01 72.57 124.02 78.44 123.03 83.90 C 121.43 84.08 119.83 84.27 118.23 84.45 C 118.28 85.45 118.32 86.45 118.36 87.45 C 119.61 87.65 120.86 87.85 122.10 88.05 C 122.29 91.71 122.54 95.41 122.04 99.05 C 118.94 104.69 114.29 109.27 110.59 114.50 C 101.94 124.85 93.77 135.59 85.04 145.87 C 84.50 145.67 83.40 145.26 82.85 145.05 C 84.30 131.05 85.62 117.03 86.96 103.02 C 87.32 99.67 87.59 96.18 89.34 93.20 L 90.48 93.47 C 93.04 91.67 94.90 88.68 98.10 87.92 C 100.27 87.66 102.47 87.81 104.65 87.54 C 106.01 87.00 105.69 85.41 105.91 84.26 C 92.02 84.12 78.12 84.22 64.22 84.26 C 64.24 85.35 64.27 86.43 64.29 87.52 C 66.85 87.87 70.47 87.24 71.72 90.15 C 72.00 92.68 71.48 95.44 73.05 97.65 C 72.44 99.25 71.68 100.78 70.81 102.25 C 70.26 102.56 69.18 103.18 68.63 103.49 C 58.20 117.71 47.91 132.05 37.26 146.12 C 37.05 129.57 37.61 113.00 36.98 96.47 C 35.09 97.54 36.05 100.19 35.73 101.97 C 35.94 118.07 35.47 134.17 36.09 150.25 C 35.34 148.27 35.73 146.10 35.66 144.04 C 35.69 128.68 35.60 113.31 35.61 97.95 C 35.56 94.24 37.29 90.55 40.38 88.43 C 43.36 86.04 47.41 86.44 50.97 86.48 C 49.20 87.74 46.89 87.31 44.85 87.67 C 46.95 87.68 49.05 87.50 51.13 87.17 C 51.23 86.33 51.32 85.49 51.42 84.66 C 39.04 85.06 26.66 84.60 14.28 84.85 C 13.59 84.12 12.91 83.38 12.23 82.64 C 21.04 63.36 34.02 45.90 50.43 32.42 C 73.80 12.73 103.81 1.43 134.29 0.00 M 194.48 55.35 C 193.36 57.14 191.86 59.61 193.40 61.59 C 195.57 62.62 198.14 63.45 199.18 65.85 C 201.40 69.10 199.01 72.84 198.53 76.28 C 198.16 78.56 195.12 81.49 197.13 83.45 C 193.96 90.30 190.22 96.86 186.38 103.35 C 175.27 121.90 164.13 140.42 153.01 158.96 C 149.10 160.10 148.33 165.09 146.05 168.04 C 145.63 169.33 143.17 171.29 145.03 172.30 C 144.78 172.72 144.27 173.57 144.02 173.99 C 141.08 174.27 140.32 177.75 140.29 180.18 C 139.26 181.76 138.32 183.39 137.55 185.11 C 137.20 185.33 136.51 185.76 136.17 185.98 C 137.52 171.34 138.82 156.69 140.07 142.04 C 140.79 138.72 141.59 135.35 141.06 131.94 C 142.17 117.16 143.45 102.39 145.31 87.70 C 135.88 89.65 130.53 98.55 124.38 105.11 L 124.42 105.21 C 124.01 105.69 123.19 106.66 122.78 107.14 C 121.58 114.37 121.65 121.77 120.77 129.05 C 119.31 149.30 117.50 169.53 116.06 189.79 C 112.87 193.08 114.65 197.95 113.96 201.97 C 112.30 207.79 113.86 213.86 112.21 219.68 C 115.35 219.69 118.50 219.91 121.63 219.61 C 123.71 217.24 124.93 214.27 126.66 211.66 C 132.32 202.06 138.42 192.73 143.82 183.00 L 142.64 182.76 C 143.71 181.08 144.73 179.38 145.74 177.67 C 148.75 180.94 146.26 185.54 147.74 189.32 C 148.93 193.92 151.48 197.95 154.40 201.63 C 161.82 209.51 172.59 212.98 183.03 214.59 C 186.13 214.60 188.85 216.61 192.00 216.16 C 199.67 215.53 207.36 216.52 215.02 215.95 C 214.68 214.19 212.26 214.96 211.00 214.78 C 203.28 215.36 195.36 215.63 187.75 214.11 C 197.02 215.02 206.41 215.16 215.66 213.98 C 218.08 216.10 221.30 214.53 224.01 213.97 C 234.49 211.40 245.49 207.12 251.91 197.95 C 253.41 194.51 253.19 190.62 253.72 186.97 C 251.90 188.77 250.60 190.97 249.15 193.05 C 247.87 194.94 245.92 196.58 245.97 199.07 C 244.71 200.26 243.25 201.24 242.12 202.57 C 237.18 205.95 231.36 207.53 225.86 209.55 L 225.83 209.55 C 212.79 211.38 198.98 212.16 186.48 207.19 C 183.70 205.39 180.66 203.96 178.17 201.71 C 174.51 197.97 171.76 193.31 170.85 188.12 L 171.64 187.59 C 172.07 182.73 171.05 177.70 172.74 172.99 C 178.85 146.87 205.58 128.37 232.01 129.75 C 234.12 130.32 236.76 132.56 238.36 129.86 C 245.01 131.41 251.08 135.40 255.12 140.90 C 258.34 145.34 259.03 150.94 260.96 155.95 C 261.47 155.94 262.50 155.93 263.01 155.92 C 265.15 146.91 267.13 137.85 269.09 128.80 L 268.31 128.84 C 265.61 128.35 264.03 132.13 261.07 131.83 C 254.26 131.28 247.83 128.40 240.97 128.13 C 236.44 126.98 231.62 127.00 226.94 126.86 C 210.16 127.22 193.14 130.43 178.12 138.18 C 175.73 139.20 173.51 140.57 171.36 142.01 C 170.92 141.66 170.05 140.96 169.61 140.61 C 176.68 129.62 183.29 118.33 190.08 107.16 C 198.86 93.50 206.65 78.78 218.73 67.65 C 221.86 64.73 225.78 62.91 229.81 61.59 C 229.78 60.94 229.74 59.65 229.71 59.01 C 229.96 58.47 230.45 57.41 230.69 56.88 L 231.61 57.73 C 231.65 57.13 231.73 55.91 231.77 55.31 C 219.34 55.36 206.91 55.26 194.48 55.35 M 138.12 179.23 C 136.21 181.16 140.52 181.06 138.93 179.16 L 138.12 179.23 Z" />
</g>
<g id="#0d0202df">
<path fill="#0d0202" opacity="0.87" d=" M 116.40 55.24 C 133.54 55.40 150.67 55.25 167.81 55.31 C 167.76 57.42 167.33 59.50 166.57 61.47 C 161.39 62.97 155.72 65.00 152.89 69.95 C 151.33 72.25 150.98 75.61 148.18 76.84 C 149.60 72.28 151.98 67.84 155.73 64.78 C 158.54 62.46 162.08 61.40 165.49 60.31 C 165.99 58.93 166.49 57.54 166.99 56.16 C 166.56 56.19 165.72 56.24 165.30 56.27 C 149.87 55.94 134.44 56.30 119.01 56.07 C 117.74 56.07 117.00 56.78 116.78 58.21 L 116.45 58.99 L 116.38 60.16 C 119.17 61.36 122.80 62.31 123.53 65.74 L 122.94 66.74 C 121.14 63.89 118.38 61.97 114.95 61.70 C 114.44 59.41 115.55 57.29 116.40 55.24 Z" />
</g>
<g id="#100606e0">
<path fill="#100606" opacity="0.88" d=" M 194.48 55.35 C 206.91 55.26 219.34 55.36 231.77 55.31 C 231.73 55.91 231.65 57.13 231.61 57.73 L 230.69 56.88 C 230.50 56.70 230.13 56.35 229.94 56.18 L 229.24 56.29 C 217.97 56.04 206.69 56.10 195.43 56.21 C 195.26 56.72 194.92 57.74 194.75 58.25 L 194.48 59.03 L 194.08 60.13 C 197.20 61.50 200.58 63.30 201.24 67.00 C 201.24 68.55 201.19 70.10 201.17 71.65 C 200.23 75.71 198.96 79.70 197.13 83.45 C 195.12 81.49 198.16 78.56 198.53 76.28 C 199.01 72.84 201.40 69.10 199.18 65.85 C 198.14 63.45 195.57 62.62 193.40 61.59 C 191.86 59.61 193.36 57.14 194.48 55.35 Z" />
</g>
<g id="#ea8e8eff">
<path fill="#ea8e8e" opacity="1.00" d=" M 116.78 58.21 C 117.00 56.78 117.74 56.07 119.01 56.07 C 134.44 56.30 149.87 55.94 165.30 56.27 C 163.47 57.39 161.44 58.09 159.34 58.50 C 145.16 58.07 130.96 58.53 116.78 58.21 Z" />
<path fill="#ea8e8e" opacity="1.00" d=" M 195.43 56.21 C 206.69 56.10 217.97 56.04 229.24 56.29 C 227.60 57.07 225.96 57.87 224.22 58.39 C 214.40 58.26 204.57 58.36 194.75 58.25 C 194.92 57.74 195.26 56.72 195.43 56.21 Z" />
<path fill="#ea8e8e" opacity="1.00" d=" M 70.77 85.02 C 79.27 85.17 87.77 85.10 96.27 85.13 C 88.97 88.23 80.94 87.90 73.20 87.20 C 72.38 86.48 71.57 85.75 70.77 85.02 Z" />
<path fill="#ea8e8e" opacity="1.00" d=" M 178.12 138.18 C 193.14 130.43 210.16 127.22 226.94 126.86 C 231.62 127.00 236.44 126.98 240.97 128.13 C 240.42 128.14 239.33 128.16 238.78 128.17 C 224.07 125.43 208.88 128.40 195.26 134.18 C 184.41 138.05 173.48 142.88 165.39 151.34 C 162.92 153.63 161.17 156.54 158.79 158.91 C 162.47 153.33 164.74 146.56 170.57 142.73 C 173.01 141.09 175.52 139.55 178.12 138.18 Z" />
</g>
<g id="#ce0000ff">
<path fill="#ce0000" opacity="1.00" d=" M 165.30 56.27 C 165.72 56.24 166.56 56.19 166.99 56.16 C 166.49 57.54 165.99 58.93 165.49 60.31 C 162.08 61.40 158.54 62.46 155.73 64.78 C 151.98 67.84 149.60 72.28 148.18 76.84 C 147.77 78.08 147.40 79.33 147.04 80.58 C 146.72 81.69 146.40 82.81 146.08 83.92 C 139.47 83.88 132.86 83.93 126.25 83.89 C 127.98 78.60 128.24 71.74 124.25 67.36 C 124.07 66.96 123.71 66.15 123.53 65.74 C 122.80 62.31 119.17 61.36 116.38 60.16 L 116.45 58.99 C 120.33 58.12 124.08 59.82 127.96 59.64 C 136.32 59.58 144.68 59.60 153.04 59.62 C 155.20 59.70 157.29 59.11 159.34 58.50 C 161.44 58.09 163.47 57.39 165.30 56.27 Z" />
<path fill="#ce0000" opacity="1.00" d=" M 229.24 56.29 L 229.94 56.18 C 230.13 56.35 230.50 56.70 230.69 56.88 C 230.45 57.41 229.96 58.47 229.71 59.01 C 228.57 60.94 226.20 61.33 224.38 62.37 C 215.31 66.91 209.34 75.49 203.63 83.55 C 192.04 100.56 181.86 118.48 171.02 135.97 C 170.20 137.26 169.45 138.60 168.91 140.03 C 168.77 140.35 168.49 141.00 168.35 141.33 L 167.53 142.28 C 166.53 143.40 165.68 144.65 164.91 145.94 C 158.54 156.53 152.02 167.03 145.74 177.67 C 144.73 179.38 143.71 181.08 142.64 182.76 C 135.25 194.73 127.96 206.77 120.74 218.85 C 118.44 218.97 116.13 219.01 113.83 218.99 C 113.88 218.32 113.97 216.97 114.02 216.30 C 114.59 215.96 115.73 215.29 116.30 214.96 C 117.98 209.08 116.99 202.91 118.18 196.97 C 120.11 169.96 122.37 142.99 124.47 116.00 C 124.05 112.38 126.38 108.56 124.42 105.21 L 124.38 105.11 C 130.53 98.55 135.88 89.65 145.31 87.70 C 143.45 102.39 142.17 117.16 141.06 131.94 C 140.85 135.31 140.27 138.66 140.07 142.04 C 138.82 156.69 137.52 171.34 136.17 185.98 C 136.51 185.76 137.20 185.33 137.55 185.11 C 139.17 184.28 140.13 182.72 141.01 181.21 C 158.44 151.96 176.33 122.99 193.62 93.66 C 196.57 88.64 199.41 83.55 201.85 78.26 C 204.45 75.25 203.83 71.11 203.62 67.45 C 203.02 67.34 201.84 67.11 201.24 67.00 C 200.58 63.30 197.20 61.50 194.08 60.13 L 194.48 59.03 C 198.98 58.80 203.42 60.00 207.93 59.64 C 213.36 59.32 219.02 60.45 224.22 58.39 C 225.96 57.87 227.60 57.07 229.24 56.29 Z" />
<path fill="#ce0000" opacity="1.00" d=" M 42.22 85.03 C 45.24 84.87 48.26 84.87 51.28 84.89 C 51.20 85.29 51.05 86.08 50.97 86.48 C 47.41 86.44 43.36 86.04 40.38 88.43 C 37.29 90.55 35.56 94.24 35.61 97.95 C 35.60 113.31 35.69 128.68 35.66 144.04 C 35.73 146.10 35.34 148.27 36.09 150.25 C 36.92 149.12 37.73 147.97 38.56 146.84 L 40.57 147.33 C 35.27 154.41 30.17 161.66 24.69 168.61 C 24.02 168.66 22.69 168.77 22.02 168.83 C 22.05 167.73 22.07 166.63 22.09 165.53 C 25.32 162.98 24.38 158.59 24.48 155.00 C 24.46 136.00 24.41 117.00 24.42 98.00 C 24.42 96.48 24.16 94.97 23.71 93.52 C 23.18 93.37 22.13 93.06 21.61 92.91 L 21.30 92.82 C 21.11 89.59 18.66 87.08 15.49 86.64 L 15.19 85.50 C 17.63 85.32 19.68 86.91 21.98 87.45 C 28.81 87.80 35.95 88.32 42.22 85.03 Z" />
<path fill="#ce0000" opacity="1.00" d=" M 96.27 85.13 C 99.26 84.98 102.27 84.98 105.25 85.26 C 103.94 86.79 101.82 86.27 100.06 86.52 C 95.57 86.56 91.75 89.63 89.34 93.20 C 87.59 96.18 87.32 99.67 86.96 103.02 C 85.62 117.03 84.30 131.05 82.85 145.05 C 82.60 147.06 82.43 149.08 82.35 151.10 C 83.56 150.12 84.53 148.90 85.48 147.68 C 86.11 147.68 87.36 147.68 87.98 147.68 C 82.80 154.27 77.44 160.72 72.16 167.23 C 71.34 168.46 70.01 169.01 68.58 169.12 C 68.58 167.94 68.61 166.77 68.66 165.60 C 73.21 162.22 72.36 155.99 72.77 151.03 C 73.84 145.24 73.25 139.32 74.33 133.53 C 74.55 124.02 76.14 114.60 75.69 105.06 C 74.79 106.06 73.89 107.06 73.00 108.06 C 73.26 106.38 73.10 104.69 72.07 103.28 C 75.19 101.24 77.08 96.37 74.02 93.48 C 73.70 90.95 72.81 88.53 70.76 86.88 C 71.37 86.96 72.59 87.12 73.20 87.20 C 80.94 87.90 88.97 88.23 96.27 85.13 Z" />
<path fill="#ce0000" opacity="1.00" d=" M 118.85 85.39 C 120.34 85.17 121.85 85.04 123.36 85.08 C 128.84 89.79 136.16 86.93 142.20 85.16 C 144.25 85.08 146.29 85.13 148.34 85.14 C 147.99 85.42 147.29 85.98 146.94 86.26 C 143.39 86.81 139.78 87.69 137.01 90.11 C 130.46 95.47 125.25 102.23 119.91 108.74 C 118.03 111.00 116.12 113.24 114.24 115.50 C 114.13 114.80 113.91 113.38 113.80 112.68 C 116.07 113.27 117.38 110.69 117.28 108.79 C 117.40 108.62 117.63 108.30 117.75 108.13 C 119.59 107.80 121.57 106.22 121.02 104.14 C 124.16 101.76 125.93 98.12 127.84 94.78 C 128.76 93.23 129.44 90.60 127.18 89.85 C 126.36 88.97 125.61 88.02 124.76 87.18 C 122.92 86.20 120.25 87.14 118.85 85.39 Z" />
<path fill="#ce0000" opacity="1.00" d=" M 195.26 134.18 C 208.88 128.40 224.07 125.43 238.78 128.17 C 243.63 129.42 248.43 130.95 253.01 133.00 C 256.25 134.53 259.95 134.96 263.47 134.40 C 265.46 132.91 266.73 130.71 268.31 128.84 L 269.09 128.80 C 267.13 137.85 265.15 146.91 263.01 155.92 C 262.50 155.93 261.47 155.94 260.96 155.95 C 259.03 150.94 258.34 145.34 255.12 140.90 C 251.08 135.40 245.01 131.41 238.36 129.86 C 225.41 127.15 211.43 129.37 200.01 136.11 C 188.87 142.60 179.08 152.18 174.16 164.26 C 171.11 171.76 169.46 180.05 170.85 188.12 C 171.76 193.31 174.51 197.97 178.17 201.71 C 177.69 202.14 176.73 202.99 176.24 203.42 C 179.10 207.57 183.94 209.64 188.80 210.30 C 197.40 212.08 206.23 212.89 214.98 211.92 C 218.62 211.39 222.60 211.58 225.83 209.55 L 225.86 209.55 C 229.16 209.74 232.18 208.17 235.17 207.00 C 237.65 205.83 240.48 204.93 242.12 202.57 C 243.25 201.24 244.71 200.26 245.97 199.07 C 247.97 197.18 249.54 194.89 251.64 193.09 C 251.25 195.24 251.07 197.68 249.27 199.19 C 240.68 208.55 227.84 212.19 215.66 213.98 C 206.41 215.16 197.02 215.02 187.75 214.11 C 177.26 212.53 166.28 210.07 158.01 202.99 C 153.05 198.75 149.45 192.79 148.56 186.28 C 151.76 182.61 150.70 177.42 152.39 173.14 C 153.82 168.78 156.93 165.10 157.77 160.53 C 158.03 160.13 158.54 159.32 158.79 158.91 C 161.17 156.54 162.92 153.63 165.39 151.34 C 173.48 142.88 184.41 138.05 195.26 134.18 Z" />
</g>
<g id="#da3b3bff">
<path fill="#da3b3b" opacity="1.00" d=" M 116.78 58.21 C 130.96 58.53 145.16 58.07 159.34 58.50 C 157.29 59.11 155.20 59.70 153.04 59.62 C 144.68 59.60 136.32 59.58 127.96 59.64 C 124.08 59.82 120.33 58.12 116.45 58.99 L 116.78 58.21 Z" />
<path fill="#da3b3b" opacity="1.00" d=" M 194.75 58.25 C 204.57 58.36 214.40 58.26 224.22 58.39 C 219.02 60.45 213.36 59.32 207.93 59.64 C 203.42 60.00 198.98 58.80 194.48 59.03 L 194.75 58.25 Z" />
<path fill="#da3b3b" opacity="1.00" d=" M 73.00 108.06 C 73.89 107.06 74.79 106.06 75.69 105.06 C 76.14 114.60 74.55 124.02 74.33 133.53 C 73.25 139.32 73.84 145.24 72.77 151.03 C 72.36 155.99 73.21 162.22 68.66 165.60 C 70.07 146.42 71.40 127.23 73.00 108.06 Z" />
</g>
<g id="#130000e1">
<path fill="#130000" opacity="0.88" d=" M 224.38 62.37 C 226.20 61.33 228.57 60.94 229.71 59.01 C 229.74 59.65 229.78 60.94 229.81 61.59 C 225.78 62.91 221.86 64.73 218.73 67.65 C 206.65 78.78 198.86 93.50 190.08 107.16 C 183.29 118.33 176.68 129.62 169.61 140.61 L 168.91 140.03 C 169.45 138.60 170.20 137.26 171.02 135.97 C 181.86 118.48 192.04 100.56 203.63 83.55 C 209.34 75.49 215.31 66.91 224.38 62.37 Z" />
</g>
<g id="#e13d3cff">
<path fill="#e13d3c" opacity="1.00" d=" M 201.24 67.00 C 201.84 67.11 203.02 67.34 203.62 67.45 C 203.83 71.11 204.45 75.25 201.85 78.26 C 201.78 76.04 201.50 73.84 201.17 71.65 C 201.19 70.10 201.24 68.55 201.24 67.00 Z" />
</g>
<g id="#180808e3">
<path fill="#180808" opacity="0.89" d=" M 123.03 83.90 C 124.02 78.44 122.01 72.57 124.25 67.36 C 124.68 72.86 124.42 78.38 124.20 83.88 C 124.71 83.89 125.74 83.89 126.25 83.89 C 132.86 83.93 139.47 83.88 146.08 83.92 C 146.40 82.81 146.72 81.69 147.04 80.58 C 147.63 81.98 148.20 83.40 148.78 84.81 L 148.34 85.14 C 146.29 85.13 144.25 85.08 142.20 85.16 C 135.92 85.15 129.64 85.05 123.36 85.08 C 121.85 85.04 120.34 85.17 118.85 85.39 C 120.25 87.14 122.92 86.20 124.76 87.18 C 125.61 88.02 126.36 88.97 127.18 89.85 C 126.83 91.47 126.57 93.11 126.40 94.77 C 125.92 94.93 124.94 95.25 124.46 95.41 C 125.15 93.10 126.39 90.22 124.13 88.32 C 123.83 91.15 123.58 93.98 123.15 96.79 L 123.88 95.36 C 124.38 95.95 124.88 96.56 125.37 97.17 C 123.59 99.26 121.96 101.54 121.02 104.14 C 119.18 104.56 118.41 106.59 117.75 108.13 C 117.63 108.30 117.40 108.62 117.28 108.79 C 115.67 109.62 114.63 111.11 113.80 112.68 C 104.28 124.28 94.83 135.94 85.48 147.68 C 84.53 148.90 83.56 150.12 82.35 151.10 C 82.43 149.08 82.60 147.06 82.85 145.05 C 83.40 145.26 84.50 145.67 85.04 145.87 C 93.77 135.59 101.94 124.85 110.59 114.50 C 114.29 109.27 118.94 104.69 122.04 99.05 C 122.54 95.41 122.29 91.71 122.10 88.05 C 120.86 87.85 119.61 87.65 118.36 87.45 C 118.32 86.45 118.28 85.45 118.23 84.45 C 119.83 84.27 121.43 84.08 123.03 83.90 Z" />
</g>
<g id="#e74141ff">
<path fill="#e74141" opacity="1.00" d=" M 124.25 67.36 C 128.24 71.74 127.98 78.60 126.25 83.89 C 125.74 83.89 124.71 83.89 124.20 83.88 C 124.42 78.38 124.68 72.86 124.25 67.36 Z" />
</g>
<g id="#ed8282ff">
<path fill="#ed8282" opacity="1.00" d=" M 201.17 71.65 C 201.50 73.84 201.78 76.04 201.85 78.26 C 199.41 83.55 196.57 88.64 193.62 93.66 C 176.33 122.99 158.44 151.96 141.01 181.21 C 140.13 182.72 139.17 184.28 137.55 185.11 C 138.32 183.39 139.26 181.76 140.29 180.18 C 141.61 178.16 142.83 176.09 144.02 173.99 C 144.27 173.57 144.78 172.72 145.03 172.30 C 147.73 167.87 150.43 163.45 153.01 158.96 C 164.13 140.42 175.27 121.90 186.38 103.35 C 190.22 96.86 193.96 90.30 197.13 83.45 C 198.96 79.70 200.23 75.71 201.17 71.65 Z" />
<path fill="#ed8282" opacity="1.00" d=" M 13.09 85.17 C 22.79 84.63 32.51 85.05 42.22 85.03 C 35.95 88.32 28.81 87.80 21.98 87.45 C 19.68 86.91 17.63 85.32 15.19 85.50 L 13.92 86.45 C 13.71 86.13 13.30 85.49 13.09 85.17 Z" />
<path fill="#ed8282" opacity="1.00" d=" M 123.36 85.08 C 129.64 85.05 135.92 85.15 142.20 85.16 C 136.16 86.93 128.84 89.79 123.36 85.08 Z" />
<path fill="#ed8282" opacity="1.00" d=" M 74.02 93.48 C 77.08 96.37 75.19 101.24 72.07 103.28 C 70.93 104.13 69.77 104.96 68.63 105.84 C 69.40 104.67 70.11 103.46 70.81 102.25 C 71.68 100.78 72.44 99.25 73.05 97.65 C 73.42 96.27 73.75 94.88 74.02 93.48 Z" />
<path fill="#ed8282" opacity="1.00" d=" M 113.80 112.68 C 114.63 111.11 115.67 109.62 117.28 108.79 C 117.38 110.69 116.07 113.27 113.80 112.68 Z" />
<path fill="#ed8282" opacity="1.00" d=" M 225.86 209.55 C 231.36 207.53 237.18 205.95 242.12 202.57 C 240.48 204.93 237.65 205.83 235.17 207.00 C 232.18 208.17 229.16 209.74 225.86 209.55 Z" />
</g>
<g id="#100707db">
<path fill="#100707" opacity="0.86" d=" M 64.22 84.26 C 78.12 84.22 92.02 84.12 105.91 84.26 C 105.69 85.41 106.01 87.00 104.65 87.54 C 102.47 87.81 100.27 87.66 98.10 87.92 C 94.90 88.68 93.04 91.67 90.48 93.47 L 89.34 93.20 C 91.75 89.63 95.57 86.56 100.06 86.52 C 101.82 86.27 103.94 86.79 105.25 85.26 C 102.27 84.98 99.26 84.98 96.27 85.13 C 87.77 85.10 79.27 85.17 70.77 85.02 C 69.02 84.98 67.28 84.97 65.53 85.06 C 63.89 85.60 65.76 87.59 66.90 87.15 C 67.65 87.05 69.14 86.85 69.88 86.75 L 70.76 86.88 C 72.81 88.53 73.70 90.95 74.02 93.48 C 73.75 94.88 73.42 96.27 73.05 97.65 C 71.48 95.44 72.00 92.68 71.72 90.15 C 70.47 87.24 66.85 87.87 64.29 87.52 C 64.27 86.43 64.24 85.35 64.22 84.26 Z" />
</g>
<g id="#6b0404ff">
<path fill="#6b0404" opacity="1.00" d=" M 66.90 87.15 C 65.76 87.59 63.89 85.60 65.53 85.06 C 67.07 85.39 68.49 86.04 69.88 86.75 C 69.14 86.85 67.65 87.05 66.90 87.15 Z" />
</g>
<g id="#d33232ff">
<path fill="#d33232" opacity="1.00" d=" M 65.53 85.06 C 67.28 84.97 69.02 84.98 70.77 85.02 C 71.57 85.75 72.38 86.48 73.20 87.20 C 72.59 87.12 71.37 86.96 70.76 86.88 L 69.88 86.75 C 68.49 86.04 67.07 85.39 65.53 85.06 Z" />
</g>
<g id="#160505df">
<path fill="#160505" opacity="0.87" d=" M 11.80 87.42 C 12.98 86.94 14.23 86.71 15.49 86.64 C 18.66 87.08 21.11 89.59 21.30 92.82 C 21.38 118.11 21.29 143.40 21.38 168.69 L 22.02 168.83 C 22.69 168.77 24.02 168.66 24.69 168.61 C 30.17 161.66 35.27 154.41 40.57 147.33 C 50.58 134.07 60.34 120.64 70.32 107.37 C 71.20 106.16 72.19 104.88 72.07 103.28 C 73.10 104.69 73.26 106.38 73.00 108.06 C 71.40 127.23 70.07 146.42 68.66 165.60 C 68.61 166.77 68.58 167.94 68.58 169.12 C 70.01 169.01 71.34 168.46 72.16 167.23 C 77.44 160.72 82.80 154.27 87.98 147.68 C 96.75 136.97 105.45 126.20 114.24 115.50 C 116.12 113.24 118.03 111.00 119.91 108.74 L 120.15 109.99 L 120.27 110.76 C 114.03 117.40 108.79 124.89 102.83 131.77 C 93.02 143.96 83.03 156.02 73.23 168.22 C 71.83 170.27 69.20 169.76 67.07 169.89 C 66.56 167.43 66.89 164.96 67.65 162.61 C 68.62 159.79 67.99 156.83 67.89 153.95 C 67.60 150.28 69.18 146.77 68.93 143.10 C 68.83 140.49 68.86 137.86 69.51 135.31 C 70.66 130.99 69.22 126.46 70.44 122.14 C 71.50 118.10 70.83 113.90 70.66 109.79 C 67.23 113.09 64.85 117.27 61.83 120.93 C 50.90 136.24 39.27 151.03 28.31 166.32 C 27.47 167.44 26.66 168.62 25.58 169.55 C 23.88 170.02 22.10 169.73 20.37 169.71 C 20.30 145.15 20.24 120.58 20.26 96.02 C 20.34 93.74 20.02 91.32 18.40 89.58 C 16.89 87.48 14.00 88.03 11.80 87.42 Z" />
</g>
<g id="#e54949ff">
<path fill="#e54949" opacity="1.00" d=" M 124.13 88.32 C 126.39 90.22 125.15 93.10 124.46 95.41 C 124.94 95.25 125.92 94.93 126.40 94.77 C 126.57 93.11 126.83 91.47 127.18 89.85 C 129.44 90.60 128.76 93.23 127.84 94.78 C 125.93 98.12 124.16 101.76 121.02 104.14 C 121.96 101.54 123.59 99.26 125.37 97.17 C 124.88 96.56 124.38 95.95 123.88 95.36 L 123.15 96.79 C 123.58 93.98 123.83 91.15 124.13 88.32 Z" />
<path fill="#e54949" opacity="1.00" d=" M 122.78 107.14 C 123.19 106.66 124.01 105.69 124.42 105.21 C 126.38 108.56 124.05 112.38 124.47 116.00 C 122.37 142.99 120.11 169.96 118.18 196.97 C 116.99 202.91 117.98 209.08 116.30 214.96 C 115.73 215.29 114.59 215.96 114.02 216.30 C 114.62 207.45 115.41 198.63 116.06 189.79 C 117.50 169.53 119.31 149.30 120.77 129.05 C 121.65 121.77 121.58 114.37 122.78 107.14 Z" />
<path fill="#e54949" opacity="1.00" d=" M 150.37 172.42 C 152.85 168.47 155.26 164.47 157.77 160.53 C 156.93 165.10 153.82 168.78 152.39 173.14 C 150.70 177.42 151.76 182.61 148.56 186.28 C 148.18 181.66 147.55 176.46 150.37 172.42 Z" />
</g>
<g id="#431111fc">
<path fill="#431111" opacity="1.00" d=" M 21.30 92.82 L 21.61 92.91 C 21.86 117.12 21.93 141.33 22.09 165.53 C 22.07 166.63 22.05 167.73 22.02 168.83 L 21.38 168.69 C 21.29 143.40 21.38 118.11 21.30 92.82 Z" />
</g>
<g id="#dd3535ff">
<path fill="#dd3535" opacity="1.00" d=" M 21.61 92.91 C 22.13 93.06 23.18 93.37 23.71 93.52 C 24.16 94.97 24.42 96.48 24.42 98.00 C 24.41 117.00 24.46 136.00 24.48 155.00 C 24.38 158.59 25.32 162.98 22.09 165.53 C 21.93 141.33 21.86 117.12 21.61 92.91 Z" />
</g>
<g id="#090505d5">
<path fill="#090505" opacity="0.84" d=" M 35.73 101.97 C 36.05 100.19 35.09 97.54 36.98 96.47 C 37.61 113.00 37.05 129.57 37.26 146.12 C 47.91 132.05 58.20 117.71 68.63 103.49 C 69.18 103.18 70.26 102.56 70.81 102.25 C 70.11 103.46 69.40 104.67 68.63 105.84 C 58.56 119.46 48.51 133.12 38.56 146.84 C 37.73 147.97 36.92 149.12 36.09 150.25 C 35.47 134.17 35.94 118.07 35.73 101.97 Z" />
</g>
<g id="#c01717ff">
<path fill="#c01717" opacity="1.00" d=" M 68.63 105.84 C 69.77 104.96 70.93 104.13 72.07 103.28 C 72.19 104.88 71.20 106.16 70.32 107.37 C 60.34 120.64 50.58 134.07 40.57 147.33 L 38.56 146.84 C 48.51 133.12 58.56 119.46 68.63 105.84 Z" />
</g>
<g id="#e66e6fff">
<path fill="#e66e6f" opacity="1.00" d=" M 117.75 108.13 C 118.41 106.59 119.18 104.56 121.02 104.14 C 121.57 106.22 119.59 107.80 117.75 108.13 Z" />
<path fill="#e66e6f" opacity="1.00" d=" M 238.78 128.17 C 239.33 128.16 240.42 128.14 240.97 128.13 C 247.83 128.40 254.26 131.28 261.07 131.83 C 264.03 132.13 265.61 128.35 268.31 128.84 C 266.73 130.71 265.46 132.91 263.47 134.40 C 259.95 134.96 256.25 134.53 253.01 133.00 C 248.43 130.95 243.63 129.42 238.78 128.17 Z" />
<path fill="#e66e6f" opacity="1.00" d=" M 186.48 207.19 C 198.98 212.16 212.79 211.38 225.83 209.55 C 222.60 211.58 218.62 211.39 214.98 211.92 C 206.23 212.89 197.40 212.08 188.80 210.30 C 188.04 209.25 187.27 208.21 186.48 207.19 Z" />
</g>
<g id="#b74646ff">
<path fill="#b74646" opacity="1.00" d=" M 117.28 108.79 C 117.40 108.62 117.63 108.30 117.75 108.13 C 117.63 108.30 117.40 108.62 117.28 108.79 Z" />
</g>
<g id="#d72b2bff">
<path fill="#d72b2b" opacity="1.00" d=" M 85.48 147.68 C 94.83 135.94 104.28 124.28 113.80 112.68 C 113.91 113.38 114.13 114.80 114.24 115.50 C 105.45 126.20 96.75 136.97 87.98 147.68 C 87.36 147.68 86.11 147.68 85.48 147.68 Z" />
<path fill="#d72b2b" opacity="1.00" d=" M 176.24 203.42 C 176.73 202.99 177.69 202.14 178.17 201.71 C 180.66 203.96 183.70 205.39 186.48 207.19 C 187.27 208.21 188.04 209.25 188.80 210.30 C 183.94 209.64 179.10 207.57 176.24 203.42 Z" />
</g>
<g id="#130000de">
<path fill="#130000" opacity="0.87" d=" M 200.01 136.11 C 211.43 129.37 225.41 127.15 238.36 129.86 C 236.76 132.56 234.12 130.32 232.01 129.75 C 205.58 128.37 178.85 146.87 172.74 172.99 C 171.05 177.70 172.07 182.73 171.64 187.59 L 170.85 188.12 C 169.46 180.05 171.11 171.76 174.16 164.26 C 179.08 152.18 188.87 142.60 200.01 136.11 Z" />
</g>
<g id="#170606e6">
<path fill="#170606" opacity="0.90" d=" M 164.91 145.94 C 165.68 144.65 166.53 143.40 167.53 142.28 C 168.29 142.39 169.81 142.62 170.57 142.73 C 164.74 146.56 162.47 153.33 158.79 158.91 C 158.54 159.32 158.03 160.13 157.77 160.53 C 155.26 164.47 152.85 168.47 150.37 172.42 C 147.55 176.46 148.18 181.66 148.56 186.28 C 149.45 192.79 153.05 198.75 158.01 202.99 C 166.28 210.07 177.26 212.53 187.75 214.11 C 195.36 215.63 203.28 215.36 211.00 214.78 C 212.26 214.96 214.68 214.19 215.02 215.95 C 207.36 216.52 199.67 215.53 192.00 216.16 C 188.85 216.61 186.13 214.60 183.03 214.59 C 172.59 212.98 161.82 209.51 154.40 201.63 C 151.48 197.95 148.93 193.92 147.74 189.32 C 146.26 185.54 148.75 180.94 145.74 177.67 C 152.02 167.03 158.54 156.53 164.91 145.94 Z" />
</g>
<g id="#150d0de1">
<path fill="#150d0d" opacity="0.88" d=" M 146.05 168.04 C 148.33 165.09 149.10 160.10 153.01 158.96 C 150.43 163.45 147.73 167.87 145.03 172.30 C 143.17 171.29 145.63 169.33 146.05 168.04 Z" />
</g>
<g id="#211515e5">
<path fill="#211515" opacity="0.90" d=" M 140.29 180.18 C 140.32 177.75 141.08 174.27 144.02 173.99 C 142.83 176.09 141.61 178.16 140.29 180.18 Z" />
</g>
<g id="#0101010f">
<path fill="#010101" opacity="0.06" d=" M 138.12 179.23 L 138.93 179.16 C 140.52 181.06 136.21 181.16 138.12 179.23 Z" />
</g>
<g id="#1e0808e3">
<path fill="#1e0808" opacity="0.89" d=" M 120.74 218.85 C 127.96 206.77 135.25 194.73 142.64 182.76 L 143.82 183.00 C 138.42 192.73 132.32 202.06 126.66 211.66 C 124.93 214.27 123.71 217.24 121.63 219.61 C 118.50 219.91 115.35 219.69 112.21 219.68 C 113.86 213.86 112.30 207.79 113.96 201.97 C 114.65 197.95 112.87 193.08 116.06 189.79 C 115.41 198.63 114.62 207.45 114.02 216.30 C 113.97 216.97 113.88 218.32 113.83 218.99 C 116.13 219.01 118.44 218.97 120.74 218.85 Z" />
</g>
<g id="#1a0303e2">
<path fill="#1a0303" opacity="0.89" d=" M 249.15 193.05 C 250.60 190.97 251.90 188.77 253.72 186.97 C 253.19 190.62 253.41 194.51 251.91 197.95 C 245.49 207.12 234.49 211.40 224.01 213.97 C 221.30 214.53 218.08 216.10 215.66 213.98 C 227.84 212.19 240.68 208.55 249.27 199.19 C 251.07 197.68 251.25 195.24 251.64 193.09 C 249.54 194.89 247.97 197.18 245.97 199.07 C 245.92 196.58 247.87 194.94 249.15 193.05 Z" />
</g>
</svg>
