<?xml version="1.0" encoding="UTF-8" ?>
<!DOCTYPE svg PUBLIC "-//W3C//DTD SVG 1.1//EN" "http://www.w3.org/Graphics/SVG/1.1/DTD/svg11.dtd">
<svg width="400pt" height="400pt" viewBox="0 0 400 400" version="1.1" xmlns="http://www.w3.org/2000/svg">
<g id="#4ba3afff">
<path fill="#4ba3af" opacity="1.00" d=" M 181.62 5.83 C 217.55 2.42 254.43 9.12 286.74 25.27 C 320.18 41.84 348.64 68.26 367.69 100.35 C 385.59 130.29 395.12 165.14 395.01 200.02 C 395.11 234.41 385.84 268.77 368.41 298.43 C 343.16 341.86 300.52 374.81 252.02 388.02 C 213.79 398.58 172.35 397.19 134.97 383.92 C 101.36 372.10 71.21 350.77 48.74 323.14 C 28.30 298.12 14.22 267.93 8.32 236.15 C 1.40 199.33 5.24 160.52 19.55 125.87 C 33.71 91.30 58.09 61.04 88.79 39.76 C 116.12 20.70 148.43 8.87 181.62 5.83 M 130.82 66.70 C 116.00 68.57 104.08 82.36 104.18 97.27 C 99.53 97.11 94.89 96.73 90.24 96.73 C 90.32 169.86 90.24 242.98 90.28 316.10 C 114.86 316.99 139.44 318.12 164.02 318.98 C 188.34 318.13 212.66 316.99 236.99 316.15 C 261.23 316.97 285.46 318.12 309.70 318.96 C 309.63 245.84 309.73 172.71 309.65 99.58 C 301.74 99.33 293.83 98.98 285.92 98.64 C 281.95 98.56 278.02 97.22 274.06 98.11 C 261.38 97.79 248.69 97.07 236.01 96.70 C 212.84 97.54 189.68 98.54 166.51 99.45 C 166.81 95.59 166.28 91.68 165.11 88.00 C 160.85 73.78 145.46 64.23 130.82 66.70 Z" />
</g>
<g id="#f16060ff">
<path fill="#f16060" opacity="1.00" d=" M 130.82 66.70 C 145.46 64.23 160.85 73.78 165.11 88.00 C 166.28 91.68 166.81 95.59 166.51 99.45 C 166.08 102.51 165.26 105.50 164.25 108.42 C 159.55 121.62 152.57 133.85 145.61 145.96 C 144.39 148.04 143.12 150.10 141.86 152.16 C 139.76 155.59 137.63 159.01 135.48 162.41 C 134.08 160.35 132.69 158.29 131.39 156.17 C 130.61 154.92 129.85 153.66 129.08 152.40 C 120.22 137.52 111.26 122.46 105.72 105.97 C 104.83 103.15 104.24 100.23 104.18 97.27 C 104.08 82.36 116.00 68.57 130.82 66.70 M 131.40 82.44 C 123.22 84.45 117.88 93.91 120.70 101.91 C 122.85 109.55 131.54 114.42 139.17 112.26 C 147.50 110.47 152.88 100.89 150.14 92.83 C 147.98 85.07 139.12 80.18 131.40 82.44 Z" />
<path fill="#f16060" opacity="1.00" d=" M 210.56 176.50 C 223.21 169.91 240.01 173.57 248.81 184.79 C 249.76 185.93 250.57 187.18 251.34 188.46 C 254.65 194.18 256.34 200.97 255.42 207.57 C 254.59 212.45 252.75 217.08 250.91 221.66 C 250.30 223.11 249.65 224.55 248.99 225.98 C 241.93 241.00 233.47 255.32 224.47 269.24 C 215.59 255.32 207.09 241.10 200.10 226.13 C 199.41 224.63 198.73 223.11 198.09 221.59 C 196.15 216.81 194.20 211.95 193.47 206.81 C 192.72 199.43 195.00 191.89 199.35 185.92 C 200.26 184.65 201.28 183.46 202.38 182.37 C 204.80 180.02 207.54 178.00 210.56 176.50 M 221.13 189.13 C 215.33 190.37 210.53 195.25 209.40 201.08 C 207.31 209.67 214.19 218.97 223.01 219.50 C 231.84 220.66 240.22 212.84 239.95 204.01 C 240.05 194.56 230.35 186.79 221.13 189.13 Z" />
</g>
<g id="#e9ebebff">
<path fill="#e9ebeb" opacity="1.00" d=" M 131.40 82.44 C 139.12 80.18 147.98 85.07 150.14 92.83 C 152.88 100.89 147.50 110.47 139.17 112.26 C 131.54 114.42 122.85 109.55 120.70 101.91 C 117.88 93.91 123.22 84.45 131.40 82.44 Z" />
<path fill="#e9ebeb" opacity="1.00" d=" M 90.24 96.73 C 94.89 96.73 99.53 97.11 104.18 97.27 C 104.24 100.23 104.83 103.15 105.72 105.97 C 103.46 105.90 101.21 105.83 98.95 105.76 C 98.94 125.17 98.92 144.58 98.96 163.99 C 109.04 160.23 119.03 156.22 129.08 152.40 C 129.85 153.66 130.61 154.92 131.39 156.17 C 120.77 160.40 110.01 164.31 99.45 168.66 C 98.45 170.54 99.11 172.94 98.92 175.02 C 99.18 203.67 98.41 232.33 99.52 260.96 C 106.60 259.88 113.72 258.99 120.74 257.63 C 122.01 256.38 122.25 254.38 122.99 252.79 C 130.92 231.82 138.80 210.82 146.85 189.90 C 147.13 187.92 149.93 187.26 150.87 189.10 C 156.78 197.01 162.49 205.08 168.38 213.01 C 174.67 200.73 181.03 188.49 187.30 176.20 C 175.66 166.88 164.00 157.60 152.48 148.14 C 148.87 149.31 145.38 150.77 141.86 152.16 C 143.12 150.10 144.39 148.04 145.61 145.96 C 148.07 144.97 150.57 144.08 153.07 143.20 C 165.33 152.64 177.34 162.43 189.46 172.06 C 195.04 161.33 200.44 150.51 206.12 139.83 C 228.08 139.35 250.07 139.91 272.04 139.70 C 272.79 128.77 273.56 117.84 274.31 106.91 C 258.23 106.56 242.14 104.86 226.06 105.91 C 205.46 106.75 184.85 107.50 164.25 108.42 C 165.26 105.50 166.08 102.51 166.51 99.45 C 189.68 98.54 212.84 97.54 236.01 96.70 C 248.69 97.07 261.38 97.79 274.06 98.11 C 278.02 97.22 281.95 98.56 285.92 98.64 C 293.83 98.98 301.74 99.33 309.65 99.58 C 309.73 172.71 309.63 245.84 309.70 318.96 C 285.46 318.12 261.23 316.97 236.99 316.15 C 212.66 316.99 188.34 318.13 164.02 318.98 C 139.44 318.12 114.86 316.99 90.28 316.10 C 90.24 242.98 90.32 169.86 90.24 96.73 M 278.70 107.10 C 277.93 118.10 277.12 129.10 276.42 140.11 C 276.35 141.33 276.05 142.52 275.78 143.72 C 274.18 143.95 272.58 144.16 270.97 144.13 C 250.30 144.02 229.64 144.21 208.98 144.16 C 203.63 154.41 198.39 164.71 193.09 174.97 C 196.18 177.45 199.25 179.95 202.38 182.37 C 201.28 183.46 200.26 184.65 199.35 185.92 C 196.62 183.58 193.76 181.38 190.96 179.13 C 184.42 191.80 177.88 204.47 171.38 217.15 C 178.33 226.73 185.22 236.35 192.23 245.89 C 191.82 238.26 190.90 230.64 190.72 223.00 C 192.21 220.47 195.70 221.98 198.09 221.59 C 198.73 223.11 199.41 224.63 200.10 226.13 C 198.55 226.10 196.99 226.06 195.44 226.02 C 195.81 235.37 196.93 244.68 197.29 254.03 C 197.32 256.27 193.99 256.87 193.10 254.88 C 185.13 244.03 177.31 233.08 169.40 222.20 C 169.23 222.23 168.90 222.30 168.73 222.33 C 153.69 251.02 139.02 279.92 124.11 308.69 C 139.39 309.08 154.67 310.56 169.94 309.93 C 169.55 303.60 169.06 297.27 168.76 290.94 C 168.38 289.47 169.51 287.97 171.06 288.15 C 199.52 288.73 227.98 289.57 256.44 290.32 C 256.07 276.83 255.45 263.35 255.13 249.86 C 254.66 247.95 256.95 246.48 258.50 247.62 C 272.72 254.14 286.84 260.88 301.05 267.41 C 301.06 253.64 301.07 239.86 301.05 226.09 C 283.70 225.77 266.34 225.98 248.99 225.98 C 249.65 224.55 250.30 223.11 250.91 221.66 C 267.60 221.65 284.29 221.67 300.98 221.65 C 301.18 207.77 300.98 193.88 301.08 179.99 C 301.19 174.45 299.98 169.02 299.21 163.57 C 283.25 171.85 267.30 180.16 251.34 188.46 C 250.57 187.18 249.76 185.93 248.81 184.79 C 266.25 175.86 283.55 166.64 301.02 157.76 C 301.07 141.16 301.11 124.57 301.00 107.97 C 293.57 107.65 286.13 107.39 278.70 107.10 M 149.61 194.86 C 141.46 216.34 133.32 237.81 125.20 259.29 C 124.73 260.32 124.40 261.77 122.99 261.78 C 115.23 263.14 107.40 264.12 99.64 265.47 C 100.17 279.56 100.54 293.66 101.09 307.76 C 107.13 308.09 113.18 308.28 119.22 308.51 C 134.87 278.18 150.71 247.93 165.99 217.40 C 160.51 209.91 155.22 202.26 149.61 194.86 M 259.58 252.95 C 259.93 265.99 260.53 279.02 260.84 292.05 C 261.23 293.74 259.70 295.05 258.08 294.71 C 229.86 294.16 201.64 293.38 173.41 292.73 C 173.72 298.40 174.12 304.07 174.44 309.75 C 194.96 309.00 215.47 308.03 235.99 307.36 C 257.67 308.13 279.33 309.18 301.01 309.88 C 301.05 297.32 301.19 284.75 300.93 272.20 C 287.13 265.83 273.39 259.32 259.58 252.95 Z" />
<path fill="#e9ebeb" opacity="1.00" d=" M 221.13 189.13 C 230.35 186.79 240.05 194.56 239.95 204.01 C 240.22 212.84 231.84 220.66 223.01 219.50 C 214.19 218.97 207.31 209.67 209.40 201.08 C 210.53 195.25 215.33 190.37 221.13 189.13 Z" />
</g>
<g id="#9ec456ff">
<path fill="#9ec456" opacity="1.00" d=" M 98.95 105.76 C 101.21 105.83 103.46 105.90 105.72 105.97 C 111.26 122.46 120.22 137.52 129.08 152.40 C 119.03 156.22 109.04 160.23 98.96 163.99 C 98.92 144.58 98.94 125.17 98.95 105.76 Z" />
<path fill="#9ec456" opacity="1.00" d=" M 164.25 108.42 C 184.85 107.50 205.46 106.75 226.06 105.91 C 242.14 104.86 258.23 106.56 274.31 106.91 C 273.56 117.84 272.79 128.77 272.04 139.70 C 250.07 139.91 228.08 139.35 206.12 139.83 C 200.44 150.51 195.04 161.33 189.46 172.06 C 177.34 162.43 165.33 152.64 153.07 143.20 C 150.57 144.08 148.07 144.97 145.61 145.96 C 152.57 133.85 159.55 121.62 164.25 108.42 Z" />
<path fill="#9ec456" opacity="1.00" d=" M 278.70 107.10 C 286.13 107.39 293.57 107.65 301.00 107.97 C 301.11 124.57 301.07 141.16 301.02 157.76 C 283.55 166.64 266.25 175.86 248.81 184.79 C 240.01 173.57 223.21 169.91 210.56 176.50 C 207.54 178.00 204.80 180.02 202.38 182.37 C 199.25 179.95 196.18 177.45 193.09 174.97 C 198.39 164.71 203.63 154.41 208.98 144.16 C 229.64 144.21 250.30 144.02 270.97 144.13 C 272.58 144.16 274.18 143.95 275.78 143.72 C 276.05 142.52 276.35 141.33 276.42 140.11 C 277.12 129.10 277.93 118.10 278.70 107.10 Z" />
<path fill="#9ec456" opacity="1.00" d=" M 141.86 152.16 C 145.38 150.77 148.87 149.31 152.48 148.14 C 164.00 157.60 175.66 166.88 187.30 176.20 C 181.03 188.49 174.67 200.73 168.38 213.01 C 162.49 205.08 156.78 197.01 150.87 189.10 C 149.93 187.26 147.13 187.92 146.85 189.90 C 138.80 210.82 130.92 231.82 122.99 252.79 C 122.25 254.38 122.01 256.38 120.74 257.63 C 113.72 258.99 106.60 259.88 99.52 260.96 C 98.41 232.33 99.18 203.67 98.92 175.02 C 99.11 172.94 98.45 170.54 99.45 168.66 C 110.01 164.31 120.77 160.40 131.39 156.17 C 132.69 158.29 134.08 160.35 135.48 162.41 C 137.63 159.01 139.76 155.59 141.86 152.16 Z" />
<path fill="#9ec456" opacity="1.00" d=" M 251.34 188.46 C 267.30 180.16 283.25 171.85 299.21 163.57 C 299.98 169.02 301.19 174.45 301.08 179.99 C 300.98 193.88 301.18 207.77 300.98 221.65 C 284.29 221.67 267.60 221.65 250.91 221.66 C 252.75 217.08 254.59 212.45 255.42 207.57 C 256.34 200.97 254.65 194.18 251.34 188.46 Z" />
<path fill="#9ec456" opacity="1.00" d=" M 171.38 217.15 C 177.88 204.47 184.42 191.80 190.96 179.13 C 193.76 181.38 196.62 183.58 199.35 185.92 C 195.00 191.89 192.72 199.43 193.47 206.81 C 194.20 211.95 196.15 216.81 198.09 221.59 C 195.70 221.98 192.21 220.47 190.72 223.00 C 190.90 230.64 191.82 238.26 192.23 245.89 C 185.22 236.35 178.33 226.73 171.38 217.15 Z" />
<path fill="#9ec456" opacity="1.00" d=" M 149.61 194.86 C 155.22 202.26 160.51 209.91 165.99 217.40 C 150.71 247.93 134.87 278.18 119.22 308.51 C 113.18 308.28 107.13 308.09 101.09 307.76 C 100.54 293.66 100.17 279.56 99.64 265.47 C 107.40 264.12 115.23 263.14 122.99 261.78 C 124.40 261.77 124.73 260.32 125.20 259.29 C 133.32 237.81 141.46 216.34 149.61 194.86 Z" />
<path fill="#9ec456" opacity="1.00" d=" M 168.73 222.33 C 168.90 222.30 169.23 222.23 169.40 222.20 C 177.31 233.08 185.13 244.03 193.10 254.88 C 193.99 256.87 197.32 256.27 197.29 254.03 C 196.93 244.68 195.81 235.37 195.44 226.02 C 196.99 226.06 198.55 226.10 200.10 226.13 C 207.09 241.10 215.59 255.32 224.47 269.24 C 233.47 255.32 241.93 241.00 248.99 225.98 C 266.34 225.98 283.70 225.77 301.05 226.09 C 301.07 239.86 301.06 253.64 301.05 267.41 C 286.84 260.88 272.72 254.14 258.50 247.62 C 256.95 246.48 254.66 247.95 255.13 249.86 C 255.45 263.35 256.07 276.83 256.44 290.32 C 227.98 289.57 199.52 288.73 171.06 288.15 C 169.51 287.97 168.38 289.47 168.76 290.94 C 169.06 297.27 169.55 303.60 169.94 309.93 C 154.67 310.56 139.39 309.08 124.11 308.69 C 139.02 279.92 153.69 251.02 168.73 222.33 Z" />
<path fill="#9ec456" opacity="1.00" d=" M 259.58 252.95 C 273.39 259.32 287.13 265.83 300.93 272.20 C 301.19 284.75 301.05 297.32 301.01 309.88 C 279.33 309.18 257.67 308.13 235.99 307.36 C 215.47 308.03 194.96 309.00 174.44 309.75 C 174.12 304.07 173.72 298.40 173.41 292.73 C 201.64 293.38 229.86 294.16 258.08 294.71 C 259.70 295.05 261.23 293.74 260.84 292.05 C 260.53 279.02 259.93 265.99 259.58 252.95 Z" />
</g>
</svg>
