<?xml version="1.0" encoding="UTF-8" ?>
<!DOCTYPE svg PUBLIC "-//W3C//DTD SVG 1.1//EN" "http://www.w3.org/Graphics/SVG/1.1/DTD/svg11.dtd">
<svg width="512pt" height="512pt" viewBox="0 0 512 512" version="1.1" xmlns="http://www.w3.org/2000/svg">
<g id="#545859ff">
<path fill="#545859" opacity="1.00" d=" M 0.00 180.16 C 1.61 169.99 12.26 163.96 21.92 164.15 C 177.95 164.11 333.98 164.12 490.00 164.14 C 499.61 163.98 510.13 169.86 512.00 179.90 L 512.00 331.47 C 510.62 341.81 499.81 347.93 490.09 347.84 C 338.07 347.89 186.04 347.85 34.02 347.86 C 27.99 347.69 21.86 348.38 15.91 347.13 C 8.29 345.48 1.09 339.67 0.00 331.61 L 0.00 180.16 M 19.23 172.36 C 13.15 174.69 11.13 182.02 11.08 187.96 C 10.95 232.99 11.09 278.02 11.01 323.05 C 11.04 328.31 12.19 334.08 16.17 337.85 C 17.94 339.65 20.55 339.95 22.94 339.90 C 92.65 339.89 162.36 339.87 232.07 339.91 C 239.59 340.07 242.75 331.29 242.96 325.02 C 243.05 279.34 242.97 233.66 243.01 187.98 C 242.94 183.43 241.74 178.73 238.83 175.14 C 237.20 173.10 234.65 171.87 232.02 172.09 C 163.36 172.10 94.70 172.09 26.04 172.10 C 23.77 172.12 21.47 171.90 19.23 172.36 M 305.14 217.15 C 292.59 218.27 281.34 226.42 275.24 237.27 C 270.75 245.36 269.65 255.08 271.36 264.10 C 273.40 274.70 280.46 283.95 289.57 289.56 C 297.62 294.61 307.63 295.93 316.90 294.38 C 328.05 292.50 337.77 285.03 343.53 275.45 C 349.16 266.13 350.01 254.38 346.96 244.04 C 341.49 226.83 323.22 214.60 305.14 217.15 M 361.39 222.06 C 361.31 244.38 361.40 266.71 361.34 289.02 C 361.22 291.05 361.92 293.26 363.82 294.28 C 366.74 296.11 371.24 294.26 371.58 290.71 C 371.96 280.86 371.55 270.99 371.75 261.14 C 380.52 261.14 389.28 261.12 398.05 261.17 C 400.22 261.11 402.86 261.32 404.35 259.38 C 407.05 256.54 405.03 251.04 401.06 250.86 C 391.27 250.63 381.47 250.83 371.69 250.77 C 371.79 242.91 371.64 235.05 371.77 227.19 C 384.18 227.42 396.59 227.19 409.00 227.31 C 411.23 227.27 413.92 227.52 415.52 225.60 C 418.39 222.69 416.27 216.84 412.02 216.97 C 397.01 216.86 381.99 216.94 366.98 216.93 C 364.07 216.60 361.22 219.08 361.39 222.06 M 428.96 221.92 C 428.85 243.94 428.97 265.97 428.90 287.99 C 428.79 290.36 429.15 293.22 431.55 294.39 C 434.71 296.34 439.38 293.75 439.18 289.98 C 439.28 280.37 439.20 270.75 439.21 261.14 C 448.80 261.10 458.39 261.21 467.98 261.10 C 470.73 261.24 473.19 258.72 473.16 256.00 C 473.22 253.26 470.75 250.79 468.01 250.81 C 458.42 250.67 448.82 250.83 439.22 250.76 C 439.21 242.93 439.21 235.11 439.23 227.28 C 452.50 227.26 465.78 227.33 479.06 227.26 C 481.96 227.49 484.64 224.89 484.42 221.97 C 484.47 219.17 481.88 216.79 479.11 216.96 C 464.06 216.89 449.01 216.90 433.97 216.95 C 431.27 216.76 428.83 219.24 428.96 221.92 Z" />
<path fill="#545859" opacity="1.00" d=" M 101.39 225.43 C 103.93 224.50 107.69 226.05 107.49 229.12 C 107.57 246.43 107.47 263.74 107.54 281.05 C 107.54 282.77 107.61 284.97 105.79 285.87 C 103.27 287.62 98.54 286.38 98.51 282.91 C 98.50 264.99 98.46 247.06 98.53 229.14 C 98.36 227.36 99.75 225.88 101.39 225.43 Z" />
<path fill="#545859" opacity="1.00" d=" M 125.39 225.43 C 127.90 224.52 131.70 226.02 131.52 229.06 C 131.52 247.01 131.59 264.96 131.49 282.91 C 131.48 287.89 122.53 287.89 122.56 282.90 C 122.45 265.26 122.55 247.61 122.51 229.98 C 122.24 227.97 123.33 225.90 125.39 225.43 Z" />
<path fill="#545859" opacity="1.00" d=" M 149.36 225.44 C 151.89 224.50 155.68 225.95 155.51 229.04 C 155.58 247.02 155.56 265.01 155.51 282.99 C 155.47 287.96 146.51 287.84 146.56 282.88 C 146.44 265.26 146.57 247.64 146.50 230.02 C 146.25 228.02 147.29 225.93 149.36 225.44 Z" />
<path fill="#545859" opacity="1.00" d=" M 306.28 227.44 C 321.95 225.11 337.76 238.13 338.24 253.99 C 339.98 269.84 325.92 285.06 310.02 284.68 C 294.58 285.45 280.44 271.49 280.89 256.06 C 280.41 241.91 292.24 228.72 306.28 227.44 Z" />
</g>
</svg>
