<?xml version="1.0" encoding="UTF-8" ?>
<!DOCTYPE svg PUBLIC "-//W3C//DTD SVG 1.1//EN" "http://www.w3.org/Graphics/SVG/1.1/DTD/svg11.dtd">
<svg width="512pt" height="512pt" viewBox="0 0 512 512" version="1.1" xmlns="http://www.w3.org/2000/svg">
<g id="#545859ff">
<path fill="#545859" opacity="1.00" d=" M 0.00 180.61 C 1.22 170.17 12.17 163.95 21.94 164.15 C 175.61 164.09 329.29 164.15 482.96 164.12 C 488.65 164.13 494.60 163.71 499.94 166.09 C 505.97 168.45 511.05 173.69 512.00 180.27 L 512.00 331.10 C 511.38 337.90 506.15 343.40 500.00 345.83 C 494.97 348.08 489.36 347.92 483.98 347.87 C 329.96 347.83 175.94 347.90 21.92 347.83 C 12.17 347.99 1.26 341.79 0.00 331.39 L 0.00 180.61 M 277.21 172.33 C 271.01 174.54 269.00 182.04 268.90 187.99 C 268.87 232.98 268.91 277.97 268.88 322.96 C 268.88 328.50 270.16 334.75 274.71 338.39 C 276.72 340.13 279.50 339.82 281.97 339.89 C 351.36 339.89 420.76 339.87 490.15 339.90 C 492.74 340.05 495.19 338.74 496.78 336.75 C 499.90 332.93 500.93 327.82 500.87 322.99 C 500.85 277.67 500.93 232.35 500.84 187.03 C 500.57 180.86 497.59 171.99 490.11 172.11 C 421.43 172.07 352.74 172.11 284.06 172.09 C 281.78 172.10 279.47 171.91 277.21 172.33 M 91.26 217.22 C 78.84 218.64 67.76 226.86 61.84 237.73 C 57.22 246.17 56.36 256.33 58.50 265.62 C 60.64 274.70 66.53 282.61 74.03 288.01 C 83.49 294.96 96.23 296.73 107.43 293.56 C 116.17 291.16 123.69 285.24 128.86 277.88 C 135.07 269.07 136.79 257.58 134.57 247.15 C 132.40 236.80 125.35 227.87 116.45 222.36 C 109.01 217.69 99.90 216.22 91.26 217.22 M 148.42 221.93 C 148.34 243.96 148.44 266.00 148.37 288.03 C 148.26 290.30 148.59 292.93 150.72 294.23 C 153.83 296.52 158.85 293.95 158.72 290.06 C 158.82 272.51 158.68 254.96 158.79 237.41 C 173.33 255.85 187.64 274.49 202.14 292.97 C 204.69 296.79 211.78 294.85 211.41 290.03 C 211.56 267.69 211.42 245.34 211.47 223.00 C 211.67 220.79 210.64 218.50 208.61 217.48 C 205.46 215.64 201.03 218.32 201.15 221.95 C 201.06 239.59 201.13 257.25 201.11 274.89 C 186.68 256.31 172.26 237.71 157.77 219.17 C 155.29 215.04 148.12 217.03 148.42 221.93 Z" />
<path fill="#545859" opacity="1.00" d=" M 359.37 225.38 C 361.90 224.55 365.55 226.11 365.36 229.14 C 365.40 247.05 365.44 264.97 365.34 282.88 C 365.37 287.86 356.40 287.87 356.39 282.94 C 356.34 265.01 356.33 247.07 356.39 229.14 C 356.20 227.31 357.68 225.79 359.37 225.38 Z" />
<path fill="#545859" opacity="1.00" d=" M 383.28 225.42 C 385.81 224.52 389.56 226.06 389.40 229.11 C 389.38 247.03 389.47 264.95 389.36 282.87 C 389.40 286.37 384.63 287.62 382.11 285.88 C 380.29 284.97 380.32 282.78 380.34 281.06 C 380.45 263.72 380.29 246.38 380.41 229.04 C 380.26 227.29 381.67 225.85 383.28 225.42 Z" />
<path fill="#545859" opacity="1.00" d=" M 407.30 225.41 C 409.73 224.59 413.48 225.91 413.38 228.90 C 413.40 246.96 413.47 265.03 413.35 283.09 C 413.19 287.95 404.35 287.75 404.43 282.86 C 404.32 265.23 404.43 247.59 404.39 229.96 C 404.10 227.93 405.23 225.87 407.30 225.41 Z" />
<path fill="#545859" opacity="1.00" d=" M 92.41 227.50 C 101.37 226.29 110.86 229.30 117.04 236.00 C 126.22 244.90 127.85 260.24 121.00 270.98 C 116.47 278.15 108.84 283.51 100.32 284.46 C 91.23 285.73 81.59 282.45 75.44 275.56 C 65.57 265.57 65.16 248.00 74.47 237.50 C 78.98 232.15 85.40 228.32 92.41 227.50 Z" />
</g>
</svg>
