<?xml version="1.0" encoding="UTF-8" ?>
<!DOCTYPE svg PUBLIC "-//W3C//DTD SVG 1.1//EN" "http://www.w3.org/Graphics/SVG/1.1/DTD/svg11.dtd">
<svg width="280pt" height="280pt" viewBox="0 0 280 280" version="1.1" xmlns="http://www.w3.org/2000/svg">
<g id="#1b0707d8">
<path fill="#1b0707" opacity="0.85" d=" M 117.01 54.96 C 134.01 55.16 151.02 54.75 168.01 55.17 C 167.83 57.25 167.31 59.34 166.18 61.13 C 162.49 62.63 158.37 63.56 155.45 66.47 C 150.81 71.03 148.78 77.49 147.36 83.67 C 150.68 84.60 148.30 87.09 146.54 88.04 C 144.21 101.62 143.64 115.43 142.20 129.12 C 140.88 146.69 138.88 164.20 137.77 181.78 C 153.96 155.70 169.41 129.14 185.38 102.93 L 186.45 102.60 C 186.14 103.28 185.52 104.64 185.21 105.32 C 169.37 131.99 153.09 158.41 137.47 185.21 C 137.14 185.44 136.48 185.90 136.15 186.14 C 137.72 168.05 139.36 149.96 140.90 131.87 C 142.33 117.13 143.23 102.33 145.34 87.66 C 136.59 89.56 131.39 97.48 125.68 103.64 C 124.07 105.48 122.17 107.39 122.28 110.05 C 119.54 145.55 116.59 181.04 113.94 216.55 C 113.91 217.16 113.84 218.39 113.80 219.00 C 116.10 218.98 118.40 218.95 120.70 218.90 C 142.16 183.33 163.80 147.88 185.36 112.37 C 192.53 100.62 199.59 88.77 207.82 77.72 C 210.13 74.81 212.16 71.53 215.38 69.53 C 214.27 72.18 211.92 73.99 210.29 76.29 C 200.31 89.32 192.09 103.57 183.53 117.54 C 178.35 126.08 173.13 134.59 168.01 143.16 C 187.94 129.22 213.17 124.56 237.12 126.22 L 239.73 126.09 C 239.54 126.33 239.16 126.82 238.96 127.06 C 237.54 127.18 236.12 127.26 234.69 127.28 C 229.65 126.82 224.56 126.83 219.52 127.27 C 201.93 128.57 183.88 133.02 169.53 143.71 C 164.12 147.31 162.22 153.87 158.72 159.04 C 158.51 159.37 158.09 160.03 157.89 160.36 C 155.13 164.50 152.55 168.74 149.98 172.99 C 147.53 177.03 148.01 182.02 148.56 186.51 C 149.88 195.11 155.76 202.50 163.25 206.69 C 173.47 212.52 185.45 214.16 197.02 214.73 C 212.69 215.13 229.36 213.46 242.82 204.75 C 246.06 202.22 250.17 199.76 251.15 195.47 C 251.33 194.83 251.70 193.53 251.88 192.89 C 251.02 193.56 249.29 194.91 248.43 195.58 C 249.69 192.86 251.21 190.11 253.47 188.10 C 252.73 191.34 252.31 194.64 251.77 197.92 C 245.44 206.51 235.12 211.05 224.99 213.43 C 210.55 216.71 195.41 216.73 180.87 214.11 C 169.90 212.10 158.48 207.54 151.96 198.02 C 147.76 192.31 146.91 184.99 147.01 178.10 C 138.26 191.83 130.06 205.92 121.55 219.81 C 118.64 219.97 115.73 220.00 112.82 220.01 C 115.07 183.07 118.80 146.19 121.16 109.25 C 118.10 112.10 116.10 115.90 112.84 118.55 L 113.02 117.90 C 113.57 116.58 114.31 115.35 115.25 114.27 C 120.89 107.57 126.21 100.57 132.32 94.28 C 134.65 91.93 137.12 89.64 140.07 88.08 C 142.63 86.72 145.83 86.99 148.18 85.17 C 146.20 85.09 144.22 85.06 142.24 85.13 C 135.90 85.11 129.56 84.96 123.21 85.07 C 121.62 85.05 120.04 85.28 118.50 85.64 C 118.49 82.99 121.52 84.35 123.05 83.89 C 123.41 77.90 124.20 71.68 122.47 65.84 C 121.42 62.60 117.67 62.09 114.97 60.88 C 115.41 58.83 116.10 56.85 117.01 54.96 M 116.91 58.49 L 115.99 58.68 C 116.28 60.91 118.87 60.87 120.37 61.88 C 123.00 62.94 123.76 65.90 124.39 68.37 L 124.49 68.46 C 124.44 73.75 124.15 79.04 124.33 84.32 L 126.28 83.97 C 132.89 83.85 139.51 83.91 146.12 83.93 C 147.67 77.38 149.67 70.49 154.65 65.68 C 157.34 62.99 161.01 61.77 164.51 60.54 C 166.37 59.91 166.58 57.46 166.53 55.79 L 165.40 56.37 C 150.28 55.65 135.12 56.33 119.98 56.01 C 118.18 55.52 116.87 56.63 116.91 58.49 Z" />
<path fill="#1b0707" opacity="0.85" d=" M 195.17 55.08 C 205.12 54.87 215.09 55.09 225.05 54.99 C 227.34 55.03 229.72 54.69 231.89 55.61 C 231.32 57.44 230.71 59.25 230.04 61.04 C 226.65 62.48 223.18 63.90 220.28 66.22 C 218.75 67.35 217.39 68.80 215.52 69.39 C 218.66 64.64 224.22 62.64 229.00 60.04 C 229.69 58.82 230.09 57.47 230.59 56.17 L 229.29 56.27 C 218.02 55.94 206.74 56.00 195.47 56.17 C 195.28 56.71 194.90 57.79 194.71 58.33 L 194.45 59.00 L 194.04 60.05 C 197.08 61.47 200.49 63.18 201.18 66.84 C 201.20 68.40 201.18 69.97 201.20 71.54 C 198.69 82.13 193.31 91.85 187.55 100.97 L 186.48 101.25 C 190.67 93.36 195.46 85.70 198.42 77.22 C 199.60 73.70 200.64 69.88 199.74 66.17 C 198.82 63.14 195.42 62.27 192.94 60.90 C 193.51 58.94 193.59 56.54 195.17 55.08 Z" />
<path fill="#1b0707" opacity="0.85" d=" M 10.93 86.81 C 11.27 85.76 11.31 83.74 12.94 84.00 C 25.98 84.01 39.04 83.78 52.07 84.13 C 51.92 85.18 51.68 86.20 51.34 87.20 C 47.48 87.36 43.09 87.28 40.08 90.10 C 37.30 92.58 36.58 96.45 36.66 100.02 C 36.68 115.69 36.65 131.36 36.68 147.03 C 46.58 134.72 55.51 121.61 65.00 108.98 C 68.55 103.62 73.82 97.83 72.30 90.90 C 71.72 87.70 67.99 87.61 65.45 87.15 C 63.22 87.26 64.29 83.55 66.07 83.99 C 79.36 84.03 92.65 83.76 105.93 84.14 C 105.72 85.16 105.50 86.18 105.27 87.19 C 100.38 86.95 95.19 88.00 91.82 91.84 C 91.64 91.63 91.29 91.22 91.11 91.01 C 91.12 90.73 91.13 90.17 91.13 89.89 C 94.02 88.64 96.70 86.54 99.97 86.51 C 101.71 86.21 103.78 86.59 105.13 85.18 C 102.16 85.00 99.18 85.02 96.21 85.13 C 87.70 85.00 79.18 85.03 70.66 85.02 C 68.77 85.02 66.89 85.09 65.01 85.23 C 66.67 86.49 68.81 86.53 70.78 86.85 C 72.69 88.53 73.65 90.86 74.10 93.32 C 73.47 97.61 71.49 101.52 69.19 105.13 C 58.06 120.20 47.28 135.56 35.76 150.33 C 35.54 132.90 35.64 115.47 35.59 98.04 C 35.32 92.57 39.55 86.99 45.16 86.62 C 47.20 86.23 49.59 86.76 51.27 85.27 C 48.28 84.98 45.28 85.01 42.28 85.13 C 34.04 85.11 25.79 84.79 17.56 85.23 C 15.96 85.07 13.89 84.42 12.67 85.86 C 13.40 86.02 14.85 86.34 15.57 86.50 C 18.76 87.18 20.89 89.70 21.51 92.83 C 21.75 117.08 21.73 141.33 21.99 165.58 C 22.02 166.75 22.05 167.93 22.08 169.10 C 25.20 169.17 26.56 166.22 28.19 164.09 C 40.89 146.86 53.70 129.72 66.43 112.50 C 68.56 109.49 71.29 106.78 72.40 103.16 C 72.76 104.75 73.08 106.36 73.02 108.00 C 71.58 120.72 71.49 133.58 69.71 146.26 C 68.96 144.57 69.34 142.71 69.43 140.95 C 70.27 129.85 71.05 118.75 71.89 107.66 C 71.05 108.54 70.21 109.45 69.47 110.42 C 54.84 130.16 40.19 149.89 25.53 169.62 C 24.05 169.68 22.56 169.74 21.07 169.80 C 20.60 145.87 20.70 121.91 20.58 97.98 C 20.37 95.05 20.60 91.75 18.71 89.30 C 16.51 87.55 13.58 87.40 10.93 86.81 Z" />
<path fill="#1b0707" opacity="0.85" d=" M 118.53 86.39 C 121.84 86.15 125.49 86.62 127.08 89.93 C 126.68 91.84 126.30 93.76 125.93 95.68 C 125.55 95.04 125.17 94.39 124.81 93.74 C 125.86 91.82 125.54 89.84 124.20 88.20 C 123.78 91.11 123.47 94.02 123.07 96.93 L 123.91 95.37 C 124.38 95.95 124.85 96.53 125.31 97.12 C 123.56 99.23 122.11 101.56 120.81 103.97 C 119.62 104.69 118.86 105.88 118.60 107.24 C 118.51 107.36 118.32 107.60 118.23 107.72 C 117.68 108.10 116.59 108.85 116.04 109.23 C 117.00 105.31 120.99 102.95 122.09 99.09 C 122.61 95.38 122.66 91.62 122.90 87.88 C 121.40 87.51 119.80 87.33 118.53 86.39 Z" />
<path fill="#1b0707" opacity="0.85" d=" M 86.89 103.00 C 87.46 99.15 87.39 94.40 90.82 91.82 C 90.82 92.46 90.82 93.72 90.82 94.36 C 88.51 95.79 88.74 98.83 88.23 101.18 C 86.72 116.17 85.33 131.17 83.85 146.16 C 84.17 146.59 84.80 147.45 85.12 147.87 C 84.26 149.01 83.35 150.11 82.39 151.18 C 83.64 135.10 85.47 119.07 86.89 103.00 Z" />
<path fill="#1b0707" opacity="0.85" d=" M 106.71 124.81 C 108.38 122.81 109.80 120.55 111.86 118.93 L 112.57 118.68 C 111.97 119.98 111.22 121.19 110.31 122.30 C 97.38 138.10 84.56 154.01 71.60 169.80 C 70.20 169.74 68.79 169.69 67.38 169.63 C 67.68 163.39 68.33 157.17 68.65 150.94 C 68.86 149.37 68.54 147.54 69.71 146.27 C 70.00 152.76 68.81 159.19 68.68 165.67 C 68.65 166.89 68.66 168.13 68.70 169.36 C 70.29 168.84 71.73 167.96 72.71 166.58 C 84.00 152.62 95.39 138.75 106.71 124.81 Z" />
<path fill="#1b0707" opacity="0.85" d=" M 239.88 127.32 C 247.02 126.61 253.83 130.21 260.90 130.86 C 263.26 130.83 264.84 128.83 266.65 127.61 C 267.79 127.40 268.91 127.97 270.03 128.14 C 268.68 137.90 266.08 147.46 263.89 157.06 C 262.63 157.03 261.38 157.00 260.12 156.96 C 258.12 151.44 257.25 145.31 253.46 140.61 C 247.43 133.04 237.49 129.60 228.03 129.78 C 216.08 129.54 204.32 133.78 194.78 140.86 C 193.43 141.82 192.12 142.96 190.46 143.37 C 193.10 139.95 197.03 137.92 200.65 135.73 C 211.27 129.61 224.01 127.55 236.08 129.37 C 243.62 130.49 250.66 134.72 255.16 140.88 C 258.38 145.34 259.06 150.96 261.06 155.97 C 261.52 155.95 262.42 155.91 262.88 155.89 C 265.25 146.87 267.06 137.70 269.07 128.59 L 268.23 128.83 C 265.03 129.45 262.61 132.85 259.06 131.71 C 252.68 130.23 246.16 129.15 239.88 127.32 Z" />
<path fill="#1b0707" opacity="0.85" d=" M 176.10 160.03 C 179.61 153.81 183.95 147.62 190.01 143.67 C 189.69 145.25 188.20 146.11 187.19 147.22 C 177.69 156.21 171.88 168.91 171.24 181.97 C 171.40 190.34 175.08 199.06 182.44 203.55 C 193.85 210.67 208.08 210.87 221.01 209.09 C 227.11 208.35 232.69 205.72 238.49 203.97 C 237.35 204.90 236.18 205.82 234.97 206.67 C 224.37 210.21 213.10 211.96 201.94 210.80 C 193.74 209.99 185.22 207.92 178.77 202.54 C 175.23 198.72 172.02 194.32 171.04 189.10 C 169.02 179.21 171.61 168.89 176.10 160.03 Z" />
<path fill="#1b0707" opacity="0.85" d=" M 246.29 198.33 C 245.92 196.67 246.56 195.96 248.21 196.20 C 248.00 197.30 247.36 198.01 246.29 198.33 Z" />
</g>
<g id="#df7e7eff">
<path fill="#df7e7e" opacity="1.00" d=" M 116.91 58.49 C 116.87 56.63 118.18 55.52 119.98 56.01 C 135.12 56.33 150.28 55.65 165.40 56.37 C 163.50 57.40 161.46 58.13 159.35 58.58 C 145.21 58.33 131.04 58.30 116.91 58.49 Z" />
<path fill="#df7e7e" opacity="1.00" d=" M 195.47 56.17 C 206.74 56.00 218.02 55.94 229.29 56.27 C 227.65 57.04 226.05 57.90 224.31 58.44 C 214.44 58.42 204.58 58.42 194.71 58.33 C 194.90 57.79 195.28 56.71 195.47 56.17 Z" />
<path fill="#df7e7e" opacity="1.00" d=" M 201.20 71.54 C 201.71 74.36 201.74 77.25 201.15 80.07 C 193.21 95.22 184.06 109.67 175.30 124.35 C 164.40 142.42 153.47 160.46 142.60 178.55 C 141.13 180.93 139.95 183.68 137.47 185.21 C 153.09 158.41 169.37 131.99 185.21 105.32 C 185.52 104.64 186.14 103.28 186.45 102.60 C 186.54 102.40 186.71 101.99 186.80 101.79 C 186.99 101.58 187.36 101.17 187.55 100.97 C 193.31 91.85 198.69 82.13 201.20 71.54 Z" />
<path fill="#df7e7e" opacity="1.00" d=" M 17.56 85.23 C 25.79 84.79 34.04 85.11 42.28 85.13 C 35.96 88.18 28.85 87.97 22.03 87.43 C 20.36 87.04 18.80 86.32 17.21 85.73 L 17.56 85.23 Z" />
<path fill="#df7e7e" opacity="1.00" d=" M 70.66 85.02 C 79.18 85.03 87.70 85.00 96.21 85.13 C 88.99 88.34 80.92 88.04 73.22 87.21 C 72.36 86.49 71.50 85.76 70.66 85.02 Z" />
<path fill="#df7e7e" opacity="1.00" d=" M 123.21 85.07 C 129.56 84.96 135.90 85.11 142.24 85.13 C 136.13 86.98 128.79 89.77 123.21 85.07 Z" />
<path fill="#df7e7e" opacity="1.00" d=" M 74.10 93.32 C 74.45 93.75 75.14 94.60 75.49 95.03 C 76.06 98.17 74.79 101.14 72.40 103.16 C 71.60 103.66 69.99 104.64 69.19 105.13 C 71.49 101.52 73.47 97.61 74.10 93.32 Z" />
<path fill="#df7e7e" opacity="1.00" d=" M 116.04 109.23 C 116.59 108.85 117.68 108.10 118.23 107.72 C 109.55 118.50 100.61 129.10 91.96 139.92 C 90.20 142.04 88.84 144.67 86.27 145.93 C 88.44 143.21 90.64 140.52 92.79 137.78 C 97.11 132.43 101.52 127.15 105.78 121.75 C 107.12 120.09 108.53 118.49 109.81 116.78 C 111.23 114.91 112.82 113.17 114.27 111.32 C 114.81 110.59 115.29 109.77 116.04 109.23 Z" />
<path fill="#df7e7e" opacity="1.00" d=" M 169.53 143.71 C 183.88 133.02 201.93 128.57 219.52 127.27 C 213.58 128.63 207.52 129.60 201.80 131.80 C 190.21 136.20 178.02 140.14 168.53 148.46 C 164.81 151.56 161.94 155.46 158.72 159.04 C 162.22 153.87 164.12 147.31 169.53 143.71 Z" />
<path fill="#df7e7e" opacity="1.00" d=" M 234.69 127.28 C 236.12 127.26 237.54 127.18 238.96 127.06 L 239.88 127.32 C 246.16 129.15 252.68 130.23 259.06 131.71 C 262.61 132.85 265.03 129.45 268.23 128.83 C 266.70 130.76 265.17 132.70 263.54 134.55 C 258.61 134.99 253.92 133.42 249.50 131.44 C 244.80 129.22 239.49 129.19 234.69 127.28 Z" />
<path fill="#df7e7e" opacity="1.00" d=" M 176.69 203.37 C 177.21 203.16 178.25 202.75 178.77 202.54 C 185.22 207.92 193.74 209.99 201.94 210.80 C 213.10 211.96 224.37 210.21 234.97 206.67 C 231.13 209.21 226.48 209.93 222.07 210.89 C 210.25 212.80 197.79 213.08 186.34 209.14 C 182.65 208.05 179.90 205.31 176.69 203.37 Z" />
</g>
<g id="#ce0000ff">
<path fill="#ce0000" opacity="1.00" d=" M 165.40 56.37 L 166.53 55.79 C 166.58 57.46 166.37 59.91 164.51 60.54 C 161.01 61.77 157.34 62.99 154.65 65.68 C 149.67 70.49 147.67 77.38 146.12 83.93 C 139.51 83.91 132.89 83.85 126.28 83.97 C 127.99 80.24 127.58 75.96 127.14 72.00 C 127.02 70.37 125.51 69.50 124.49 68.46 L 124.39 68.37 C 123.76 65.90 123.00 62.94 120.37 61.88 C 118.87 60.87 116.28 60.91 115.99 58.68 C 124.00 59.42 132.01 59.87 140.06 59.61 C 146.48 59.35 153.08 60.42 159.35 58.58 C 161.46 58.13 163.50 57.40 165.40 56.37 Z" />
<path fill="#ce0000" opacity="1.00" d=" M 229.29 56.27 L 230.59 56.17 C 230.09 57.47 229.69 58.82 229.00 60.04 C 224.22 62.64 218.66 64.64 215.52 69.39 L 215.47 69.46 L 215.38 69.53 C 212.16 71.53 210.13 74.81 207.82 77.72 C 199.59 88.77 192.53 100.62 185.36 112.37 C 163.80 147.88 142.16 183.33 120.70 218.90 C 118.40 218.95 116.10 218.98 113.80 219.00 C 113.84 218.39 113.91 217.16 113.94 216.55 C 115.26 215.55 117.63 214.94 117.41 212.86 C 119.71 183.25 122.03 153.64 124.44 124.04 C 124.60 117.22 125.94 110.48 125.68 103.64 C 131.39 97.48 136.59 89.56 145.34 87.66 C 143.23 102.33 142.33 117.13 140.90 131.87 C 139.36 149.96 137.72 168.05 136.15 186.14 C 136.48 185.90 137.14 185.44 137.47 185.21 C 139.95 183.68 141.13 180.93 142.60 178.55 C 153.47 160.46 164.40 142.42 175.30 124.35 C 184.06 109.67 193.21 95.22 201.15 80.07 C 203.68 76.42 204.63 71.91 203.75 67.55 C 203.11 67.37 201.82 67.02 201.18 66.84 C 200.49 63.18 197.08 61.47 194.04 60.05 L 194.45 59.00 C 198.96 59.12 203.46 59.74 207.98 59.64 C 213.42 59.46 219.05 60.26 224.31 58.44 C 226.05 57.90 227.65 57.04 229.29 56.27 Z" />
<path fill="#ce0000" opacity="1.00" d=" M 42.28 85.13 C 45.28 85.01 48.28 84.98 51.27 85.27 C 49.59 86.76 47.20 86.23 45.16 86.62 C 39.55 86.99 35.32 92.57 35.59 98.04 C 35.64 115.47 35.54 132.90 35.76 150.33 C 47.28 135.56 58.06 120.20 69.19 105.13 C 69.99 104.64 71.60 103.66 72.40 103.16 C 71.29 106.78 68.56 109.49 66.43 112.50 C 53.70 129.72 40.89 146.86 28.19 164.09 C 26.56 166.22 25.20 169.17 22.08 169.10 C 22.05 167.93 22.02 166.75 21.99 165.58 C 24.79 163.17 24.61 159.41 24.54 156.05 C 24.44 137.00 24.42 117.96 24.43 98.92 C 24.32 96.59 24.60 93.24 21.51 92.83 C 20.89 89.70 18.76 87.18 15.57 86.50 C 15.98 86.31 16.80 85.92 17.21 85.73 C 18.80 86.32 20.36 87.04 22.03 87.43 C 28.85 87.97 35.96 88.18 42.28 85.13 Z" />
<path fill="#ce0000" opacity="1.00" d=" M 96.21 85.13 C 99.18 85.02 102.16 85.00 105.13 85.18 C 103.78 86.59 101.71 86.21 99.97 86.51 C 96.70 86.54 94.02 88.64 91.13 89.89 C 91.13 90.17 91.12 90.73 91.11 91.01 L 90.82 91.82 C 87.39 94.40 87.46 99.15 86.89 103.00 C 85.47 119.07 83.64 135.10 82.39 151.18 C 83.35 150.11 84.26 149.01 85.12 147.87 C 85.24 147.49 85.47 146.73 85.59 146.34 L 86.27 145.93 C 88.84 144.67 90.20 142.04 91.96 139.92 C 100.61 129.10 109.55 118.50 118.23 107.72 C 118.32 107.60 118.51 107.36 118.60 107.24 C 120.14 107.13 121.80 105.52 120.81 103.97 C 125.34 101.22 127.49 95.78 129.38 91.04 C 128.80 90.76 127.66 90.21 127.08 89.93 C 125.49 86.62 121.84 86.15 118.53 86.39 L 117.97 86.37 L 118.50 85.64 C 120.04 85.28 121.62 85.05 123.21 85.07 C 128.79 89.77 136.13 86.98 142.24 85.13 C 144.22 85.06 146.20 85.09 148.18 85.17 C 145.83 86.99 142.63 86.72 140.07 88.08 C 137.12 89.64 134.65 91.93 132.32 94.28 C 126.21 100.57 120.89 107.57 115.25 114.27 C 114.31 115.35 113.57 116.58 113.02 117.90 C 112.73 118.16 112.15 118.67 111.86 118.93 C 109.80 120.55 108.38 122.81 106.71 124.81 C 95.39 138.75 84.00 152.62 72.71 166.58 C 71.73 167.96 70.29 168.84 68.70 169.36 C 68.66 168.13 68.65 166.89 68.68 165.67 C 72.16 162.85 72.54 158.17 72.62 154.03 C 73.73 141.70 74.33 129.33 75.51 117.01 C 75.72 113.05 75.72 109.08 75.71 105.12 C 74.81 106.07 73.91 107.03 73.02 108.00 C 73.08 106.36 72.76 104.75 72.40 103.16 C 74.79 101.14 76.06 98.17 75.49 95.03 C 75.14 94.60 74.45 93.75 74.10 93.32 C 73.65 90.86 72.69 88.53 70.78 86.85 C 71.39 86.94 72.61 87.12 73.22 87.21 C 80.92 88.04 88.99 88.34 96.21 85.13 Z" />
<path fill="#ce0000" opacity="1.00" d=" M 219.52 127.27 C 224.56 126.83 229.65 126.82 234.69 127.28 C 239.49 129.19 244.80 129.22 249.50 131.44 C 253.92 133.42 258.61 134.99 263.54 134.55 C 265.17 132.70 266.70 130.76 268.23 128.83 L 269.07 128.59 C 267.06 137.70 265.25 146.87 262.88 155.89 C 262.42 155.91 261.52 155.95 261.06 155.97 C 259.06 150.96 258.38 145.34 255.16 140.88 C 250.66 134.72 243.62 130.49 236.08 129.37 C 224.01 127.55 211.27 129.61 200.65 135.73 C 197.03 137.92 193.10 139.95 190.46 143.37 L 190.40 143.44 L 190.01 143.67 C 183.95 147.62 179.61 153.81 176.10 160.03 C 171.61 168.89 169.02 179.21 171.04 189.10 C 172.02 194.32 175.23 198.72 178.77 202.54 C 178.25 202.75 177.21 203.16 176.69 203.37 C 179.90 205.31 182.65 208.05 186.34 209.14 C 197.79 213.08 210.25 212.80 222.07 210.89 C 226.48 209.93 231.13 209.21 234.97 206.67 C 237.99 206.88 240.28 204.73 242.63 203.18 C 245.88 201.10 248.48 198.21 251.15 195.47 C 250.17 199.76 246.06 202.22 242.82 204.75 C 229.36 213.46 212.69 215.13 197.02 214.73 C 185.45 214.16 173.47 212.52 163.25 206.69 C 155.76 202.50 149.88 195.11 148.56 186.51 C 150.59 184.08 151.39 181.03 151.51 177.92 C 151.80 171.47 156.60 166.53 157.89 160.36 C 158.09 160.03 158.51 159.37 158.72 159.04 C 161.94 155.46 164.81 151.56 168.53 148.46 C 178.02 140.14 190.21 136.20 201.80 131.80 C 207.52 129.60 213.58 128.63 219.52 127.27 Z" />
</g>
<g id="#cf3939ff">
<path fill="#cf3939" opacity="1.00" d=" M 116.91 58.49 C 131.04 58.30 145.21 58.33 159.35 58.58 C 153.08 60.42 146.48 59.35 140.06 59.61 C 132.01 59.87 124.00 59.42 115.99 58.68 L 116.91 58.49 Z" />
<path fill="#cf3939" opacity="1.00" d=" M 194.71 58.33 C 204.58 58.42 214.44 58.42 224.31 58.44 C 219.05 60.26 213.42 59.46 207.98 59.64 C 203.46 59.74 198.96 59.12 194.45 59.00 L 194.71 58.33 Z" />
<path fill="#cf3939" opacity="1.00" d=" M 201.18 66.84 C 201.82 67.02 203.11 67.37 203.75 67.55 C 204.63 71.91 203.68 76.42 201.15 80.07 C 201.74 77.25 201.71 74.36 201.20 71.54 C 201.18 69.97 201.20 68.40 201.18 66.84 Z" />
<path fill="#cf3939" opacity="1.00" d=" M 124.49 68.46 C 125.51 69.50 127.02 70.37 127.14 72.00 C 127.58 75.96 127.99 80.24 126.28 83.97 L 124.33 84.32 C 124.15 79.04 124.44 73.75 124.49 68.46 Z" />
<path fill="#cf3939" opacity="1.00" d=" M 12.67 85.86 C 13.89 84.42 15.96 85.07 17.56 85.23 L 17.21 85.73 C 16.80 85.92 15.98 86.31 15.57 86.50 C 14.85 86.34 13.40 86.02 12.67 85.86 Z" />
<path fill="#cf3939" opacity="1.00" d=" M 65.01 85.23 C 66.89 85.09 68.77 85.02 70.66 85.02 C 71.50 85.76 72.36 86.49 73.22 87.21 C 72.61 87.12 71.39 86.94 70.78 86.85 C 68.81 86.53 66.67 86.49 65.01 85.23 Z" />
<path fill="#cf3939" opacity="1.00" d=" M 124.20 88.20 C 125.54 89.84 125.86 91.82 124.81 93.74 C 125.17 94.39 125.55 95.04 125.93 95.68 C 126.30 93.76 126.68 91.84 127.08 89.93 C 127.66 90.21 128.80 90.76 129.38 91.04 C 127.49 95.78 125.34 101.22 120.81 103.97 C 122.11 101.56 123.56 99.23 125.31 97.12 C 124.85 96.53 124.38 95.95 123.91 95.37 L 123.07 96.93 C 123.47 94.02 123.78 91.11 124.20 88.20 Z" />
<path fill="#cf3939" opacity="1.00" d=" M 21.51 92.83 C 24.60 93.24 24.32 96.59 24.43 98.92 C 24.42 117.96 24.44 137.00 24.54 156.05 C 24.61 159.41 24.79 163.17 21.99 165.58 C 21.73 141.33 21.75 117.08 21.51 92.83 Z" />
<path fill="#cf3939" opacity="1.00" d=" M 118.60 107.24 C 118.86 105.88 119.62 104.69 120.81 103.97 C 121.80 105.52 120.14 107.13 118.60 107.24 Z" />
<path fill="#cf3939" opacity="1.00" d=" M 122.28 110.05 C 122.17 107.39 124.07 105.48 125.68 103.64 C 125.94 110.48 124.60 117.22 124.44 124.04 C 122.03 153.64 119.71 183.25 117.41 212.86 C 117.63 214.94 115.26 215.55 113.94 216.55 C 116.59 181.04 119.54 145.55 122.28 110.05 Z" />
<path fill="#cf3939" opacity="1.00" d=" M 73.02 108.00 C 73.91 107.03 74.81 106.07 75.71 105.12 C 75.72 109.08 75.72 113.05 75.51 117.01 C 74.33 129.33 73.73 141.70 72.62 154.03 C 72.54 158.17 72.16 162.85 68.68 165.67 C 68.81 159.19 70.00 152.76 69.71 146.27 L 69.71 146.26 C 71.49 133.58 71.58 120.72 73.02 108.00 Z" />
<path fill="#cf3939" opacity="1.00" d=" M 118.23 107.72 C 118.32 107.60 118.51 107.36 118.60 107.24 C 118.51 107.36 118.32 107.60 118.23 107.72 Z" />
<path fill="#cf3939" opacity="1.00" d=" M 149.98 172.99 C 152.55 168.74 155.13 164.50 157.89 160.36 C 156.60 166.53 151.80 171.47 151.51 177.92 C 151.39 181.03 150.59 184.08 148.56 186.51 C 148.01 182.02 147.53 177.03 149.98 172.99 Z" />
<path fill="#cf3939" opacity="1.00" d=" M 248.43 195.58 C 249.29 194.91 251.02 193.56 251.88 192.89 C 251.70 193.53 251.33 194.83 251.15 195.47 C 248.48 198.21 245.88 201.10 242.63 203.18 L 241.17 202.09 C 243.09 201.12 244.38 199.27 246.29 198.33 C 247.36 198.01 248.00 197.30 248.21 196.20 C 248.27 196.05 248.38 195.74 248.43 195.58 Z" />
<path fill="#cf3939" opacity="1.00" d=" M 238.86 203.67 C 240.06 202.43 241.32 202.27 242.63 203.18 C 240.28 204.73 237.99 206.88 234.97 206.67 C 236.18 205.82 237.35 204.90 238.49 203.97 L 238.86 203.67 Z" />
</g>
</svg>
