<?xml version="1.0" encoding="UTF-8" ?>
<!DOCTYPE svg PUBLIC "-//W3C//DTD SVG 1.1//EN" "http://www.w3.org/Graphics/SVG/1.1/DTD/svg11.dtd">
<svg width="400pt" height="400pt" viewBox="0 0 400 400" version="1.1" xmlns="http://www.w3.org/2000/svg">
<g id="#058b3bff">
<path fill="#058b3b" opacity="1.00" d=" M 180.74 5.17 C 193.57 4.89 206.43 4.88 219.26 5.17 C 222.25 6.54 225.70 5.51 228.73 6.75 C 231.05 6.97 233.44 6.97 235.68 7.70 C 236.90 7.91 238.12 8.09 239.34 8.28 C 241.40 8.83 243.51 9.13 245.58 9.65 C 246.92 9.98 248.26 10.30 249.59 10.70 C 250.05 10.85 250.97 11.15 251.43 11.30 C 253.11 11.80 254.82 12.17 256.51 12.63 C 257.53 12.99 258.54 13.37 259.55 13.77 C 260.02 13.89 260.97 14.12 261.44 14.24 C 262.45 14.62 263.47 14.98 264.50 15.33 C 265.83 15.78 267.17 16.21 268.50 16.68 C 269.46 17.01 270.42 17.35 271.38 17.71 C 273.43 18.60 275.52 19.38 277.60 20.21 C 278.53 20.73 279.47 21.27 280.40 21.80 C 282.76 22.74 285.16 23.58 287.47 24.64 C 290.21 26.11 292.76 27.93 295.57 29.28 C 297.60 30.29 299.63 31.33 301.48 32.66 C 303.11 33.72 304.73 34.80 306.43 35.76 C 307.85 36.58 309.22 37.47 310.63 38.29 C 311.54 39.09 312.45 39.90 313.37 40.71 C 314.79 41.54 316.17 42.45 317.60 43.30 C 319.20 44.75 320.79 46.24 322.63 47.39 C 324.59 49.11 326.40 51.02 328.65 52.37 C 332.87 56.13 336.70 60.30 340.75 64.25 C 343.38 66.96 346.37 69.39 348.40 72.63 C 350.10 74.58 351.99 76.40 353.37 78.62 C 354.47 79.89 355.59 81.13 356.72 82.38 C 357.54 83.81 358.45 85.20 359.29 86.63 C 360.09 87.54 360.90 88.45 361.72 89.36 C 362.53 90.78 363.42 92.15 364.24 93.57 C 365.20 95.27 366.27 96.89 367.32 98.54 C 368.19 99.79 369.01 101.07 369.81 102.36 C 370.26 103.45 370.74 104.53 371.20 105.61 C 372.80 108.17 374.42 110.72 375.81 113.40 C 376.62 115.47 377.38 117.54 378.19 119.61 C 378.73 120.54 379.29 121.47 379.85 122.40 C 380.35 123.78 380.85 125.17 381.26 126.58 C 381.78 127.56 382.32 128.53 382.86 129.50 C 382.95 129.98 383.12 130.94 383.21 131.43 C 383.60 132.44 383.98 133.46 384.35 134.49 C 384.68 135.48 385.00 136.48 385.32 137.49 C 385.66 138.48 385.99 139.49 386.32 140.49 C 386.67 141.48 387.01 142.48 387.35 143.48 C 387.81 145.17 388.19 146.88 388.71 148.56 C 388.86 149.02 389.15 149.95 389.30 150.41 C 389.70 151.74 390.02 153.08 390.36 154.43 C 390.87 156.48 391.16 158.58 391.65 160.64 C 391.96 162.34 392.27 164.05 392.75 165.72 C 392.99 168.07 392.88 170.51 393.80 172.73 C 393.96 174.91 394.03 177.09 394.20 179.27 C 395.41 182.02 394.94 185.08 395.02 188.00 C 394.86 198.42 395.23 208.85 394.83 219.26 C 393.46 222.25 394.48 225.69 393.26 228.73 C 393.03 231.04 392.96 233.39 392.39 235.66 C 392.02 237.31 391.73 238.98 391.35 240.64 C 391.04 242.28 390.76 243.94 390.39 245.57 C 390.05 246.92 389.71 248.26 389.29 249.58 C 389.15 250.05 388.87 250.97 388.73 251.44 C 388.18 253.13 387.80 254.87 387.27 256.57 C 387.14 257.04 386.89 257.98 386.76 258.45 C 386.37 259.45 386.00 260.47 385.65 261.49 C 385.32 262.49 385.01 263.50 384.72 264.52 C 384.20 265.86 383.72 267.21 383.20 268.55 C 383.11 269.04 382.95 270.01 382.86 270.50 C 382.32 271.47 381.78 272.44 381.26 273.42 C 380.85 274.83 380.35 276.21 379.84 277.59 C 379.29 278.53 378.75 279.47 378.22 280.41 C 378.00 280.93 377.56 281.96 377.34 282.47 C 376.76 284.17 376.09 285.83 375.37 287.47 C 374.12 289.86 372.58 292.08 371.20 294.39 C 370.74 295.47 370.26 296.55 369.81 297.64 C 369.01 298.93 368.19 300.22 367.32 301.47 C 366.46 302.83 365.56 304.17 364.73 305.56 C 363.78 307.28 362.71 308.93 361.72 310.64 C 360.90 311.54 360.09 312.45 359.29 313.36 C 358.45 314.80 357.54 316.19 356.71 317.63 C 355.59 318.87 354.46 320.11 353.37 321.38 C 351.99 323.60 350.10 325.42 348.39 327.37 C 346.37 330.61 343.38 333.04 340.75 335.74 C 336.70 339.69 332.88 343.87 328.65 347.62 C 326.01 349.27 324.00 351.71 321.39 353.38 C 320.11 354.47 318.87 355.59 317.62 356.71 C 316.19 357.54 314.80 358.45 313.36 359.29 C 312.45 360.09 311.54 360.90 310.64 361.72 C 308.93 362.71 307.27 363.78 305.54 364.72 C 304.52 365.34 303.52 365.99 302.53 366.67 C 300.90 367.71 299.29 368.80 297.63 369.80 C 296.54 370.26 295.46 370.74 294.39 371.21 C 291.83 372.81 289.28 374.42 286.59 375.81 C 284.54 376.61 282.47 377.37 280.44 378.23 C 277.94 379.64 275.29 380.76 272.61 381.76 C 270.91 382.46 269.18 383.11 267.48 383.80 C 267.00 383.91 266.04 384.12 265.56 384.23 C 264.54 384.61 263.52 384.97 262.49 385.31 C 261.15 385.79 259.79 386.25 258.46 386.77 C 257.99 386.90 257.04 387.14 256.57 387.27 C 254.87 387.80 253.13 388.19 251.44 388.72 C 250.97 388.87 250.05 389.15 249.59 389.30 C 248.26 389.70 246.91 390.02 245.57 390.36 C 243.52 390.87 241.42 391.16 239.36 391.64 C 237.65 391.96 235.95 392.27 234.28 392.77 C 232.43 392.93 230.57 393.05 228.72 393.23 C 225.71 394.53 222.24 393.43 219.26 394.83 C 206.43 395.11 193.57 395.11 180.74 394.83 C 178.23 393.69 175.41 394.06 172.74 393.79 C 170.51 392.88 168.07 392.99 165.72 392.75 C 164.05 392.27 162.34 391.96 160.64 391.65 C 158.57 391.16 156.47 390.87 154.42 390.36 C 153.08 390.02 151.73 389.70 150.41 389.30 C 149.95 389.15 149.02 388.85 148.56 388.70 C 146.88 388.19 145.17 387.82 143.48 387.37 C 142.46 387.00 141.45 386.61 140.44 386.22 C 139.97 386.11 139.01 385.91 138.53 385.80 C 137.18 385.24 135.81 384.74 134.46 384.19 C 133.98 384.10 133.01 383.91 132.53 383.81 C 130.82 383.11 129.09 382.46 127.39 381.74 C 125.73 381.08 124.06 380.46 122.40 379.81 C 121.47 379.27 120.54 378.73 119.61 378.19 C 117.54 377.38 115.46 376.62 113.40 375.81 C 110.72 374.42 108.17 372.80 105.61 371.20 C 104.53 370.74 103.45 370.26 102.36 369.81 C 101.07 369.01 99.79 368.19 98.54 367.32 C 96.89 366.27 95.26 365.20 93.57 364.24 C 92.15 363.42 90.78 362.53 89.36 361.71 C 88.45 360.90 87.55 360.09 86.64 359.29 C 85.20 358.45 83.81 357.55 82.38 356.71 C 81.13 355.59 79.89 354.47 78.61 353.38 C 76.00 351.70 73.99 349.27 71.35 347.62 C 64.84 341.50 58.51 335.16 52.38 328.65 C 50.73 326.01 48.29 324.00 46.62 321.39 C 45.53 320.11 44.40 318.87 43.29 317.62 C 42.45 316.19 41.54 314.79 40.71 313.36 C 39.90 312.45 39.09 311.54 38.28 310.64 C 37.29 308.94 36.22 307.28 35.27 305.55 C 34.44 304.17 33.53 302.84 32.66 301.49 C 31.07 299.29 29.87 296.85 28.75 294.39 C 27.62 292.43 26.37 290.54 25.23 288.60 C 24.98 288.10 24.47 287.10 24.22 286.60 C 23.38 284.54 22.62 282.46 21.81 280.39 C 21.26 279.46 20.72 278.53 20.17 277.60 C 19.65 276.24 19.13 274.87 18.67 273.49 C 17.93 271.86 17.23 270.20 16.62 268.52 C 16.30 267.51 15.99 266.51 15.69 265.50 C 15.33 264.51 15.00 263.51 14.67 262.51 C 14.33 261.51 14.00 260.51 13.68 259.51 C 13.32 258.51 12.98 257.51 12.65 256.51 C 12.18 254.82 11.80 253.11 11.29 251.44 C 11.15 250.97 10.85 250.04 10.71 249.58 C 10.28 248.26 9.95 246.92 9.61 245.58 C 9.23 243.94 8.95 242.29 8.65 240.64 C 8.26 238.98 7.98 237.31 7.61 235.66 C 7.04 233.39 6.96 231.04 6.74 228.73 C 5.51 225.69 6.55 222.25 5.17 219.26 C 4.88 206.43 4.89 193.57 5.17 180.74 C 6.54 177.75 5.52 174.30 6.74 171.27 C 6.97 168.95 7.04 166.61 7.61 164.34 C 7.98 162.68 8.26 161.01 8.65 159.36 C 8.95 157.71 9.23 156.05 9.62 154.42 C 9.95 153.08 10.28 151.73 10.71 150.42 C 10.86 149.95 11.15 149.02 11.29 148.56 C 11.80 146.88 12.18 145.17 12.65 143.49 C 12.98 142.48 13.32 141.49 13.68 140.49 C 14.00 139.49 14.33 138.49 14.67 137.49 C 15.00 136.49 15.33 135.48 15.69 134.49 C 15.99 133.48 16.31 132.48 16.64 131.49 C 17.13 130.10 17.68 128.73 18.26 127.38 C 18.91 125.72 19.54 124.05 20.20 122.40 C 20.73 121.46 21.27 120.53 21.80 119.60 C 22.62 117.54 23.38 115.45 24.22 113.40 C 24.47 112.91 24.98 111.91 25.24 111.42 C 26.58 109.09 28.14 106.88 29.28 104.43 C 30.43 101.99 31.81 99.68 33.33 97.46 C 34.20 96.20 35.01 94.90 35.77 93.57 C 36.58 92.15 37.47 90.78 38.28 89.36 C 39.09 88.45 39.90 87.55 40.71 86.64 C 41.54 85.20 42.45 83.81 43.29 82.38 C 44.40 81.13 45.53 79.89 46.62 78.61 C 48.29 76.00 50.74 73.99 52.38 71.35 C 58.50 64.84 64.84 58.50 71.35 52.38 C 73.99 50.73 76.00 48.29 78.62 46.62 C 79.89 45.53 81.13 44.40 82.38 43.29 C 83.81 42.45 85.20 41.54 86.63 40.71 C 87.54 39.90 88.45 39.09 89.36 38.28 C 91.06 37.29 92.72 36.22 94.45 35.26 C 95.83 34.44 97.17 33.54 98.53 32.68 C 99.78 31.81 101.06 30.99 102.36 30.19 C 103.45 29.73 104.53 29.25 105.61 28.79 C 107.92 27.40 110.14 25.89 112.53 24.64 C 114.84 23.59 117.23 22.73 119.60 21.80 C 120.53 21.27 121.46 20.73 122.40 20.21 C 124.47 19.38 126.56 18.60 128.62 17.72 C 129.57 17.35 130.52 17.00 131.49 16.65 C 132.48 16.32 133.49 15.99 134.49 15.68 C 135.49 15.33 136.49 15.00 137.49 14.67 C 138.49 14.33 139.49 14.00 140.49 13.68 C 141.48 13.33 142.48 12.98 143.48 12.65 C 145.17 12.19 146.88 11.81 148.56 11.29 C 149.02 11.14 149.95 10.85 150.41 10.70 C 151.73 10.29 153.08 9.97 154.42 9.65 C 156.49 9.13 158.60 8.83 160.66 8.28 C 161.88 8.09 163.09 7.91 164.31 7.70 C 167.06 6.82 170.04 7.23 172.75 6.21 C 175.41 5.94 178.23 6.30 180.74 5.17 M 98.95 89.91 C 85.91 93.42 75.31 103.11 68.70 114.65 C 61.17 128.45 61.09 145.94 67.92 160.03 C 75.17 173.92 88.72 184.94 104.37 187.53 C 109.87 188.27 115.47 188.24 120.98 187.63 C 133.84 185.80 145.21 178.00 153.10 167.92 C 152.22 170.98 151.80 174.14 151.34 177.28 C 151.20 181.14 151.25 185.01 151.58 188.87 C 152.09 191.52 152.64 194.16 153.21 196.80 L 153.35 196.80 C 154.37 199.84 155.61 202.79 156.97 205.69 L 157.14 205.67 C 159.68 209.87 162.41 214.17 166.35 217.20 C 177.52 229.02 194.96 233.03 210.62 229.91 C 218.22 228.20 225.32 224.61 231.26 219.58 C 234.33 216.82 237.24 213.89 239.83 210.67 C 242.54 206.53 244.89 202.14 246.52 197.46 C 247.59 193.67 248.29 189.80 248.63 185.88 L 248.79 185.94 C 248.75 182.90 248.73 179.87 248.67 176.84 C 248.39 175.08 248.11 173.32 247.76 171.58 C 253.49 176.99 259.59 182.26 267.12 184.95 C 281.72 190.47 299.14 188.99 312.14 180.12 C 321.56 173.48 329.58 164.22 332.87 153.00 C 336.65 140.19 335.65 125.72 328.96 114.04 C 322.30 102.75 311.81 93.30 298.95 89.88 C 285.21 86.42 269.77 87.89 257.82 95.90 C 249.21 101.88 242.09 110.30 238.17 120.05 C 234.49 129.17 234.46 139.23 235.83 148.82 C 226.73 138.42 212.75 132.83 199.00 133.47 C 184.23 133.18 169.88 140.64 161.13 152.44 C 164.18 140.93 163.77 128.21 158.65 117.33 C 151.93 103.58 139.31 92.21 124.05 89.19 C 115.78 87.68 107.10 87.73 98.95 89.91 M 74.49 181.10 C 68.16 186.17 61.96 191.61 57.47 198.42 C 51.48 207.74 46.66 218.04 44.71 229.00 C 44.24 231.34 43.79 233.69 43.22 236.01 C 42.58 239.20 42.04 242.41 41.85 245.66 C 41.38 246.10 40.46 246.97 40.00 247.41 C 40.00 254.94 40.00 262.47 40.00 270.00 C 69.36 269.99 98.71 270.02 128.07 269.99 C 130.00 270.47 130.70 268.55 131.18 267.09 C 134.23 257.21 138.56 247.68 144.03 238.91 C 149.11 233.21 153.89 226.79 160.98 223.43 C 160.98 222.94 160.97 221.96 160.97 221.46 C 156.52 217.61 153.51 212.49 150.82 207.33 C 147.52 200.66 145.11 193.43 144.80 185.94 C 144.27 185.99 143.20 186.10 142.66 186.15 C 132.08 193.26 118.55 196.30 105.97 194.36 C 95.70 192.23 84.96 188.78 77.50 181.04 C 76.49 181.06 75.49 181.08 74.49 181.10 M 323.49 181.05 C 318.86 186.58 311.80 188.60 305.53 191.60 C 300.58 193.55 295.25 194.22 290.01 194.94 C 278.05 195.81 266.61 191.20 256.25 185.69 C 255.64 196.22 251.13 205.92 245.83 214.85 C 244.28 217.36 242.14 219.41 240.04 221.45 C 240.04 221.95 240.02 222.94 240.02 223.43 C 245.10 225.90 249.21 229.87 252.77 234.19 C 262.30 244.05 266.04 257.64 270.98 270.07 C 300.65 269.91 330.32 270.04 360.00 270.00 C 359.98 262.00 360.03 254.00 360.03 246.00 C 360.07 242.86 358.52 240.06 357.80 237.08 C 356.19 230.92 355.42 224.54 353.38 218.49 C 349.17 207.83 343.86 197.39 335.99 188.93 C 332.97 186.13 329.54 183.82 326.48 181.07 C 325.48 181.06 324.48 181.05 323.49 181.05 M 164.58 226.29 C 157.19 231.51 150.68 238.10 145.71 245.67 C 141.24 251.63 139.11 258.87 136.91 265.87 C 135.36 271.20 133.63 276.50 132.71 281.98 C 130.81 290.84 129.59 299.92 130.03 309.00 C 177.01 309.00 223.99 309.00 270.97 309.00 C 271.17 303.65 271.09 298.27 270.10 292.99 C 268.21 277.93 263.75 263.30 257.61 249.44 C 255.07 245.64 252.69 241.72 249.81 238.16 C 247.05 234.59 243.41 231.87 240.11 228.83 C 238.59 227.71 237.12 226.15 235.15 225.96 C 230.57 229.30 225.92 232.71 220.48 234.56 C 212.26 237.00 203.66 238.89 195.04 237.84 C 185.35 236.33 175.24 233.91 167.68 227.28 C 166.82 226.62 165.72 225.31 164.58 226.29 Z" />
</g>
<g id="#3b5998ff">
<path fill="#3b5998" opacity="1.00" d=" M 98.95 89.91 C 107.10 87.73 115.78 87.68 124.05 89.19 C 139.31 92.21 151.93 103.58 158.65 117.33 C 163.77 128.21 164.18 140.93 161.13 152.44 L 160.87 152.82 C 157.67 157.20 155.04 162.00 153.37 167.17 C 153.31 167.36 153.17 167.74 153.10 167.92 C 145.21 178.00 133.84 185.80 120.98 187.63 C 115.47 188.24 109.87 188.27 104.37 187.53 C 88.72 184.94 75.17 173.92 67.92 160.03 C 61.09 145.94 61.17 128.45 68.70 114.65 C 75.31 103.11 85.91 93.42 98.95 89.91 M 108.08 109.10 C 103.05 113.84 105.00 121.31 104.62 127.43 C 102.28 127.43 99.95 127.43 97.62 127.45 C 97.63 131.27 97.63 135.10 97.63 138.93 C 99.97 138.94 102.30 138.96 104.64 138.98 C 104.63 150.04 104.61 161.09 104.65 172.15 C 109.07 172.15 113.49 172.15 117.91 172.16 C 118.01 161.01 117.93 149.87 117.96 138.72 C 121.02 138.55 124.35 139.22 127.25 138.31 C 127.95 134.72 127.95 131.04 128.22 127.41 C 124.79 127.43 121.37 127.43 117.94 127.43 C 118.30 124.31 117.03 120.52 119.06 117.85 C 122.09 117.33 125.18 117.56 128.25 117.49 C 128.22 113.59 128.22 109.70 128.22 105.81 C 121.50 106.07 113.70 104.46 108.08 109.10 Z" />
</g>
<g id="#00acedff">
<path fill="#00aced" opacity="1.00" d=" M 257.82 95.90 C 269.77 87.89 285.21 86.42 298.95 89.88 C 311.81 93.30 322.30 102.75 328.96 114.04 C 335.65 125.72 336.65 140.19 332.87 153.00 C 329.58 164.22 321.56 173.48 312.14 180.12 C 299.14 188.99 281.72 190.47 267.12 184.95 C 259.59 182.26 253.49 176.99 247.76 171.58 C 247.33 169.66 246.81 167.76 246.20 165.90 C 244.80 161.88 242.79 158.10 240.42 154.58 C 239.00 152.57 237.46 150.66 235.83 148.82 C 234.46 139.23 234.49 129.17 238.17 120.05 C 242.09 110.30 249.21 101.88 257.82 95.90 M 293.06 115.21 C 287.84 117.80 285.62 123.90 286.21 129.45 C 276.00 128.91 266.63 123.60 259.95 116.02 C 258.94 118.90 258.06 121.97 258.71 125.04 C 259.24 128.40 261.66 130.96 263.84 133.40 C 261.94 132.85 260.05 132.31 258.16 131.78 C 258.69 134.34 259.14 137.04 260.76 139.18 C 262.53 141.78 265.46 143.13 268.12 144.63 C 266.28 144.63 264.45 144.64 262.62 144.66 C 264.79 149.56 269.24 152.92 274.52 153.80 C 269.08 157.54 262.55 159.26 255.97 158.88 C 268.46 166.67 285.65 166.37 297.42 157.34 C 307.08 150.20 312.08 138.15 312.20 126.33 C 314.42 124.32 316.50 122.16 318.43 119.87 C 316.05 120.55 313.67 121.22 311.29 121.88 C 313.48 119.87 315.33 117.53 316.75 114.92 C 314.07 115.93 311.38 116.92 308.67 117.83 C 304.62 113.84 298.14 112.21 293.06 115.21 Z" />
</g>
<g id="#ffffffff">
<path fill="#ffffff" opacity="1.00" d=" M 108.08 109.10 C 113.70 104.46 121.50 106.07 128.22 105.81 C 128.22 109.70 128.22 113.59 128.25 117.49 C 125.18 117.56 122.09 117.33 119.06 117.85 C 117.03 120.52 118.30 124.31 117.94 127.43 C 121.37 127.43 124.79 127.43 128.22 127.41 C 127.95 131.04 127.95 134.72 127.25 138.31 C 124.35 139.22 121.02 138.55 117.96 138.72 C 117.93 149.87 118.01 161.01 117.91 172.16 C 113.49 172.15 109.07 172.15 104.65 172.15 C 104.61 161.09 104.63 150.04 104.64 138.98 C 102.30 138.96 99.97 138.94 97.63 138.93 C 97.63 135.10 97.63 131.27 97.62 127.45 C 99.95 127.43 102.28 127.43 104.62 127.43 C 105.00 121.31 103.05 113.84 108.08 109.10 Z" />
<path fill="#ffffff" opacity="1.00" d=" M 293.06 115.21 C 298.14 112.21 304.62 113.84 308.67 117.83 C 311.38 116.92 314.07 115.93 316.75 114.92 C 315.33 117.53 313.48 119.87 311.29 121.88 C 313.67 121.22 316.05 120.55 318.43 119.87 C 316.50 122.16 314.42 124.32 312.20 126.33 C 312.08 138.15 307.08 150.20 297.42 157.34 C 285.65 166.37 268.46 166.67 255.97 158.88 C 262.55 159.26 269.08 157.54 274.52 153.80 C 269.24 152.92 264.79 149.56 262.62 144.66 C 264.45 144.64 266.28 144.63 268.12 144.63 C 265.46 143.13 262.53 141.78 260.76 139.18 C 259.14 137.04 258.69 134.34 258.16 131.78 C 260.05 132.31 261.94 132.85 263.84 133.40 C 261.66 130.96 259.24 128.40 258.71 125.04 C 258.06 121.97 258.94 118.90 259.95 116.02 C 266.63 123.60 276.00 128.91 286.21 129.45 C 285.62 123.90 287.84 117.80 293.06 115.21 Z" />
<path fill="#ffffff" opacity="1.00" d=" M 182.43 152.28 C 192.29 151.80 202.18 152.02 212.05 152.02 C 216.41 151.89 220.59 153.36 224.28 155.60 C 226.46 157.73 228.33 160.19 229.64 162.95 C 230.39 165.82 230.74 168.77 230.89 171.73 C 231.00 174.68 231.00 177.63 231.01 180.59 C 231.00 183.87 231.03 187.17 231.00 190.46 C 230.91 194.59 230.76 198.77 229.71 202.79 C 228.10 206.68 225.20 209.96 221.51 211.99 C 213.99 214.75 205.84 213.80 198.00 214.00 C 192.10 213.86 186.02 214.39 180.31 212.60 C 176.34 211.37 173.30 208.26 171.14 204.82 C 170.09 202.36 169.38 199.77 169.07 197.12 C 168.96 194.39 168.99 191.67 169.00 188.95 C 169.01 184.58 169.00 180.22 168.99 175.86 C 168.99 172.15 168.98 168.43 169.54 164.75 C 171.61 158.78 176.47 154.27 182.43 152.28 M 174.92 167.17 C 174.84 170.43 174.60 173.67 174.49 176.93 C 174.50 179.74 174.50 182.55 174.48 185.37 C 174.79 191.28 173.83 197.78 176.81 203.16 C 179.78 208.00 185.96 208.23 191.02 208.37 C 199.04 208.42 207.10 208.79 215.10 207.92 C 217.95 207.72 220.35 206.06 222.61 204.46 C 225.21 200.16 225.32 195.08 225.47 190.22 C 225.46 185.83 225.47 181.44 225.49 177.05 C 225.40 173.26 225.08 169.48 224.74 165.70 C 223.37 163.06 221.77 160.23 218.86 159.08 C 214.80 157.45 210.29 157.70 205.99 157.51 C 198.36 157.62 190.65 157.03 183.10 158.40 C 178.75 159.24 176.08 163.18 174.92 167.17 Z" />
<path fill="#ffffff" opacity="1.00" d=" M 212.38 167.99 C 213.21 166.10 213.25 162.72 216.06 162.84 C 218.73 162.23 219.80 164.89 220.76 166.79 C 219.85 167.91 219.15 169.32 217.84 170.02 C 215.75 170.56 214.09 168.83 212.38 167.99 Z" />
<path fill="#ffffff" opacity="1.00" d=" M 191.52 169.27 C 195.55 167.08 200.24 166.70 204.71 167.48 C 209.04 169.27 212.67 172.52 214.86 176.68 C 215.88 179.94 216.04 183.40 215.68 186.78 C 214.32 190.94 211.59 194.52 207.99 197.01 C 203.05 199.31 196.97 199.77 192.17 196.88 C 187.82 194.52 185.15 190.03 184.03 185.33 C 184.05 182.53 184.30 179.72 185.00 177.00 C 186.60 174.00 188.85 171.37 191.52 169.27 M 192.69 175.70 C 190.98 177.27 190.35 179.58 189.57 181.69 C 189.92 184.50 190.08 187.65 192.23 189.78 C 195.09 193.31 200.33 194.00 204.37 192.36 C 207.35 191.10 209.00 188.19 210.30 185.40 C 210.06 182.46 210.31 179.15 208.23 176.76 C 204.77 171.87 196.79 171.39 192.69 175.70 Z" />
</g>
<g id="#c53a79ff">
<path fill="#c53a79" opacity="1.00" d=" M 161.13 152.44 C 169.88 140.64 184.23 133.18 199.00 133.47 C 212.75 132.83 226.73 138.42 235.83 148.82 C 237.46 150.66 239.00 152.57 240.42 154.58 C 235.02 154.44 229.61 154.69 224.28 155.60 C 220.59 153.36 216.41 151.89 212.05 152.02 C 202.18 152.02 192.29 151.80 182.43 152.28 C 175.25 152.60 168.06 153.01 160.87 152.82 L 161.13 152.44 Z" />
</g>
<g id="#d34968ff">
<path fill="#d34968" opacity="1.00" d=" M 160.87 152.82 C 168.06 153.01 175.25 152.60 182.43 152.28 C 176.47 154.27 171.61 158.78 169.54 164.75 C 164.08 165.06 158.76 166.33 153.37 167.17 C 155.04 162.00 157.67 157.20 160.87 152.82 Z" />
</g>
<g id="#db3969ff">
<path fill="#db3969" opacity="1.00" d=" M 224.28 155.60 C 229.61 154.69 235.02 154.44 240.42 154.58 C 242.79 158.10 244.80 161.88 246.20 165.90 C 240.69 164.88 235.18 163.82 229.64 162.95 C 228.33 160.19 226.46 157.73 224.28 155.60 Z" />
</g>
<g id="#db485fff">
<path fill="#db485f" opacity="1.00" d=" M 174.92 167.17 C 176.08 163.18 178.75 159.24 183.10 158.40 C 190.65 157.03 198.36 157.62 205.99 157.51 C 210.29 157.70 214.80 157.45 218.86 159.08 C 221.77 160.23 223.37 163.06 224.74 165.70 C 223.40 166.06 222.08 166.42 220.76 166.79 C 219.80 164.89 218.73 162.23 216.06 162.84 C 213.25 162.72 213.21 166.10 212.38 167.99 C 210.13 166.14 207.26 166.91 204.71 167.48 C 200.24 166.70 195.55 167.08 191.52 169.27 C 185.95 169.05 180.18 169.37 174.92 167.17 Z" />
</g>
<g id="#e43d60ff">
<path fill="#e43d60" opacity="1.00" d=" M 229.64 162.95 C 235.18 163.82 240.69 164.88 246.20 165.90 C 246.81 167.76 247.33 169.66 247.76 171.58 C 248.11 173.32 248.39 175.08 248.67 176.84 C 243.22 173.70 236.98 172.79 230.89 171.73 C 230.74 168.77 230.39 165.82 229.64 162.95 Z" />
</g>
<g id="#e05456ff">
<path fill="#e05456" opacity="1.00" d=" M 153.37 167.17 C 158.76 166.33 164.08 165.06 169.54 164.75 C 168.98 168.43 168.99 172.15 168.99 175.86 C 163.12 176.46 157.23 176.96 151.34 177.28 C 151.80 174.14 152.22 170.98 153.10 167.92 C 153.17 167.74 153.31 167.36 153.37 167.17 Z" />
</g>
<g id="#e84858ff">
<path fill="#e84858" opacity="1.00" d=" M 204.71 167.48 C 207.26 166.91 210.13 166.14 212.38 167.99 C 214.09 168.83 215.75 170.56 217.84 170.02 C 219.15 169.32 219.85 167.91 220.76 166.79 C 222.08 166.42 223.40 166.06 224.74 165.70 C 225.08 169.48 225.40 173.26 225.49 177.05 C 221.94 176.86 218.40 176.72 214.86 176.68 C 212.67 172.52 209.04 169.27 204.71 167.48 Z" />
</g>
<g id="#e25453ff">
<path fill="#e25453" opacity="1.00" d=" M 174.92 167.17 C 180.18 169.37 185.95 169.05 191.52 169.27 C 188.85 171.37 186.60 174.00 185.00 177.00 C 181.49 176.98 177.99 176.96 174.49 176.93 C 174.60 173.67 174.84 170.43 174.92 167.17 Z" />
</g>
<g id="#ea4656ff">
<path fill="#ea4656" opacity="1.00" d=" M 230.89 171.73 C 236.98 172.79 243.22 173.70 248.67 176.84 C 248.73 179.87 248.75 182.90 248.79 185.94 L 248.63 185.88 C 242.89 183.70 237.05 181.75 231.01 180.59 C 231.00 177.63 231.00 174.68 230.89 171.73 Z" />
</g>
<g id="#ea584dff">
<path fill="#ea584d" opacity="1.00" d=" M 192.69 175.70 C 196.79 171.39 204.77 171.87 208.23 176.76 C 210.31 179.15 210.06 182.46 210.30 185.40 C 203.14 185.48 196.75 181.46 189.57 181.69 C 190.35 179.58 190.98 177.27 192.69 175.70 Z" />
</g>
<g id="#eb644cff">
<path fill="#eb644c" opacity="1.00" d=" M 151.34 177.28 C 157.23 176.96 163.12 176.46 168.99 175.86 C 169.00 180.22 169.01 184.58 169.00 188.95 C 163.19 188.85 157.39 188.83 151.58 188.87 C 151.25 185.01 151.20 181.14 151.34 177.28 Z" />
</g>
<g id="#ee524cff">
<path fill="#ee524c" opacity="1.00" d=" M 214.86 176.68 C 218.40 176.72 221.94 176.86 225.49 177.05 C 225.47 181.44 225.46 185.83 225.47 190.22 C 222.20 189.07 218.94 187.93 215.68 186.78 C 216.04 183.40 215.88 179.94 214.86 176.68 Z" />
</g>
<g id="#eb604aff">
<path fill="#eb604a" opacity="1.00" d=" M 174.49 176.93 C 177.99 176.96 181.49 176.98 185.00 177.00 C 184.30 179.72 184.05 182.53 184.03 185.33 C 180.85 185.35 177.66 185.36 174.48 185.37 C 174.50 182.55 174.50 179.74 174.49 176.93 Z" />
</g>
<g id="#000000ff">
<path fill="#000000" opacity="1.00" d=" M 74.49 181.10 C 75.49 181.08 76.49 181.06 77.50 181.04 C 84.96 188.78 95.70 192.23 105.97 194.36 C 118.55 196.30 132.08 193.26 142.66 186.15 C 143.20 186.10 144.27 185.99 144.80 185.94 C 145.11 193.43 147.52 200.66 150.82 207.33 C 153.51 212.49 156.52 217.61 160.97 221.46 C 160.97 221.96 160.98 222.94 160.98 223.43 C 153.89 226.79 149.11 233.21 144.03 238.91 C 138.56 247.68 134.23 257.21 131.18 267.09 C 130.70 268.55 130.00 270.47 128.07 269.99 C 98.71 270.02 69.36 269.99 40.00 270.00 C 40.00 262.47 40.00 254.94 40.00 247.41 C 40.46 246.97 41.38 246.10 41.85 245.66 C 42.04 242.41 42.58 239.20 43.22 236.01 C 43.79 233.69 44.24 231.34 44.71 229.00 C 46.66 218.04 51.48 207.74 57.47 198.42 C 61.96 191.61 68.16 186.17 74.49 181.10 Z" />
<path fill="#000000" opacity="1.00" d=" M 323.49 181.05 C 324.48 181.05 325.48 181.06 326.48 181.07 C 329.54 183.82 332.97 186.13 335.99 188.93 C 343.86 197.39 349.17 207.83 353.38 218.49 C 355.42 224.54 356.19 230.92 357.80 237.08 C 358.52 240.06 360.07 242.86 360.03 246.00 C 360.03 254.00 359.98 262.00 360.00 270.00 C 330.32 270.04 300.65 269.91 270.98 270.07 C 266.04 257.64 262.30 244.05 252.77 234.19 C 249.21 229.87 245.10 225.90 240.02 223.43 C 240.02 222.94 240.04 221.95 240.04 221.45 C 242.14 219.41 244.28 217.36 245.83 214.85 C 251.13 205.92 255.64 196.22 256.25 185.69 C 266.61 191.20 278.05 195.81 290.01 194.94 C 295.25 194.22 300.58 193.55 305.53 191.60 C 311.80 188.60 318.86 186.58 323.49 181.05 Z" />
<path fill="#000000" opacity="1.00" d=" M 164.58 226.29 C 165.72 225.31 166.82 226.62 167.68 227.28 C 175.24 233.91 185.35 236.33 195.04 237.84 C 203.66 238.89 212.26 237.00 220.48 234.56 C 225.92 232.71 230.57 229.30 235.15 225.96 C 237.12 226.15 238.59 227.71 240.11 228.83 C 243.41 231.87 247.05 234.59 249.81 238.16 C 252.69 241.72 255.07 245.64 257.61 249.44 C 263.75 263.30 268.21 277.93 270.10 292.99 C 271.09 298.27 271.17 303.65 270.97 309.00 C 223.99 309.00 177.01 309.00 130.03 309.00 C 129.59 299.92 130.81 290.84 132.71 281.98 C 133.63 276.50 135.36 271.20 136.91 265.87 C 139.11 258.87 141.24 251.63 145.71 245.67 C 150.68 238.10 157.19 231.51 164.58 226.29 Z" />
</g>
<g id="#ef514cff">
<path fill="#ef514c" opacity="1.00" d=" M 231.01 180.59 C 237.05 181.75 242.89 183.70 248.63 185.88 C 248.29 189.80 247.59 193.67 246.52 197.46 C 241.64 194.53 236.72 191.42 231.00 190.46 C 231.03 187.17 231.00 183.87 231.01 180.59 Z" />
</g>
<g id="#f26445ff">
<path fill="#f26445" opacity="1.00" d=" M 189.57 181.69 C 196.75 181.46 203.14 185.48 210.30 185.40 C 209.00 188.19 207.35 191.10 204.37 192.36 C 200.33 194.00 195.09 193.31 192.23 189.78 C 190.08 187.65 189.92 184.50 189.57 181.69 Z" />
</g>
<g id="#f77a3fff">
<path fill="#f77a3f" opacity="1.00" d=" M 174.48 185.37 C 177.66 185.36 180.85 185.35 184.03 185.33 C 185.15 190.03 187.82 194.52 192.17 196.88 C 196.97 199.77 203.05 199.31 207.99 197.01 C 213.27 198.57 218.72 200.31 222.61 204.46 C 220.35 206.06 217.95 207.72 215.10 207.92 C 207.10 208.79 199.04 208.42 191.02 208.37 C 185.96 208.23 179.78 208.00 176.81 203.16 C 173.83 197.78 174.79 191.28 174.48 185.37 Z" />
</g>
<g id="#f46541ff">
<path fill="#f46541" opacity="1.00" d=" M 207.99 197.01 C 211.59 194.52 214.32 190.94 215.68 186.78 C 218.94 187.93 222.20 189.07 225.47 190.22 C 225.32 195.08 225.21 200.16 222.61 204.46 C 218.72 200.31 213.27 198.57 207.99 197.01 Z" />
</g>
<g id="#f07443ff">
<path fill="#f07443" opacity="1.00" d=" M 151.58 188.87 C 157.39 188.83 163.19 188.85 169.00 188.95 C 168.99 191.67 168.96 194.39 169.07 197.12 C 163.83 197.05 158.58 196.95 153.35 196.80 L 153.21 196.80 C 152.64 194.16 152.09 191.52 151.58 188.87 Z" />
</g>
<g id="#f16041ff">
<path fill="#f16041" opacity="1.00" d=" M 231.00 190.46 C 236.72 191.42 241.64 194.53 246.52 197.46 C 244.89 202.14 242.54 206.53 239.83 210.67 C 237.18 207.20 233.52 204.79 229.71 202.79 C 230.76 198.77 230.91 194.59 231.00 190.46 Z" />
</g>
<g id="#f5843fff">
<path fill="#f5843f" opacity="1.00" d=" M 153.35 196.80 C 158.58 196.95 163.83 197.05 169.07 197.12 C 169.38 199.77 170.09 202.36 171.14 204.82 C 166.46 204.90 161.79 205.16 157.14 205.67 L 156.97 205.69 C 155.61 202.79 154.37 199.84 153.35 196.80 Z" />
</g>
<g id="#f77140ff">
<path fill="#f77140" opacity="1.00" d=" M 229.71 202.79 C 233.52 204.79 237.18 207.20 239.83 210.67 C 237.24 213.89 234.33 216.82 231.26 219.58 C 228.61 216.35 225.27 213.80 221.51 211.99 C 225.20 209.96 228.10 206.68 229.71 202.79 Z" />
</g>
<g id="#fb9244ff">
<path fill="#fb9244" opacity="1.00" d=" M 157.14 205.67 C 161.79 205.16 166.46 204.90 171.14 204.82 C 173.30 208.26 176.34 211.37 180.31 212.60 C 186.02 214.39 192.10 213.86 198.00 214.00 C 205.84 213.80 213.99 214.75 221.51 211.99 C 225.27 213.80 228.61 216.35 231.26 219.58 C 225.32 224.61 218.22 228.20 210.62 229.91 C 206.88 223.60 199.46 221.93 192.90 220.19 C 188.56 219.16 184.24 218.02 179.87 217.18 C 175.39 216.34 170.85 217.04 166.35 217.20 C 162.41 214.17 159.68 209.87 157.14 205.67 Z" />
</g>
<g id="#fda84eff">
<path fill="#fda84e" opacity="1.00" d=" M 166.35 217.20 C 170.85 217.04 175.39 216.34 179.87 217.18 C 184.24 218.02 188.56 219.16 192.90 220.19 C 199.46 221.93 206.88 223.60 210.62 229.91 C 194.96 233.03 177.52 229.02 166.35 217.20 Z" />
</g>
</svg>
