<?xml version="1.0" encoding="UTF-8" ?>
<!DOCTYPE svg PUBLIC "-//W3C//DTD SVG 1.1//EN" "http://www.w3.org/Graphics/SVG/1.1/DTD/svg11.dtd">
<svg width="1000pt" height="1362pt" viewBox="0 0 1000 1362" version="1.1" xmlns="http://www.w3.org/2000/svg">
<g id="#c54141fe">
<path fill="#c54141" opacity="1.00" d=" M 435.01 10.87 C 532.75 -1.23 634.10 16.88 721.35 62.64 C 772.40 89.25 818.49 125.29 856.71 168.33 C 866.23 179.47 876.52 189.92 885.82 201.26 C 909.84 230.04 930.51 261.72 946.25 295.78 C 962.72 331.25 973.76 369.20 979.12 407.94 C 987.27 466.29 982.69 525.86 970.16 583.25 C 951.61 667.65 917.13 747.68 876.60 823.69 C 837.40 896.83 792.20 966.59 744.50 1034.44 C 700.80 1096.66 654.74 1157.17 608.53 1217.55 C 597.54 1232.38 585.05 1246.01 573.28 1260.22 C 548.81 1289.14 524.29 1318.04 499.84 1346.98 C 495.66 1340.99 490.55 1335.74 485.65 1330.35 C 457.72 1300.24 429.30 1270.55 402.79 1239.15 C 391.87 1226.62 382.01 1213.24 371.99 1199.99 C 320.23 1131.65 267.54 1063.98 217.75 994.17 C 175.70 935.11 135.63 874.46 101.55 810.40 C 80.32 770.34 61.54 728.90 47.01 685.92 C 29.04 632.83 17.81 577.17 16.98 521.02 C 16.74 512.31 17.24 503.61 16.93 494.91 C 13.67 422.25 28.19 348.92 58.58 282.86 C 91.40 211.15 143.14 148.38 206.66 101.71 C 273.30 52.50 352.78 20.93 435.01 10.87 M 478.33 141.48 C 445.41 143.53 412.84 150.50 381.88 161.84 C 317.43 185.40 260.36 228.30 219.31 283.23 C 178.39 337.53 153.50 403.43 146.97 471.03 C 142.36 517.72 146.69 565.25 159.56 610.35 C 178.02 675.28 214.46 735.13 264.23 780.78 C 317.35 830.04 386.11 862.10 458.02 870.97 C 522.50 879.35 589.16 868.48 647.95 840.82 C 697.53 817.50 741.62 782.61 775.68 739.67 C 812.14 694.27 837.09 639.90 848.70 582.89 C 863.17 512.73 857.20 438.47 831.22 371.68 C 805.22 304.53 759.46 244.89 700.23 203.75 C 636.14 158.68 556.51 136.27 478.33 141.48 Z" />
</g>
<g id="#b72c2cff">
<path fill="#b72c2c" opacity="1.00" d=" M 478.33 141.48 C 556.51 136.27 636.14 158.68 700.23 203.75 C 759.46 244.89 805.22 304.53 831.22 371.68 C 857.20 438.47 863.17 512.73 848.70 582.89 C 837.09 639.90 812.14 694.27 775.68 739.67 C 741.62 782.61 697.53 817.50 647.95 840.82 C 589.16 868.48 522.50 879.35 458.02 870.97 C 386.11 862.10 317.35 830.04 264.23 780.78 C 214.46 735.13 178.02 675.28 159.56 610.35 C 146.69 565.25 142.36 517.72 146.97 471.03 C 153.50 403.43 178.39 337.53 219.31 283.23 C 260.36 228.30 317.43 185.40 381.88 161.84 C 412.84 150.50 445.41 143.53 478.33 141.48 M 487.19 263.29 C 458.17 264.35 429.38 271.02 402.84 282.81 C 353.03 304.67 311.49 344.45 287.09 393.03 C 266.01 434.73 257.25 482.56 262.14 529.03 C 266.15 567.76 279.66 605.46 301.16 637.91 C 318.53 664.26 341.17 687.15 367.43 704.67 C 401.05 727.17 440.66 740.60 481.03 743.25 C 519.67 745.89 558.90 738.39 593.93 721.89 C 625.17 707.27 653.08 685.64 675.15 659.13 C 696.39 633.75 712.17 603.87 721.38 572.10 C 732.75 533.09 734.35 491.25 725.68 451.54 C 718.01 416.15 702.36 382.49 680.09 353.92 C 658.42 325.97 630.45 302.87 598.70 287.22 C 564.28 270.15 525.58 261.85 487.19 263.29 Z" />
</g>
<g id="#ffffffff">
<path fill="#ffffff" opacity="1.00" d=" M 487.19 263.29 C 525.58 261.85 564.28 270.15 598.70 287.22 C 630.45 302.87 658.42 325.97 680.09 353.92 C 702.36 382.49 718.01 416.15 725.68 451.54 C 734.35 491.25 732.75 533.09 721.38 572.10 C 712.17 603.87 696.39 633.75 675.15 659.13 C 653.08 685.64 625.17 707.27 593.93 721.89 C 558.90 738.39 519.67 745.89 481.03 743.25 C 440.66 740.60 401.05 727.17 367.43 704.67 C 341.17 687.15 318.53 664.26 301.16 637.91 C 279.66 605.46 266.15 567.76 262.14 529.03 C 257.25 482.56 266.01 434.73 287.09 393.03 C 311.49 344.45 353.03 304.67 402.84 282.81 C 429.38 271.02 458.17 264.35 487.19 263.29 Z" />
</g>
</svg>
