<?xml version="1.0" encoding="UTF-8" ?>
<!DOCTYPE svg PUBLIC "-//W3C//DTD SVG 1.1//EN" "http://www.w3.org/Graphics/SVG/1.1/DTD/svg11.dtd">
<svg width="350pt" height="349pt" viewBox="0 0 350 349" version="1.1" xmlns="http://www.w3.org/2000/svg">
<g id="#969696ff">
<path fill="#969696" opacity="1.00" d=" M 156.06 0.00 L 193.96 0.00 C 210.85 2.64 227.81 6.36 243.43 13.54 C 248.02 14.93 252.30 17.05 256.34 19.62 C 268.55 25.43 279.43 33.60 289.68 42.33 C 302.98 54.81 315.68 68.24 324.96 84.05 C 334.19 99.18 340.84 115.79 345.02 133.00 C 347.47 141.80 348.23 150.95 350.00 159.89 L 350.00 190.12 C 347.77 201.96 346.36 214.03 342.51 225.50 C 337.85 239.61 332.35 253.63 324.08 266.06 C 319.25 274.03 313.75 281.62 307.74 288.74 C 299.05 297.39 290.74 306.51 280.87 313.86 C 268.74 323.48 254.99 330.90 240.66 336.66 C 226.42 342.50 211.40 346.58 196.11 348.44 C 195.57 348.58 194.48 348.86 193.94 349.00 L 156.04 349.00 C 148.76 347.62 141.42 346.47 134.18 344.83 C 106.64 337.83 80.46 324.78 59.24 305.76 C 53.91 300.42 48.58 295.08 43.23 289.77 C 28.38 272.76 16.64 252.92 9.55 231.44 C 4.31 218.21 2.50 204.03 0.00 190.12 L 0.00 159.87 C 1.23 153.36 2.12 146.78 3.26 140.25 C 5.30 130.47 8.32 120.93 11.48 111.46 C 17.13 98.11 23.40 84.83 32.27 73.28 C 36.67 67.70 40.42 61.54 45.73 56.73 C 51.88 50.88 57.42 44.35 64.19 39.18 C 74.19 30.43 85.63 23.56 97.32 17.34 C 106.38 13.53 115.32 9.30 124.87 6.84 C 134.98 3.37 145.60 1.86 156.06 0.00 M 212.23 77.54 C 209.33 78.94 206.96 82.51 203.37 81.30 C 201.46 87.22 195.55 90.56 193.12 96.21 C 187.15 106.96 187.23 119.93 190.01 131.62 C 183.26 138.01 177.00 144.91 170.09 151.13 C 168.90 152.24 168.24 153.77 167.36 155.11 C 154.26 142.74 141.82 129.67 128.90 117.09 C 123.35 112.65 124.97 104.73 123.54 98.52 C 121.43 97.24 119.41 95.81 117.64 94.09 C 116.96 94.18 116.28 94.27 115.61 94.36 C 115.06 93.21 114.48 92.08 113.90 90.95 C 113.51 91.36 112.74 92.19 112.36 92.60 C 107.12 87.71 99.15 87.17 94.24 81.78 C 91.35 80.94 88.87 79.22 86.64 77.24 C 84.02 79.17 81.54 81.30 79.48 83.82 C 78.36 85.06 75.56 85.72 76.32 87.81 C 78.57 92.74 81.29 97.46 83.80 102.26 C 88.27 109.60 91.60 117.57 96.27 124.79 C 97.19 126.40 99.37 125.60 100.86 125.74 C 105.00 125.30 109.09 126.60 112.88 128.12 C 115.85 130.06 117.94 133.07 120.54 135.46 C 131.52 146.19 142.09 157.34 153.19 167.94 C 152.91 168.42 152.34 169.36 152.05 169.84 C 149.55 169.87 148.83 172.77 147.20 174.22 C 138.54 183.24 129.45 191.88 120.68 200.77 C 112.32 199.19 103.90 200.65 95.65 201.99 C 93.18 203.83 90.70 205.67 87.98 207.15 C 85.86 208.94 84.25 211.27 82.23 213.18 C 77.45 217.78 75.30 224.30 73.91 230.62 C 71.60 241.99 75.23 253.87 82.01 263.00 C 82.47 263.32 83.37 263.97 83.82 264.29 C 84.08 265.22 84.46 266.09 84.97 266.92 C 87.92 268.56 91.05 269.86 93.94 271.61 C 99.37 274.86 105.84 275.43 112.01 275.75 C 117.30 276.00 122.22 273.63 127.46 273.46 C 127.52 273.15 127.63 272.53 127.69 272.22 C 128.43 271.92 129.18 271.61 129.92 271.32 C 134.80 268.16 139.24 264.24 142.69 259.55 C 148.15 251.55 149.48 241.67 149.58 232.20 C 149.24 231.00 148.58 229.93 148.06 228.81 C 156.28 221.47 163.67 213.26 171.68 205.70 C 173.46 204.34 173.96 202.21 174.12 200.09 C 176.21 201.78 175.46 204.67 175.59 207.00 C 175.30 210.89 176.22 215.08 179.10 217.87 C 195.09 233.90 211.12 249.87 227.18 265.82 C 230.92 269.61 234.28 274.13 239.16 276.51 C 248.43 277.54 256.63 271.86 263.04 265.80 L 263.69 266.02 C 268.59 260.19 273.34 253.98 275.65 246.62 C 277.04 242.42 274.60 238.19 271.76 235.25 C 253.40 216.93 235.05 198.61 216.76 180.24 C 214.57 177.82 211.20 176.80 208.01 177.09 C 205.21 177.13 202.22 178.28 199.63 176.72 C 206.05 172.16 210.89 165.88 216.73 160.67 C 218.59 158.89 221.23 160.04 223.32 160.67 C 227.35 162.25 231.72 160.82 235.91 161.37 C 240.49 162.03 244.50 159.10 249.00 158.78 C 253.32 158.48 256.11 154.82 259.42 152.50 C 262.19 150.31 265.70 148.69 267.26 145.33 C 269.63 140.71 272.83 136.47 274.33 131.44 C 277.33 122.53 275.82 113.03 275.41 103.86 C 271.44 104.42 269.26 108.04 266.57 110.57 C 258.84 118.17 251.15 125.81 243.50 133.49 C 242.46 134.45 241.36 135.60 239.82 135.54 C 235.01 135.73 230.15 135.89 225.36 135.45 C 222.53 134.03 220.51 131.34 218.09 129.33 C 217.36 127.48 216.33 125.80 214.28 125.29 C 214.23 119.64 213.87 113.96 214.39 108.33 C 224.17 97.83 234.76 88.05 244.81 77.78 C 245.79 76.88 245.69 75.43 246.02 74.25 C 243.34 73.93 240.64 73.75 237.96 73.40 C 229.21 72.26 220.24 73.96 212.23 77.54 Z" />
<path fill="#969696" opacity="1.00" d=" M 106.74 219.07 C 110.18 218.18 113.47 216.71 116.99 216.15 C 119.94 217.87 122.00 220.70 124.48 222.98 C 127.58 225.95 131.56 228.25 133.59 232.15 C 132.25 238.40 130.38 244.58 128.64 250.74 C 127.59 254.77 123.03 255.10 119.68 256.00 C 114.90 257.28 110.27 259.26 105.31 259.77 C 101.42 256.32 98.03 252.33 94.23 248.77 C 92.63 246.87 90.82 245.09 89.61 242.90 C 90.14 238.42 91.90 234.21 92.91 229.83 C 93.59 226.48 95.15 223.12 97.92 221.00 C 100.72 219.82 103.80 219.71 106.74 219.07 Z" />
</g>
<g id="#000000ff">
<path fill="#000000" opacity="1.00" d=" M 212.23 77.54 C 220.24 73.96 229.21 72.26 237.96 73.40 C 240.64 73.75 243.34 73.93 246.02 74.25 C 245.69 75.43 245.79 76.88 244.81 77.78 C 234.76 88.05 224.17 97.83 214.39 108.33 C 213.87 113.96 214.23 119.64 214.28 125.29 C 216.33 125.80 217.36 127.48 218.09 129.33 C 209.53 137.69 201.32 146.41 192.60 154.60 C 189.34 157.56 186.53 160.96 183.74 164.34 C 179.67 168.10 175.68 171.94 171.99 176.07 C 150.09 154.29 128.38 132.33 106.38 110.66 C 97.64 101.49 87.74 93.45 79.48 83.82 C 81.54 81.30 84.02 79.17 86.64 77.24 C 88.87 79.22 91.35 80.94 94.24 81.78 C 99.15 87.17 107.12 87.71 112.36 92.60 C 112.74 92.19 113.51 91.36 113.90 90.95 C 114.48 92.08 115.06 93.21 115.61 94.36 C 116.28 94.27 116.96 94.18 117.64 94.09 C 119.41 95.81 121.43 97.24 123.54 98.52 C 124.97 104.73 123.35 112.65 128.90 117.09 C 141.82 129.67 154.26 142.74 167.36 155.11 C 168.24 153.77 168.90 152.24 170.09 151.13 C 177.00 144.91 183.26 138.01 190.01 131.62 C 187.23 119.93 187.15 106.96 193.12 96.21 C 195.55 90.56 201.46 87.22 203.37 81.30 C 206.96 82.51 209.33 78.94 212.23 77.54 Z" />
<path fill="#000000" opacity="1.00" d=" M 152.05 169.84 C 153.18 169.66 154.31 169.51 155.45 169.37 C 159.23 173.11 163.10 176.80 166.38 181.01 C 165.02 182.19 163.71 183.42 162.41 184.65 C 151.89 194.04 142.28 204.36 132.18 214.18 C 129.36 216.88 126.84 219.87 124.48 222.98 C 122.00 220.70 119.94 217.87 116.99 216.15 C 113.47 216.71 110.18 218.18 106.74 219.07 C 103.80 219.71 100.72 219.82 97.92 221.00 C 95.15 223.12 93.59 226.48 92.91 229.83 C 91.90 234.21 90.14 238.42 89.61 242.90 C 90.82 245.09 92.63 246.87 94.23 248.77 C 94.56 249.28 95.21 250.31 95.53 250.82 C 91.48 255.17 86.53 258.87 83.82 264.29 C 83.37 263.97 82.47 263.32 82.01 263.00 C 75.23 253.87 71.60 241.99 73.91 230.62 C 75.30 224.30 77.45 217.78 82.23 213.18 C 84.25 211.27 85.86 208.94 87.98 207.15 C 90.70 205.67 93.18 203.83 95.65 201.99 C 103.90 200.65 112.32 199.19 120.68 200.77 C 129.45 191.88 138.54 183.24 147.20 174.22 C 148.83 172.77 149.55 169.87 152.05 169.84 Z" />
</g>
<g id="#5f3333ff">
<path fill="#5f3333" opacity="1.00" d=" M 76.32 87.81 C 75.56 85.72 78.36 85.06 79.48 83.82 C 87.74 93.45 97.64 101.49 106.38 110.66 C 128.38 132.33 150.09 154.29 171.99 176.07 L 171.47 176.59 C 169.85 178.15 168.08 179.54 166.38 181.01 C 163.10 176.80 159.23 173.11 155.45 169.37 C 154.31 169.51 153.18 169.66 152.05 169.84 C 152.34 169.36 152.91 168.42 153.19 167.94 C 142.09 157.34 131.52 146.19 120.54 135.46 C 117.94 133.07 115.85 130.06 112.88 128.12 C 109.09 126.60 105.00 125.30 100.86 125.74 C 99.37 125.60 97.19 126.40 96.27 124.79 C 91.60 117.57 88.27 109.60 83.80 102.26 C 81.29 97.46 78.57 92.74 76.32 87.81 Z" />
<path fill="#5f3333" opacity="1.00" d=" M 266.57 110.57 C 269.26 108.04 271.44 104.42 275.41 103.86 C 275.82 113.03 277.33 122.53 274.33 131.44 C 272.83 136.47 269.63 140.71 267.26 145.33 C 265.70 148.69 262.19 150.31 259.42 152.50 C 256.11 154.82 253.32 158.48 249.00 158.78 C 244.50 159.10 240.49 162.03 235.91 161.37 C 231.72 160.82 227.35 162.25 223.32 160.67 C 221.23 160.04 218.59 158.89 216.73 160.67 C 210.89 165.88 206.05 172.16 199.63 176.72 C 193.70 173.35 190.48 166.47 183.74 164.34 C 186.53 160.96 189.34 157.56 192.60 154.60 C 201.32 146.41 209.53 137.69 218.09 129.33 C 220.51 131.34 222.53 134.03 225.36 135.45 C 230.15 135.89 235.01 135.73 239.82 135.54 C 241.36 135.60 242.46 134.45 243.50 133.49 C 251.15 125.81 258.84 118.17 266.57 110.57 Z" />
<path fill="#5f3333" opacity="1.00" d=" M 132.18 214.18 C 142.28 204.36 151.89 194.04 162.41 184.65 C 163.11 191.72 169.85 195.26 174.12 200.09 C 173.96 202.21 173.46 204.34 171.68 205.70 C 163.67 213.26 156.28 221.47 148.06 228.81 C 148.58 229.93 149.24 231.00 149.58 232.20 C 149.48 241.67 148.15 251.55 142.69 259.55 C 139.24 264.24 134.80 268.16 129.92 271.32 C 129.18 271.61 128.43 271.92 127.69 272.22 C 127.63 272.53 127.52 273.15 127.46 273.46 C 122.22 273.63 117.30 276.00 112.01 275.75 C 105.84 275.43 99.37 274.86 93.94 271.61 C 91.05 269.86 87.92 268.56 84.97 266.92 C 84.46 266.09 84.08 265.22 83.82 264.29 C 86.53 258.87 91.48 255.17 95.53 250.82 C 95.21 250.31 94.56 249.28 94.23 248.77 C 98.03 252.33 101.42 256.32 105.31 259.77 C 110.27 259.26 114.90 257.28 119.68 256.00 C 123.03 255.10 127.59 254.77 128.64 250.74 C 130.38 244.58 132.25 238.40 133.59 232.15 C 131.56 228.25 127.58 225.95 124.48 222.98 C 126.84 219.87 129.36 216.88 132.18 214.18 Z" />
</g>
<g id="#e82b2bff">
<path fill="#e82b2b" opacity="1.00" d=" M 171.99 176.07 C 175.68 171.94 179.67 168.10 183.74 164.34 C 190.48 166.47 193.70 173.35 199.63 176.72 C 202.22 178.28 205.21 177.13 208.01 177.09 C 211.20 176.80 214.57 177.82 216.76 180.24 C 235.05 198.61 253.40 216.93 271.76 235.25 C 274.60 238.19 277.04 242.42 275.65 246.62 C 273.34 253.98 268.59 260.19 263.69 266.02 L 263.04 265.80 C 260.95 265.11 258.75 264.47 257.20 262.81 C 230.90 236.45 204.54 210.13 178.21 183.79 C 175.89 181.46 173.72 178.98 171.47 176.59 L 171.99 176.07 Z" />
</g>
<g id="#2c3edeff">
<path fill="#2c3ede" opacity="1.00" d=" M 166.38 181.01 C 168.08 179.54 169.85 178.15 171.47 176.59 C 173.72 178.98 175.89 181.46 178.21 183.79 C 204.54 210.13 230.90 236.45 257.20 262.81 C 258.75 264.47 260.95 265.11 263.04 265.80 C 256.63 271.86 248.43 277.54 239.16 276.51 C 234.28 274.13 230.92 269.61 227.18 265.82 C 211.12 249.87 195.09 233.90 179.10 217.87 C 176.22 215.08 175.30 210.89 175.59 207.00 C 175.46 204.67 176.21 201.78 174.12 200.09 C 169.85 195.26 163.11 191.72 162.41 184.65 C 163.71 183.42 165.02 182.19 166.38 181.01 Z" />
</g>
</svg>
