<?xml version="1.0" encoding="UTF-8" ?>
<!DOCTYPE svg PUBLIC "-//W3C//DTD SVG 1.1//EN" "http://www.w3.org/Graphics/SVG/1.1/DTD/svg11.dtd">
<svg width="100pt" height="100pt" viewBox="0 0 100 100" version="1.1" xmlns="http://www.w3.org/2000/svg">
<g id="#3b5998ff">
<path fill="#3b5998" opacity="1.00" d=" M 0.00 46.38 C 1.43 22.01 23.24 0.08 47.98 0.23 C 58.66 -0.38 69.54 2.47 78.30 8.67 C 90.35 17.46 99.20 31.23 100.00 46.37 L 100.00 53.40 C 98.90 76.90 78.82 97.54 55.57 100.00 L 44.43 100.00 C 21.17 97.54 1.08 76.87 0.00 53.36 L 0.00 46.38 M 45.09 21.09 C 40.01 25.82 42.04 33.30 41.61 39.43 C 39.28 39.43 36.96 39.43 34.63 39.45 C 34.63 43.28 34.62 47.11 34.64 50.94 C 36.97 50.94 39.30 50.95 41.63 50.97 C 41.65 62.03 41.59 73.09 41.66 84.15 C 46.07 84.16 50.48 84.15 54.89 84.16 C 55.04 73.02 54.91 61.87 54.96 50.73 C 58.07 50.72 61.19 50.72 64.30 50.73 C 64.74 47.01 64.95 43.27 65.31 39.55 C 61.86 39.36 58.41 39.43 54.97 39.42 C 55.34 36.31 53.97 32.54 56.01 29.88 C 59.04 29.26 62.16 29.63 65.24 29.49 C 65.22 25.60 65.23 21.70 65.22 17.81 C 58.50 18.09 50.72 16.45 45.09 21.09 Z" />
</g>
<g id="#ffffffff">
<path fill="#ffffff" opacity="1.00" d=" M 45.09 21.09 C 50.72 16.45 58.50 18.09 65.22 17.81 C 65.23 21.70 65.22 25.60 65.24 29.49 C 62.16 29.63 59.04 29.26 56.01 29.88 C 53.97 32.54 55.34 36.31 54.97 39.42 C 58.41 39.43 61.86 39.36 65.31 39.55 C 64.95 43.27 64.74 47.01 64.30 50.73 C 61.19 50.72 58.07 50.72 54.96 50.73 C 54.91 61.87 55.04 73.02 54.89 84.16 C 50.48 84.15 46.07 84.16 41.66 84.15 C 41.59 73.09 41.65 62.03 41.63 50.97 C 39.30 50.95 36.97 50.94 34.64 50.94 C 34.62 47.11 34.63 43.28 34.63 39.45 C 36.96 39.43 39.28 39.43 41.61 39.43 C 42.04 33.30 40.01 25.82 45.09 21.09 Z" />
</g>
</svg>
