<?xml version="1.0" encoding="UTF-8" ?>
<!DOCTYPE svg PUBLIC "-//W3C//DTD SVG 1.1//EN" "http://www.w3.org/Graphics/SVG/1.1/DTD/svg11.dtd">
<svg width="100pt" height="100pt" viewBox="0 0 100 100" version="1.1" xmlns="http://www.w3.org/2000/svg">
<g id="#dd4b39ff">
<path fill="#dd4b39" opacity="1.00" d=" M 13.29 16.31 C 22.28 5.76 36.19 -0.28 50.03 0.22 C 60.30 -0.12 70.62 3.09 78.93 9.13 C 90.64 17.95 99.21 31.46 100.00 46.34 L 100.00 53.43 C 98.87 76.91 78.81 97.53 55.57 100.00 L 44.42 100.00 C 33.66 98.78 23.34 93.93 15.72 86.20 C 6.37 77.92 0.75 65.85 0.00 53.41 L 0.00 46.33 C 0.74 35.14 5.51 24.37 13.29 16.31 M 23.72 30.79 C 18.10 33.68 14.39 39.22 12.33 45.05 C 11.82 49.78 11.45 54.94 13.78 59.28 C 16.75 66.34 23.52 71.69 31.14 72.69 C 38.99 73.96 47.72 70.99 52.21 64.20 C 55.80 59.26 56.31 52.99 55.88 47.09 C 48.73 47.09 41.57 47.07 34.41 47.11 C 34.42 49.73 34.42 52.35 34.40 54.97 C 38.67 55.03 42.94 54.98 47.20 55.01 C 46.51 58.51 44.23 61.62 41.03 63.21 C 34.59 66.45 25.73 64.11 22.39 57.53 C 17.65 49.91 22.31 38.66 31.10 36.73 C 35.50 35.76 40.12 36.77 43.57 39.69 C 45.56 37.74 47.56 35.80 49.56 33.86 C 42.72 27.50 31.86 26.17 23.72 30.79 M 73.01 37.85 C 73.00 40.93 73.00 44.00 73.00 47.08 C 69.72 47.09 66.45 47.09 63.17 47.10 C 63.17 49.37 63.17 51.64 63.17 53.91 C 66.45 53.91 69.72 53.91 72.99 53.92 C 73.00 57.00 73.00 60.07 73.01 63.15 C 75.08 63.16 77.15 63.15 79.22 63.15 C 79.23 60.07 79.24 56.99 79.24 53.91 C 82.49 53.91 85.74 53.91 88.99 53.91 C 89.00 51.64 89.00 49.36 88.99 47.09 C 85.74 47.09 82.49 47.09 79.23 47.08 C 79.24 44.00 79.23 40.93 79.22 37.85 C 77.15 37.84 75.08 37.84 73.01 37.85 Z" />
</g>
<g id="#ffffffff">
<path fill="#ffffff" opacity="1.00" d=" M 23.72 30.79 C 31.86 26.17 42.72 27.50 49.56 33.86 C 47.56 35.80 45.56 37.74 43.57 39.69 C 40.12 36.77 35.50 35.76 31.10 36.73 C 22.31 38.66 17.65 49.91 22.39 57.53 C 25.73 64.11 34.59 66.45 41.03 63.21 C 44.23 61.62 46.51 58.51 47.20 55.01 C 42.94 54.98 38.67 55.03 34.40 54.97 C 34.42 52.35 34.42 49.73 34.41 47.11 C 41.57 47.07 48.73 47.09 55.88 47.09 C 56.31 52.99 55.80 59.26 52.21 64.20 C 47.72 70.99 38.99 73.96 31.14 72.69 C 23.52 71.69 16.75 66.34 13.78 59.28 C 11.45 54.94 11.82 49.78 12.33 45.05 C 14.39 39.22 18.10 33.68 23.72 30.79 Z" />
<path fill="#ffffff" opacity="1.00" d=" M 73.01 37.85 C 75.08 37.84 77.15 37.84 79.22 37.85 C 79.23 40.93 79.24 44.00 79.23 47.08 C 82.49 47.09 85.74 47.09 88.99 47.09 C 89.00 49.36 89.00 51.64 88.99 53.91 C 85.74 53.91 82.49 53.91 79.24 53.91 C 79.24 56.99 79.23 60.07 79.22 63.15 C 77.15 63.15 75.08 63.16 73.01 63.15 C 73.00 60.07 73.00 57.00 72.99 53.92 C 69.72 53.91 66.45 53.91 63.17 53.91 C 63.17 51.64 63.17 49.37 63.17 47.10 C 66.45 47.09 69.72 47.09 73.00 47.08 C 73.00 44.00 73.00 40.93 73.01 37.85 Z" />
</g>
</svg>
