<?xml version="1.0" encoding="UTF-8" ?>
<!DOCTYPE svg PUBLIC "-//W3C//DTD SVG 1.1//EN" "http://www.w3.org/Graphics/SVG/1.1/DTD/svg11.dtd">
<svg width="100pt" height="100pt" viewBox="0 0 100 100" version="1.1" xmlns="http://www.w3.org/2000/svg">
<g id="#c33b7aff">
<path fill="#c33b7a" opacity="1.00" d=" M 33.21 4.08 C 50.57 -1.78 71.65 1.73 84.47 15.39 C 75.95 15.46 67.49 16.45 58.99 16.75 C 53.37 16.90 47.98 18.56 42.59 19.96 C 39.19 20.03 35.79 20.06 32.40 20.34 C 25.25 20.59 18.09 20.43 10.94 20.69 C 16.64 13.22 24.24 7.11 33.21 4.08 Z" />
</g>
<g id="#d03873ff">
<path fill="#d03873" opacity="1.00" d=" M 58.99 16.75 C 67.49 16.45 75.95 15.46 84.47 15.39 C 86.53 17.69 88.55 20.03 90.40 22.51 C 85.05 22.75 79.70 23.21 74.38 23.79 C 71.27 21.85 67.84 20.15 64.09 20.12 C 56.93 19.85 49.75 20.05 42.59 19.96 C 47.98 18.56 53.37 16.90 58.99 16.75 Z" />
</g>
<g id="#d34968ff">
<path fill="#d34968" opacity="1.00" d=" M 10.94 20.69 C 18.09 20.43 25.25 20.59 32.40 20.34 C 26.44 22.27 21.59 26.74 19.59 32.73 C 14.11 32.99 8.73 34.04 3.37 35.13 C 5.05 29.93 7.68 25.08 10.94 20.69 Z" />
</g>
<g id="#ffffffff">
<path fill="#ffffff" opacity="1.00" d=" M 32.40 20.34 C 35.79 20.06 39.19 20.03 42.59 19.96 C 49.75 20.05 56.93 19.85 64.09 20.12 C 67.84 20.15 71.27 21.85 74.38 23.79 C 76.64 25.80 78.44 28.28 79.62 31.07 C 80.43 33.89 80.78 36.82 80.89 39.75 C 80.98 42.75 81.00 45.74 81.01 48.74 C 81.01 51.70 81.02 54.65 81.00 57.60 C 80.92 61.63 80.87 65.69 80.04 69.65 C 78.75 73.64 76.19 77.15 72.61 79.36 C 65.62 82.85 57.57 81.75 50.03 82.01 C 43.47 81.80 36.70 82.56 30.33 80.63 C 23.83 78.57 19.72 72.06 19.08 65.49 C 18.99 62.59 19.02 59.68 19.01 56.78 C 19.00 52.57 19.01 48.36 19.00 44.15 C 19.00 40.34 18.91 36.50 19.59 32.73 C 21.59 26.74 26.44 22.27 32.40 20.34 M 32.41 26.58 C 28.45 27.71 25.82 31.36 25.04 35.27 C 24.81 38.61 24.52 41.95 24.49 45.30 C 24.51 48.99 24.50 52.68 24.49 56.36 C 24.88 61.90 23.90 68.52 28.18 72.82 C 31.76 76.52 37.31 76.10 42.03 76.40 C 50.03 76.39 58.08 76.85 66.03 75.77 C 68.59 75.49 70.68 73.90 72.58 72.28 C 75.94 67.27 75.22 60.98 75.47 55.25 C 75.49 51.77 75.47 48.29 75.48 44.81 C 75.35 41.36 75.32 37.88 74.71 34.47 C 73.89 30.24 70.24 26.78 65.98 26.20 C 59.37 25.22 52.67 25.57 46.02 25.50 C 41.48 25.56 36.85 25.50 32.41 26.58 Z" />
<path fill="#ffffff" opacity="1.00" d=" M 64.35 31.29 C 66.58 30.09 70.11 31.08 70.15 33.98 C 70.66 36.39 68.38 38.60 65.99 38.13 C 62.69 37.88 61.71 33.10 64.35 31.29 Z" />
<path fill="#ffffff" opacity="1.00" d=" M 41.37 37.42 C 44.38 35.95 47.64 34.72 51.05 35.10 C 56.92 35.30 62.02 39.31 64.63 44.40 C 65.69 47.14 66.03 50.07 65.93 52.99 C 65.13 57.84 62.27 62.17 58.12 64.81 C 53.86 67.07 48.62 67.70 44.11 65.82 C 40.23 64.33 37.28 61.13 35.32 57.54 C 33.74 53.52 33.70 49.01 35.12 44.94 C 36.55 41.96 38.77 39.43 41.37 37.42 M 46.53 41.23 C 43.02 42.50 40.41 45.72 39.74 49.38 C 38.85 55.35 43.75 61.68 50.01 61.15 C 54.77 61.59 58.72 57.83 60.16 53.57 C 60.12 50.55 60.43 47.15 58.21 44.75 C 55.63 41.04 50.70 40.10 46.53 41.23 Z" />
</g>
<g id="#db3969ff">
<path fill="#db3969" opacity="1.00" d=" M 74.38 23.79 C 79.70 23.21 85.05 22.75 90.40 22.51 C 92.80 26.10 94.80 29.95 96.28 34.01 C 90.76 32.83 85.21 31.85 79.62 31.07 C 78.44 28.28 76.64 25.80 74.38 23.79 Z" />
</g>
<g id="#dc485fff">
<path fill="#dc485f" opacity="1.00" d=" M 32.41 26.58 C 36.85 25.50 41.48 25.56 46.02 25.50 C 52.67 25.57 59.37 25.22 65.98 26.20 C 70.24 26.78 73.89 30.24 74.71 34.47 C 75.32 37.88 75.35 41.36 75.48 44.81 C 71.96 43.60 68.19 43.05 64.63 44.40 C 62.02 39.31 56.92 35.30 51.05 35.10 C 47.64 34.72 44.38 35.95 41.37 37.42 C 35.87 37.40 30.36 36.71 25.04 35.27 C 25.82 31.36 28.45 27.71 32.41 26.58 M 64.35 31.29 C 61.71 33.10 62.69 37.88 65.99 38.13 C 68.38 38.60 70.66 36.39 70.15 33.98 C 70.11 31.08 66.58 30.09 64.35 31.29 Z" />
</g>
<g id="#e43d60ff">
<path fill="#e43d60" opacity="1.00" d=" M 79.62 31.07 C 85.21 31.85 90.76 32.83 96.28 34.01 C 97.37 37.58 98.19 41.23 98.62 44.94 C 93.22 41.73 86.98 40.76 80.89 39.75 C 80.78 36.82 80.43 33.89 79.62 31.07 Z" />
</g>
<g id="#e05456ff">
<path fill="#e05456" opacity="1.00" d=" M 3.37 35.13 C 8.73 34.04 14.11 32.99 19.59 32.73 C 18.91 36.50 19.00 40.34 19.00 44.15 C 13.12 44.50 7.23 44.87 1.36 45.37 C 1.73 41.90 2.41 38.48 3.37 35.13 Z" />
</g>
<g id="#e25453ff">
<path fill="#e25453" opacity="1.00" d=" M 25.04 35.27 C 30.36 36.71 35.87 37.40 41.37 37.42 C 38.77 39.43 36.55 41.96 35.12 44.94 C 31.58 45.20 28.04 45.31 24.49 45.30 C 24.52 41.95 24.81 38.61 25.04 35.27 Z" />
</g>
<g id="#ea4656ff">
<path fill="#ea4656" opacity="1.00" d=" M 80.89 39.75 C 86.98 40.76 93.22 41.73 98.62 44.94 C 98.76 47.94 98.76 50.94 98.78 53.94 L 98.56 53.84 C 93.13 50.89 87.04 49.71 81.01 48.74 C 81.00 45.74 80.98 42.75 80.89 39.75 Z" />
</g>
<g id="#ea584dff">
<path fill="#ea584d" opacity="1.00" d=" M 46.53 41.23 C 50.70 40.10 55.63 41.04 58.21 44.75 C 60.43 47.15 60.12 50.55 60.16 53.57 C 53.20 52.91 46.69 50.11 39.74 49.38 C 40.41 45.72 43.02 42.50 46.53 41.23 Z" />
</g>
<g id="#ed514fff">
<path fill="#ed514f" opacity="1.00" d=" M 64.63 44.40 C 68.19 43.05 71.96 43.60 75.48 44.81 C 75.47 48.29 75.49 51.77 75.47 55.25 C 72.31 54.44 69.13 53.68 65.93 52.99 C 66.03 50.07 65.69 47.14 64.63 44.40 Z" />
</g>
<g id="#eb644cff">
<path fill="#eb644c" opacity="1.00" d=" M 1.36 45.37 C 7.23 44.87 13.12 44.50 19.00 44.15 C 19.01 48.36 19.00 52.57 19.01 56.78 C 13.21 56.62 7.40 56.61 1.60 56.71 C 1.20 52.94 1.17 49.15 1.36 45.37 Z" />
</g>
<g id="#ec6349ff">
<path fill="#ec6349" opacity="1.00" d=" M 24.49 45.30 C 28.04 45.31 31.58 45.20 35.12 44.94 C 33.70 49.01 33.74 53.52 35.32 57.54 C 31.70 57.28 28.08 56.90 24.49 56.36 C 24.50 52.68 24.51 48.99 24.49 45.30 Z" />
</g>
<g id="#ef504dff">
<path fill="#ef504d" opacity="1.00" d=" M 81.01 48.74 C 87.04 49.71 93.13 50.89 98.56 53.84 C 98.27 57.33 98.04 60.97 96.67 64.22 L 96.11 64.20 C 91.31 61.48 86.37 58.97 81.00 57.60 C 81.02 54.65 81.01 51.70 81.01 48.74 Z" />
</g>
<g id="#f26445ff">
<path fill="#f26445" opacity="1.00" d=" M 39.74 49.38 C 46.69 50.11 53.20 52.91 60.16 53.57 C 58.72 57.83 54.77 61.59 50.01 61.15 C 43.75 61.68 38.85 55.35 39.74 49.38 Z" />
</g>
<g id="#f36442ff">
<path fill="#f36442" opacity="1.00" d=" M 65.93 52.99 C 69.13 53.68 72.31 54.44 75.47 55.25 C 75.22 60.98 75.94 67.27 72.58 72.28 C 68.43 68.63 63.27 66.58 58.12 64.81 C 62.27 62.17 65.13 57.84 65.93 52.99 Z" />
</g>
<g id="#f77b3fff">
<path fill="#f77b3f" opacity="1.00" d=" M 24.49 56.36 C 28.08 56.90 31.70 57.28 35.32 57.54 C 37.28 61.13 40.23 64.33 44.11 65.82 C 48.62 67.70 53.86 67.07 58.12 64.81 C 63.27 66.58 68.43 68.63 72.58 72.28 C 70.68 73.90 68.59 75.49 66.03 75.77 C 58.08 76.85 50.03 76.39 42.03 76.40 C 37.31 76.10 31.76 76.52 28.18 72.82 C 23.90 68.52 24.88 61.90 24.49 56.36 Z" />
</g>
<g id="#f07443ff">
<path fill="#f07443" opacity="1.00" d=" M 1.60 56.71 C 7.40 56.61 13.21 56.62 19.01 56.78 C 19.02 59.68 18.99 62.59 19.08 65.49 C 13.88 65.62 8.68 65.60 3.49 65.38 C 2.66 62.54 2.05 59.64 1.60 56.71 Z" />
</g>
<g id="#f15f41ff">
<path fill="#f15f41" opacity="1.00" d=" M 81.00 57.60 C 86.37 58.97 91.31 61.48 96.11 64.20 L 96.28 64.95 C 95.74 69.01 93.43 72.54 91.51 76.07 C 87.73 73.85 83.90 71.71 80.04 69.65 C 80.87 65.69 80.92 61.63 81.00 57.60 Z" />
</g>
<g id="#fa8f43ff">
<path fill="#fa8f43" opacity="1.00" d=" M 3.49 65.38 C 8.68 65.60 13.88 65.62 19.08 65.49 C 19.72 72.06 23.83 78.57 30.33 80.63 C 36.70 82.56 43.47 81.80 50.03 82.01 C 57.57 81.75 65.62 82.85 72.61 79.36 C 76.03 81.64 79.51 83.82 83.06 85.88 C 77.26 91.41 70.11 95.50 62.33 97.48 C 58.97 94.74 55.74 91.52 51.46 90.30 C 47.42 89.09 43.43 87.75 39.43 86.42 C 31.82 83.95 23.70 84.28 15.82 84.71 L 15.44 84.73 C 10.13 79.22 5.87 72.68 3.49 65.38 Z" />
</g>
<g id="#f76f3fff">
<path fill="#f76f3f" opacity="1.00" d=" M 80.04 69.65 C 83.90 71.71 87.73 73.85 91.51 76.07 C 89.06 79.64 86.38 83.08 83.06 85.88 C 79.51 83.82 76.03 81.64 72.61 79.36 C 76.19 77.15 78.75 73.64 80.04 69.65 Z" />
</g>
<g id="#fca84eff">
<path fill="#fca84e" opacity="1.00" d=" M 15.82 84.71 C 23.70 84.28 31.82 83.95 39.43 86.42 C 43.43 87.75 47.42 89.09 51.46 90.30 C 55.74 91.52 58.97 94.74 62.33 97.48 C 46.01 101.49 27.44 97.24 15.82 84.71 Z" />
</g>
</svg>
