<?xml version="1.0" encoding="UTF-8" ?>
<!DOCTYPE svg PUBLIC "-//W3C//DTD SVG 1.1//EN" "http://www.w3.org/Graphics/SVG/1.1/DTD/svg11.dtd">
<svg width="100pt" height="100pt" viewBox="0 0 100 100" version="1.1" xmlns="http://www.w3.org/2000/svg">
<g id="#fffc00ff">
<path fill="#fffc00" opacity="1.00" d=" M 40.61 2.75 C 54.43 0.22 69.49 3.56 80.33 12.68 C 87.17 18.75 92.91 26.31 95.59 35.14 C 100.52 50.12 97.70 67.55 87.81 79.91 C 81.43 87.53 73.16 93.82 63.53 96.64 C 50.79 100.34 36.53 98.77 25.12 91.92 C 14.60 85.36 5.96 75.18 2.98 62.97 C -1.32 47.38 2.63 29.62 13.81 17.80 C 20.57 9.77 30.32 4.58 40.61 2.75 M 37.56 32.49 C 34.86 36.33 35.92 41.31 36.01 45.69 C 33.66 45.38 30.40 43.77 29.41 46.93 C 30.55 49.58 33.79 49.99 35.95 51.53 C 33.99 56.67 29.60 60.46 24.27 61.77 C 25.65 65.95 31.91 64.04 32.60 68.83 C 34.97 68.65 37.57 67.68 39.79 68.96 C 43.08 70.63 46.13 73.60 50.13 73.01 C 54.59 72.92 57.40 68.02 61.91 68.40 C 63.36 68.09 65.61 69.50 66.45 67.78 C 67.86 64.47 72.05 65.17 74.33 62.81 C 73.60 61.00 71.43 60.87 69.93 59.99 C 66.21 58.49 64.07 54.86 62.62 51.32 C 64.77 50.18 67.19 49.44 69.02 47.76 C 68.78 46.73 68.50 45.70 68.17 44.69 C 66.38 44.96 64.61 45.28 62.84 45.64 C 62.89 41.36 63.66 36.63 61.19 32.82 C 56.36 24.57 42.64 24.42 37.56 32.49 Z" />
</g>
<g id="#2c2c17ff">
<path fill="#2c2c17" opacity="1.00" d=" M 37.56 32.49 C 42.64 24.42 56.36 24.57 61.19 32.82 C 63.66 36.63 62.89 41.36 62.84 45.64 C 64.61 45.28 66.38 44.96 68.17 44.69 C 68.50 45.70 68.78 46.73 69.02 47.76 C 67.19 49.44 64.77 50.18 62.62 51.32 C 64.07 54.86 66.21 58.49 69.93 59.99 C 71.43 60.87 73.60 61.00 74.33 62.81 C 72.05 65.17 67.86 64.47 66.45 67.78 C 65.61 69.50 63.36 68.09 61.91 68.40 C 57.40 68.02 54.59 72.92 50.13 73.01 C 46.13 73.60 43.08 70.63 39.79 68.96 C 37.57 67.68 34.97 68.65 32.60 68.83 C 31.91 64.04 25.65 65.95 24.27 61.77 C 29.60 60.46 33.99 56.67 35.95 51.53 C 33.79 49.99 30.55 49.58 29.41 46.93 C 30.40 43.77 33.66 45.38 36.01 45.69 C 35.92 41.31 34.86 36.33 37.56 32.49 M 38.82 33.00 C 35.90 37.06 37.40 42.27 37.17 46.88 C 34.87 46.86 32.59 46.48 30.30 46.39 C 32.01 48.87 36.35 48.59 37.05 51.86 C 35.50 57.22 30.97 61.20 25.71 62.79 C 28.59 63.87 32.51 63.61 33.57 67.20 C 35.37 67.09 37.20 66.82 38.99 67.11 C 42.50 68.27 45.09 71.71 49.01 71.65 C 53.28 71.98 56.05 68.04 59.91 67.05 C 61.74 66.89 63.56 67.08 65.38 67.19 C 65.83 63.35 70.15 63.96 72.86 62.80 C 69.79 61.63 66.67 60.18 64.63 57.50 C 63.07 55.51 60.92 52.98 62.00 50.28 C 64.01 48.89 66.47 48.19 68.17 46.34 C 66.06 46.40 64.00 46.86 61.91 46.99 C 60.55 43.00 62.68 38.42 60.57 34.52 C 56.85 26.27 43.74 25.61 38.82 33.00 Z" />
</g>
<g id="#ffffffff">
<path fill="#ffffff" opacity="1.00" d=" M 38.82 33.00 C 43.74 25.61 56.85 26.27 60.57 34.52 C 62.68 38.42 60.55 43.00 61.91 46.99 C 64.00 46.86 66.06 46.40 68.17 46.34 C 66.47 48.19 64.01 48.89 62.00 50.28 C 60.92 52.98 63.07 55.51 64.63 57.50 C 66.67 60.18 69.79 61.63 72.86 62.80 C 70.15 63.96 65.83 63.35 65.38 67.19 C 63.56 67.08 61.74 66.89 59.91 67.05 C 56.05 68.04 53.28 71.98 49.01 71.65 C 45.09 71.71 42.50 68.27 38.99 67.11 C 37.20 66.82 35.37 67.09 33.57 67.20 C 32.51 63.61 28.59 63.87 25.71 62.79 C 30.97 61.20 35.50 57.22 37.05 51.86 C 36.35 48.59 32.01 48.87 30.30 46.39 C 32.59 46.48 34.87 46.86 37.17 46.88 C 37.40 42.27 35.90 37.06 38.82 33.00 Z" />
</g>
</svg>
