<?xml version="1.0" encoding="UTF-8" ?>
<!DOCTYPE svg PUBLIC "-//W3C//DTD SVG 1.1//EN" "http://www.w3.org/Graphics/SVG/1.1/DTD/svg11.dtd">
<svg width="100pt" height="100pt" viewBox="0 0 100 100" version="1.1" xmlns="http://www.w3.org/2000/svg">
<g id="#00acedff">
<path fill="#00aced" opacity="1.00" d=" M 13.76 15.78 C 29.57 -2.52 59.57 -4.95 78.89 9.09 C 90.63 17.93 99.25 31.49 100.00 46.42 L 100.00 53.33 C 98.94 76.88 78.79 97.61 55.48 100.00 L 44.51 100.00 C 21.18 97.59 1.02 76.83 0.00 53.26 L 0.00 46.41 C 0.70 34.94 5.73 23.97 13.76 15.78 M 58.10 27.20 C 52.94 29.76 50.50 35.84 51.31 41.39 C 41.12 41.02 31.69 35.67 25.07 28.10 C 21.82 33.96 23.82 41.45 29.08 45.40 C 27.14 44.87 25.21 44.33 23.28 43.81 C 23.31 49.84 27.82 54.51 33.16 56.59 C 31.35 56.62 29.55 56.65 27.74 56.71 C 29.75 61.66 34.34 65.05 39.63 65.71 C 34.13 69.54 27.46 71.40 20.76 70.77 C 33.08 78.50 50.00 78.46 61.83 69.77 C 71.82 62.70 77.17 50.38 77.14 38.31 C 79.49 36.37 81.59 34.16 83.41 31.72 C 81.09 32.62 78.70 33.32 76.24 33.76 C 78.55 31.88 80.49 29.60 81.65 26.83 C 79.02 28.00 76.32 29.00 73.57 29.84 C 69.69 25.72 63.10 24.28 58.10 27.20 Z" />
</g>
<g id="#ffffffff">
<path fill="#ffffff" opacity="1.00" d=" M 58.10 27.20 C 63.10 24.28 69.69 25.72 73.57 29.84 C 76.32 29.00 79.02 28.00 81.65 26.83 C 80.49 29.60 78.55 31.88 76.24 33.76 C 78.70 33.32 81.09 32.62 83.41 31.72 C 81.59 34.16 79.49 36.37 77.14 38.31 C 77.17 50.38 71.82 62.70 61.83 69.77 C 50.00 78.46 33.08 78.50 20.76 70.77 C 27.46 71.40 34.13 69.54 39.63 65.71 C 34.34 65.05 29.75 61.66 27.74 56.71 C 29.55 56.65 31.35 56.62 33.16 56.59 C 27.82 54.51 23.31 49.84 23.28 43.81 C 25.21 44.33 27.14 44.87 29.08 45.40 C 23.82 41.45 21.82 33.96 25.07 28.10 C 31.69 35.67 41.12 41.02 51.31 41.39 C 50.50 35.84 52.94 29.76 58.10 27.20 Z" />
</g>
</svg>
