<?xml version="1.0" encoding="UTF-8" ?>
<!DOCTYPE svg PUBLIC "-//W3C//DTD SVG 1.1//EN" "http://www.w3.org/Graphics/SVG/1.1/DTD/svg11.dtd">
<svg width="100pt" height="100pt" viewBox="0 0 100 100" version="1.1" xmlns="http://www.w3.org/2000/svg">
<g id="#bb0000ff">
<path fill="#bb0000" opacity="1.00" d=" M 0.00 46.35 C 1.45 21.98 23.27 0.07 48.01 0.23 C 58.71 -0.37 69.59 2.48 78.36 8.71 C 90.38 17.51 99.20 31.24 100.00 46.36 L 100.00 53.38 C 98.91 76.89 78.81 97.56 55.55 100.00 L 44.46 100.00 C 21.18 97.56 1.08 76.88 0.00 53.37 L 0.00 46.35 M 30.23 16.17 C 31.45 20.14 32.65 24.12 33.97 28.07 C 35.62 32.62 34.70 37.55 34.93 42.28 C 36.30 42.29 37.67 42.29 39.05 42.28 C 39.18 38.57 38.73 34.82 39.31 31.14 C 40.74 26.12 42.24 21.12 43.86 16.17 C 42.49 16.14 41.11 16.12 39.74 16.10 C 38.68 19.39 38.11 22.81 37.20 26.15 C 35.94 22.91 35.36 19.46 34.30 16.16 C 32.94 16.15 31.58 16.15 30.23 16.17 M 47.05 23.09 C 44.79 23.50 43.51 25.84 43.70 28.01 C 43.71 31.98 43.43 35.99 43.95 39.94 C 45.67 43.78 52.10 43.59 53.63 39.73 C 54.16 35.52 53.89 31.24 53.83 27.01 C 53.84 23.71 49.81 22.10 47.05 23.09 M 57.17 23.01 C 57.41 29.16 56.68 35.40 57.54 41.50 C 59.13 44.01 62.05 41.80 63.65 40.46 C 63.66 40.91 63.68 41.82 63.69 42.28 C 64.60 42.28 66.42 42.28 67.33 42.28 C 67.33 35.86 67.33 29.43 67.33 23.01 C 66.42 23.01 64.59 23.00 63.68 23.00 C 63.63 27.64 63.77 32.29 63.64 36.93 C 63.83 38.50 62.12 38.94 60.94 39.13 C 60.65 33.76 60.85 28.38 60.80 23.01 C 59.59 23.00 58.38 23.00 57.17 23.01 M 26.33 47.39 C 23.02 48.84 21.35 52.48 21.53 55.97 C 21.57 62.62 21.44 69.28 21.59 75.94 C 21.67 79.86 24.86 83.81 28.96 83.79 C 43.31 83.90 57.67 83.81 72.03 83.83 C 76.45 84.31 80.40 80.29 80.47 75.99 C 80.56 69.01 80.52 62.03 80.49 55.05 C 80.66 50.55 76.54 46.27 71.97 46.70 C 58.30 46.69 44.63 46.73 30.97 46.69 C 29.41 46.76 27.74 46.57 26.33 47.39 Z" />
<path fill="#bb0000" opacity="1.00" d=" M 47.56 38.29 C 47.39 34.44 46.92 30.39 47.87 26.62 C 48.43 26.69 49.54 26.81 50.10 26.87 C 50.42 30.90 50.31 34.95 50.09 38.97 C 49.46 38.80 48.19 38.46 47.56 38.29 Z" />
<path fill="#bb0000" opacity="1.00" d=" M 27.71 52.77 C 31.63 52.77 35.54 52.77 39.46 52.77 C 39.46 53.69 39.48 55.54 39.48 56.46 C 38.14 56.46 36.80 56.47 35.46 56.47 C 35.46 63.55 35.44 70.63 35.48 77.71 C 34.23 77.74 32.99 77.76 31.74 77.77 C 31.72 70.67 31.74 63.57 31.73 56.47 C 30.38 56.47 29.04 56.46 27.70 56.46 C 27.70 55.54 27.71 53.70 27.71 52.77 Z" />
<path fill="#bb0000" opacity="1.00" d=" M 52.52 52.77 C 53.34 52.77 54.99 52.77 55.81 52.77 C 55.85 55.42 55.84 58.06 55.82 60.71 C 57.11 60.25 58.36 58.40 59.85 59.19 C 62.67 60.08 62.21 63.66 62.32 65.99 C 62.03 69.77 63.07 73.87 61.33 77.39 C 59.85 78.27 58.01 77.86 56.55 77.15 C 55.27 77.69 53.87 77.77 52.50 77.83 C 52.51 69.47 52.47 61.12 52.52 52.77 M 55.76 62.57 C 55.93 66.09 55.77 69.61 55.84 73.13 C 55.38 74.94 57.59 75.35 58.84 74.97 C 59.14 70.88 58.93 66.78 59.04 62.68 C 57.96 62.36 56.85 62.18 55.76 62.57 Z" />
<path fill="#bb0000" opacity="1.00" d=" M 39.47 59.37 C 40.57 59.36 41.67 59.36 42.77 59.36 C 42.93 64.57 42.42 69.81 43.11 75.00 C 43.96 74.63 44.79 74.23 45.60 73.79 C 46.05 69.01 45.66 64.19 45.78 59.40 C 46.92 59.37 48.07 59.36 49.22 59.36 C 49.20 65.50 49.22 71.63 49.21 77.76 C 48.35 77.75 46.65 77.73 45.80 77.72 C 45.79 77.25 45.79 76.32 45.78 75.85 C 44.36 77.49 42.36 78.12 40.23 77.87 C 38.61 71.86 39.86 65.51 39.47 59.37 Z" />
<path fill="#bb0000" opacity="1.00" d=" M 65.22 62.97 C 65.45 59.41 70.55 57.42 73.16 59.86 C 75.95 61.99 74.53 65.96 74.88 68.95 C 72.73 68.97 70.58 68.96 68.44 68.99 C 68.71 71.23 67.43 75.78 71.18 75.07 C 71.32 73.79 71.44 72.51 71.53 71.23 C 72.67 71.23 73.81 71.24 74.95 71.25 C 74.74 73.10 75.18 75.28 73.78 76.77 C 71.44 79.31 65.82 78.55 65.29 74.74 C 64.97 70.83 65.05 66.89 65.22 62.97 M 68.43 66.25 C 69.18 66.25 70.68 66.24 71.43 66.24 C 71.43 65.30 71.43 63.42 71.43 62.48 C 68.56 61.25 68.23 64.10 68.43 66.25 Z" />
</g>
<g id="#ffffffff">
<path fill="#ffffff" opacity="1.00" d=" M 30.23 16.17 C 31.58 16.15 32.94 16.15 34.30 16.16 C 35.36 19.46 35.94 22.91 37.20 26.15 C 38.11 22.81 38.68 19.39 39.74 16.10 C 41.11 16.12 42.49 16.14 43.86 16.17 C 42.24 21.12 40.74 26.12 39.31 31.14 C 38.73 34.82 39.18 38.57 39.05 42.28 C 37.67 42.29 36.30 42.29 34.93 42.28 C 34.70 37.55 35.62 32.62 33.97 28.07 C 32.65 24.12 31.45 20.14 30.23 16.17 Z" />
<path fill="#ffffff" opacity="1.00" d=" M 47.05 23.09 C 49.81 22.10 53.84 23.71 53.83 27.01 C 53.89 31.24 54.16 35.52 53.63 39.73 C 52.10 43.59 45.67 43.78 43.95 39.94 C 43.43 35.99 43.71 31.98 43.70 28.01 C 43.51 25.84 44.79 23.50 47.05 23.09 M 47.56 38.29 C 48.19 38.46 49.46 38.80 50.09 38.97 C 50.31 34.95 50.42 30.90 50.10 26.87 C 49.54 26.81 48.43 26.69 47.87 26.62 C 46.92 30.39 47.39 34.44 47.56 38.29 Z" />
<path fill="#ffffff" opacity="1.00" d=" M 57.17 23.01 C 58.38 23.00 59.59 23.00 60.80 23.01 C 60.85 28.38 60.65 33.76 60.94 39.13 C 62.12 38.94 63.83 38.50 63.64 36.93 C 63.77 32.29 63.63 27.64 63.68 23.00 C 64.59 23.00 66.42 23.01 67.33 23.01 C 67.33 29.43 67.33 35.86 67.33 42.28 C 66.42 42.28 64.60 42.28 63.69 42.28 C 63.68 41.82 63.66 40.91 63.65 40.46 C 62.05 41.80 59.13 44.01 57.54 41.50 C 56.68 35.40 57.41 29.16 57.17 23.01 Z" />
<path fill="#ffffff" opacity="1.00" d=" M 26.33 47.39 C 27.74 46.57 29.41 46.76 30.97 46.69 C 44.63 46.73 58.30 46.69 71.97 46.70 C 76.54 46.27 80.66 50.55 80.49 55.05 C 80.52 62.03 80.56 69.01 80.47 75.99 C 80.40 80.29 76.45 84.31 72.03 83.83 C 57.67 83.81 43.31 83.90 28.96 83.79 C 24.86 83.81 21.67 79.86 21.59 75.94 C 21.44 69.28 21.57 62.62 21.53 55.97 C 21.35 52.48 23.02 48.84 26.33 47.39 M 27.71 52.77 C 27.71 53.70 27.70 55.54 27.70 56.46 C 29.04 56.46 30.38 56.47 31.73 56.47 C 31.74 63.57 31.72 70.67 31.74 77.77 C 32.99 77.76 34.23 77.74 35.48 77.71 C 35.44 70.63 35.46 63.55 35.46 56.47 C 36.80 56.47 38.14 56.46 39.48 56.46 C 39.48 55.54 39.46 53.69 39.46 52.77 C 35.54 52.77 31.63 52.77 27.71 52.77 M 52.52 52.77 C 52.47 61.12 52.51 69.47 52.50 77.83 C 53.87 77.77 55.27 77.69 56.55 77.15 C 58.01 77.86 59.85 78.27 61.33 77.39 C 63.07 73.87 62.03 69.77 62.32 65.99 C 62.21 63.66 62.67 60.08 59.85 59.19 C 58.36 58.40 57.11 60.25 55.82 60.71 C 55.84 58.06 55.85 55.42 55.81 52.77 C 54.99 52.77 53.34 52.77 52.52 52.77 M 39.47 59.37 C 39.86 65.51 38.61 71.86 40.23 77.87 C 42.36 78.12 44.36 77.49 45.78 75.85 C 45.79 76.32 45.79 77.25 45.80 77.72 C 46.65 77.73 48.35 77.75 49.21 77.76 C 49.22 71.63 49.20 65.50 49.22 59.36 C 48.07 59.36 46.92 59.37 45.78 59.40 C 45.66 64.19 46.05 69.01 45.60 73.79 C 44.79 74.23 43.96 74.63 43.11 75.00 C 42.42 69.81 42.93 64.57 42.77 59.36 C 41.67 59.36 40.57 59.36 39.47 59.37 M 65.22 62.97 C 65.05 66.89 64.97 70.83 65.29 74.74 C 65.82 78.55 71.44 79.31 73.78 76.77 C 75.18 75.28 74.74 73.10 74.95 71.25 C 73.81 71.24 72.67 71.23 71.53 71.23 C 71.44 72.51 71.32 73.79 71.18 75.07 C 67.43 75.78 68.71 71.23 68.44 68.99 C 70.58 68.96 72.73 68.97 74.88 68.95 C 74.53 65.96 75.95 61.99 73.16 59.86 C 70.55 57.42 65.45 59.41 65.22 62.97 Z" />
<path fill="#ffffff" opacity="1.00" d=" M 55.76 62.57 C 56.85 62.18 57.96 62.36 59.04 62.68 C 58.93 66.78 59.14 70.88 58.84 74.97 C 57.59 75.35 55.38 74.94 55.84 73.13 C 55.77 69.61 55.93 66.09 55.76 62.57 Z" />
<path fill="#ffffff" opacity="1.00" d=" M 68.43 66.25 C 68.23 64.10 68.56 61.25 71.43 62.48 C 71.43 63.42 71.43 65.30 71.43 66.24 C 70.68 66.24 69.18 66.25 68.43 66.25 Z" />
</g>
</svg>
